<svg width="250" height="295" viewBox="0 0 250 295" fill="none" xmlns="http://www.w3.org/2000/svg">
<mask id="path-1-inside-1_165_542" fill="white">
<path d="M62.23 260.912L62.0101 260.74L53.5427 215.398L7.49163 218.021L7.27102 217.848L75.3906 130.913L130.35 173.978L62.23 260.912Z"/>
</mask>
<path d="M62.23 260.912L62.0101 260.74L53.5427 215.398L7.49163 218.021L7.27102 217.848L75.3906 130.913L130.35 173.978L62.23 260.912Z" fill="#D20001"/>
<path d="M62.23 260.912L61.447 261.912L62.4462 262.695L63.2292 261.695L62.23 260.912ZM62.0101 260.74L60.7622 260.973L60.8501 261.444L61.2271 261.739L62.0101 260.74ZM53.5427 215.398L54.7906 215.165L54.5856 214.067L53.4705 214.131L53.5427 215.398ZM7.49163 218.021L6.70865 219.02L7.08564 219.316L7.56382 219.289L7.49163 218.021ZM7.27102 217.848L6.27177 217.065L5.48878 218.064L6.48803 218.847L7.27102 217.848ZM75.3906 130.913L76.1736 129.914L75.1744 129.131L74.3914 130.13L75.3906 130.913ZM130.35 173.978L131.349 174.761L132.132 173.761L131.133 172.978L130.35 173.978ZM62.23 260.912L63.013 259.913L62.7931 259.741L62.0101 260.74L61.2271 261.739L61.447 261.912L62.23 260.912ZM62.0101 260.74L63.258 260.507L54.7906 215.165L53.5427 215.398L52.2948 215.631L60.7622 260.973L62.0101 260.74ZM53.5427 215.398L53.4705 214.131L7.41945 216.754L7.49163 218.021L7.56382 219.289L53.6149 216.666L53.5427 215.398ZM7.49163 218.021L8.27462 217.022L8.05401 216.849L7.27102 217.848L6.48803 218.847L6.70865 219.02L7.49163 218.021ZM7.27102 217.848L8.27027 218.631L76.3899 131.696L75.3906 130.913L74.3914 130.13L6.27177 217.065L7.27102 217.848ZM75.3906 130.913L74.6076 131.913L129.567 174.977L130.35 173.978L131.133 172.978L76.1736 129.914L75.3906 130.913ZM130.35 173.978L129.35 173.195L61.2307 260.129L62.23 260.912L63.2292 261.695L131.349 174.761L130.35 173.978Z" fill="black" mask="url(#path-1-inside-1_165_542)"/>
<mask id="path-3-inside-2_165_542" fill="white">
<path d="M116.113 276.662L116.39 276.635L147.944 242.991L185.334 270.003L185.614 269.976L175.038 160.039L105.538 166.725L116.113 276.662Z"/>
</mask>
<path d="M116.113 276.662L116.39 276.635L147.944 242.991L185.334 270.003L185.614 269.976L175.038 160.039L105.538 166.725L116.113 276.662Z" fill="#D20001"/>
<path d="M116.113 276.662L116.235 277.926L114.971 278.047L114.849 276.784L116.113 276.662ZM116.39 276.635L117.316 277.504L116.988 277.853L116.512 277.899L116.39 276.635ZM147.944 242.991L147.019 242.123L147.783 241.308L148.688 241.962L147.944 242.991ZM185.334 270.003L185.455 271.267L184.978 271.313L184.59 271.032L185.334 270.003ZM185.614 269.976L186.877 269.855L186.999 271.118L185.735 271.24L185.614 269.976ZM175.038 160.039L174.917 158.776L176.18 158.654L176.302 159.918L175.038 160.039ZM105.538 166.725L104.274 166.847L104.152 165.583L105.416 165.461L105.538 166.725ZM116.113 276.662L115.992 275.398L116.269 275.372L116.39 276.635L116.512 277.899L116.235 277.926L116.113 276.662ZM116.39 276.635L115.464 275.767L147.019 242.123L147.944 242.991L148.87 243.86L117.316 277.504L116.39 276.635ZM147.944 242.991L148.688 241.962L186.077 268.974L185.334 270.003L184.59 271.032L147.201 244.021L147.944 242.991ZM185.334 270.003L185.212 268.74L185.492 268.713L185.614 269.976L185.735 271.24L185.455 271.267L185.334 270.003ZM185.614 269.976L184.35 270.098L173.774 160.161L175.038 160.039L176.302 159.918L186.877 269.855L185.614 269.976ZM175.038 160.039L175.16 161.303L105.659 167.989L105.538 166.725L105.416 165.461L174.917 158.776L175.038 160.039ZM105.538 166.725L106.801 166.604L117.377 276.54L116.113 276.662L114.849 276.784L104.274 166.847L105.538 166.725Z" fill="black" mask="url(#path-3-inside-2_165_542)"/>
<circle cx="137.459" cy="102.765" r="79.3423" transform="rotate(16.2933 137.459 102.765)" fill="#F3D038" stroke="black" stroke-width="1.26948"/>
<g filter="url(#filter0_i_165_542)">
<circle cx="137.027" cy="101.977" r="50.1443" transform="rotate(16.2933 137.027 101.977)" fill="#F3D038"/>
</g>
<mask id="path-7-outside-3_165_542" maskUnits="userSpaceOnUse" x="105.526" y="63.6515" width="53.3513" height="74.4091" fill="black">
<rect fill="white" x="105.526" y="63.6515" width="53.3513" height="74.4091"/>
<path d="M117.526 129.385C116.971 129.222 116.541 128.925 116.238 128.491C116.036 128.002 116.017 127.48 116.179 126.924L128.422 85.0386C128.561 84.5626 128.49 84.0683 128.209 83.5557C127.929 83.0431 127.55 82.7173 127.074 82.5782L123.267 81.4652C122.711 81.3029 122.282 81.0051 121.978 80.5718C121.776 80.0824 121.757 79.5601 121.919 79.0048L125.258 67.5814C125.397 67.1054 125.684 66.7155 126.117 66.4116C126.629 66.1309 127.163 66.0717 127.719 66.234L154.373 74.0249C154.849 74.1641 155.227 74.4899 155.508 75.0025C155.789 75.5151 155.86 76.0094 155.72 76.4853L139.026 133.602C138.863 134.157 138.526 134.575 138.013 134.856C137.524 135.058 137.041 135.089 136.565 134.95L117.526 129.385Z"/>
</mask>
<path d="M117.526 129.385C116.971 129.222 116.541 128.925 116.238 128.491C116.036 128.002 116.017 127.48 116.179 126.924L128.422 85.0386C128.561 84.5626 128.49 84.0683 128.209 83.5557C127.929 83.0431 127.55 82.7173 127.074 82.5782L123.267 81.4652C122.711 81.3029 122.282 81.0051 121.978 80.5718C121.776 80.0824 121.757 79.5601 121.919 79.0048L125.258 67.5814C125.397 67.1054 125.684 66.7155 126.117 66.4116C126.629 66.1309 127.163 66.0717 127.719 66.234L154.373 74.0249C154.849 74.1641 155.227 74.4899 155.508 75.0025C155.789 75.5151 155.86 76.0094 155.72 76.4853L139.026 133.602C138.863 134.157 138.526 134.575 138.013 134.856C137.524 135.058 137.041 135.089 136.565 134.95L117.526 129.385Z" fill="#D20001"/>
<path d="M116.238 128.491L115.064 128.974L115.117 129.105L115.198 129.22L116.238 128.491ZM121.978 80.5718L120.804 81.0549L120.858 81.1853L120.939 81.3008L121.978 80.5718ZM126.117 66.4116L125.507 65.2982L125.445 65.3319L125.388 65.3723L126.117 66.4116ZM138.013 134.856L138.496 136.03L138.561 136.003L138.623 135.97L138.013 134.856ZM117.526 129.385L117.882 128.166C117.576 128.077 117.399 127.937 117.277 127.762L116.238 128.491L115.198 129.22C115.683 129.912 116.366 130.368 117.17 130.603L117.526 129.385ZM116.238 128.491L117.412 128.008C117.33 127.811 117.308 127.586 117.397 127.28L116.179 126.924L114.96 126.568C114.725 127.373 114.742 128.193 115.064 128.974L116.238 128.491ZM116.179 126.924L117.397 127.28L129.64 85.3947L128.422 85.0386L127.203 84.6824L114.96 126.568L116.179 126.924ZM128.422 85.0386L129.64 85.3947C129.891 84.5384 129.734 83.6971 129.323 82.946L128.209 83.5557L127.096 84.1655C127.246 84.4395 127.231 84.5868 127.203 84.6824L128.422 85.0386ZM128.209 83.5557L129.323 82.946C128.912 82.1948 128.287 81.61 127.431 81.3597L127.074 82.5782L126.718 83.7967C126.814 83.8246 126.946 83.8915 127.096 84.1655L128.209 83.5557ZM127.074 82.5782L127.431 81.3597L123.623 80.2467L123.267 81.4652L122.91 82.6837L126.718 83.7967L127.074 82.5782ZM123.267 81.4652L123.623 80.2467C123.317 80.1572 123.14 80.0177 123.017 79.8428L121.978 80.5718L120.939 81.3008C121.424 81.9925 122.106 82.4485 122.91 82.6837L123.267 81.4652ZM121.978 80.5718L123.152 80.0888C123.071 79.8913 123.048 79.6671 123.138 79.3609L121.919 79.0048L120.701 78.6486C120.466 79.4531 120.482 80.2736 120.804 81.0549L121.978 80.5718ZM121.919 79.0048L123.138 79.3609L126.477 67.9376L125.258 67.5814L124.04 67.2253L120.701 78.6486L121.919 79.0048ZM125.258 67.5814L126.477 67.9376C126.529 67.7576 126.631 67.6012 126.846 67.4509L126.117 66.4116L125.388 65.3723C124.736 65.8298 124.265 66.4533 124.04 67.2253L125.258 67.5814ZM126.117 66.4116L126.727 67.5251C126.947 67.4042 127.134 67.3857 127.362 67.4525L127.719 66.234L128.075 65.0155C127.193 64.7577 126.312 64.8576 125.507 65.2982L126.117 66.4116ZM127.719 66.234L127.362 67.4525L154.017 75.2434L154.373 74.0249L154.729 72.8065L128.075 65.0155L127.719 66.234ZM154.373 74.0249L154.017 75.2434C154.113 75.2714 154.245 75.3382 154.395 75.6123L155.508 75.0025L156.622 74.3927C156.21 73.6416 155.586 73.0568 154.729 72.8065L154.373 74.0249ZM155.508 75.0025L154.395 75.6123C154.545 75.8863 154.53 76.0336 154.502 76.1292L155.72 76.4853L156.939 76.8415C157.189 75.9851 157.033 75.1439 156.622 74.3927L155.508 75.0025ZM155.72 76.4853L154.502 76.1292L137.807 133.246L139.026 133.602L140.244 133.958L156.939 76.8415L155.72 76.4853ZM139.026 133.602L137.807 133.246C137.74 133.474 137.624 133.622 137.404 133.743L138.013 134.856L138.623 135.97C139.428 135.529 139.986 134.84 140.244 133.958L139.026 133.602ZM138.013 134.856L137.53 133.682C137.288 133.782 137.101 133.784 136.921 133.731L136.565 134.95L136.209 136.168C136.981 136.394 137.76 136.333 138.496 136.03L138.013 134.856ZM136.565 134.95L136.921 133.731L117.882 128.166L117.526 129.385L117.17 130.603L136.209 136.168L136.565 134.95Z" fill="black" mask="url(#path-7-outside-3_165_542)"/>
<defs>
<filter id="filter0_i_165_542" x="86.8701" y="51.8199" width="100.314" height="100.315" filterUnits="userSpaceOnUse" color-interpolation-filters="sRGB">
<feFlood flood-opacity="0" result="BackgroundImageFix"/>
<feBlend mode="normal" in="SourceGraphic" in2="BackgroundImageFix" result="shape"/>
<feColorMatrix in="SourceAlpha" type="matrix" values="0 0 0 0 0 0 0 0 0 0 0 0 0 0 0 0 0 0 127 0" result="hardAlpha"/>
<feOffset/>
<feGaussianBlur stdDeviation="2.53895"/>
<feComposite in2="hardAlpha" operator="arithmetic" k2="-1" k3="1"/>
<feColorMatrix type="matrix" values="0 0 0 0 0 0 0 0 0 0 0 0 0 0 0 0 0 0 0.25 0"/>
<feBlend mode="normal" in2="shape" result="effect1_innerShadow_165_542"/>
</filter>
</defs>
</svg>
