<svg width="190" height="269" viewBox="0 0 190 269" fill="none" xmlns="http://www.w3.org/2000/svg">
<path d="M93.9646 231.407L101.297 226.603L125.065 259.726L119.755 263.266C94.976 280.966 71.9665 249.359 93.9646 231.407Z" fill="#7EB506" stroke="black" stroke-width="1.0114" stroke-linecap="round"/>
<path d="M115.405 151.253C112.168 147.005 115.068 144.426 116.922 143.668C148.882 160.457 162.098 138.189 164.711 124.957H170.526C171.032 127.822 166.986 142.656 158.389 148.977C145.113 158.74 125.182 155.636 115.405 151.253Z" fill="black" stroke="black" stroke-width="1.0114" stroke-linecap="round"/>
<path d="M27.7244 58.9627L8.25488 32.4132C125.578 -38.638 176.654 92.3393 117.992 145.943L124.819 195.249L86.3858 200.054L77.0303 131.531C141.507 91.8332 90.6843 14.9667 27.7244 58.9627Z" fill="#ADFC03" stroke="black" stroke-width="1.0114" stroke-linecap="round"/>
<path d="M8.25488 32.1603L27.7244 58.9625C94.7299 12.6908 138.726 96.6373 76.5246 130.772C124.819 104.269 88.9143 32.1603 27.7244 76.1563L8.25488 49.1013V32.1603Z" fill="#7EB506"/>
<path d="M27.7244 58.9625L8.25488 32.1603V49.1013L27.7244 76.1563M27.7244 58.9625V76.1563M27.7244 58.9625C94.7299 12.6908 138.726 96.6373 76.5246 130.772C124.819 104.269 88.9143 32.1603 27.7244 76.1563" stroke="black" stroke-width="1.0114" stroke-linecap="round"/>
<path d="M65.9053 141.392L76.7779 130.772L86.3862 200.053L75.5136 212.19L65.9053 141.392Z" fill="#7EB506" stroke="black" stroke-width="1.0114" stroke-linecap="round"/>
<path d="M124.061 196.26L86.8922 200.306L76.2725 212.696L113.694 208.144L124.061 196.26Z" fill="#7EB506" stroke="black" stroke-width="1.0114" stroke-linecap="round"/>
<path d="M65.1455 1.05978C67.1012 1.05978 68.9229 2.18399 70.2754 4.10373C71.6269 6.02198 72.4784 8.69868 72.4785 11.6789C72.4785 14.6594 71.6269 17.3367 70.2754 19.2551C68.9229 21.1748 67.1012 22.299 65.1455 22.299C63.19 22.2989 61.369 21.1747 60.0166 19.2551C58.665 17.3367 57.8135 14.6594 57.8135 11.6789C57.8136 8.69868 58.6651 6.02198 60.0166 4.10373C61.369 2.18415 63.19 1.05997 65.1455 1.05978Z" fill="white" stroke="black" stroke-width="1.0114"/>
<path d="M80.8232 1.05978C82.7789 1.05978 84.6006 2.18399 85.9531 4.10373C87.3046 6.02198 88.1562 8.69868 88.1562 11.6789C88.1562 14.6594 87.3047 17.3367 85.9531 19.2551C84.6006 21.1748 82.7789 22.299 80.8232 22.299C78.8677 22.2989 77.0468 21.1747 75.6943 19.2551C74.3428 17.3367 73.4912 14.6594 73.4912 11.6789C73.4913 8.69868 74.3429 6.02198 75.6943 4.10373C77.0468 2.18415 78.8677 1.05997 80.8232 1.05978Z" fill="white" stroke="black" stroke-width="1.0114"/>
<path d="M71.7203 154.54C74.9568 150.292 72.0574 147.713 70.2032 146.955C38.2428 163.744 25.0272 141.476 22.4144 128.244H16.5988C16.0931 131.109 20.1388 145.943 28.7356 152.264C42.0122 162.027 61.9434 158.923 71.7203 154.54Z" fill="black" stroke="black" stroke-width="1.0114" stroke-linecap="round"/>
<path d="M159.967 118.635C155.76 114.922 155.468 110.871 156.794 107.359C146.821 99.5122 158.176 89.5271 165.964 92.8876C165.009 92.3895 164.059 91.9987 163.293 91.7528C167.541 86.2912 179.223 89.7297 179.981 96.557C179.981 93.725 176.947 91.3314 175.43 90.4886C192.497 90.4886 192.811 118.012 178.674 122.221C174.305 134.684 157.447 126.705 159.967 118.635Z" fill="white"/>
<path d="M162.282 100.097C157.806 103.733 152.18 111.761 159.967 118.635M159.967 118.635C161.565 120.046 164.008 121.326 166.833 122.601C165.066 121.67 160.984 119.642 159.967 118.635ZM159.967 118.635C157.438 126.732 174.419 134.737 178.717 122.095C177.284 122.601 174.065 123.41 172.649 122.601C192.624 125.382 194.647 90.4886 175.43 90.4886C176.947 91.3314 179.981 93.725 179.981 96.557C179.223 89.7297 167.541 86.2912 163.293 91.7528C165.653 92.5112 169.769 94.6464 170.373 97.0624C170.626 98.0738 170.373 98.2425 170.373 97.3153C164.305 84.9256 144.495 97.821 156.885 107.429" stroke="black" stroke-width="1.0114" stroke-linecap="round"/>
<path d="M29.4944 126.221C33.7011 122.507 33.9931 118.457 32.6668 114.944C42.6398 107.098 31.2845 97.1127 23.4973 100.473C24.4523 99.9751 25.4023 99.5843 26.1676 99.3384C21.9197 93.8768 10.238 97.3153 9.47948 104.143C9.47948 101.311 12.5137 98.917 14.0308 98.0741C-3.03629 98.0741 -3.34984 125.598 10.7874 129.807C15.1558 142.269 32.0144 134.291 29.4944 126.221Z" fill="white"/>
<path d="M27.179 107.682C31.6546 111.319 37.2813 119.347 29.4944 126.221M29.4944 126.221C27.8961 127.632 25.4525 128.912 22.6277 130.186C24.3949 129.255 28.4764 127.227 29.4944 126.221ZM29.4944 126.221C32.0229 134.318 15.0422 142.323 10.7437 129.68C12.1766 130.186 15.3962 130.995 16.8122 130.186C-3.16306 132.968 -5.18587 98.0741 14.0308 98.0741C12.5137 98.917 9.47948 101.311 9.47948 104.143C10.238 97.3153 21.9197 93.8768 26.1676 99.3384C23.8077 100.097 19.6916 102.232 19.0878 104.648C18.8351 105.659 19.0878 105.828 19.0878 104.901C25.1564 92.5112 44.9662 105.407 32.5764 115.015" stroke="black" stroke-width="1.0114" stroke-linecap="round"/>
<path d="M169.575 104.223C170.586 105.74 171.648 109.432 167.805 112.061" stroke="black" stroke-width="1.0114" stroke-linecap="round"/>
<path d="M19.8863 111.808C18.8749 113.325 17.8129 117.017 21.6562 119.647" stroke="black" stroke-width="1.0114" stroke-linecap="round"/>
<path d="M174.378 104.223C175.39 105.74 176.452 109.432 172.608 112.061" stroke="black" stroke-width="1.0114" stroke-linecap="round"/>
<path d="M15.0816 111.808C14.0702 113.325 13.0082 117.017 16.8516 119.647" stroke="black" stroke-width="1.0114" stroke-linecap="round"/>
<path d="M179.182 104.223C180.193 105.74 181.255 109.432 177.412 112.061" stroke="black" stroke-width="1.0114" stroke-linecap="round"/>
<path d="M10.2789 111.808C9.26747 113.325 8.20549 117.017 12.0488 119.647" stroke="black" stroke-width="1.0114" stroke-linecap="round"/>
<path d="M63.1242 26.8504C63.6299 28.2833 63.8322 31.3512 60.5957 32.1603" stroke="black" stroke-width="1.0114" stroke-linecap="round"/>
<path d="M63.124 29.8846C66.1582 32.1603 73.8955 35.3968 80.5707 30.1375" stroke="black" stroke-width="1.0114" stroke-linecap="round"/>
<path d="M75.2617 32.666C76.1888 32.4131 78.1948 31.8063 78.8016 31.4017C83.6058 36.2059 77.5374 40.5044 75.2617 32.666Z" fill="#D20001" stroke="black" stroke-width="1.0114" stroke-linecap="round"/>
<ellipse cx="66.9167" cy="14.9664" rx="4.04561" ry="5.81557" fill="black"/>
<ellipse cx="82.5944" cy="14.9664" rx="4.04561" ry="5.81557" fill="black"/>
<circle cx="114.2" cy="242.027" r="20.4809" fill="#ADFC03" stroke="black" stroke-width="1.0114"/>
</svg>
