<svg width="512" height="361" viewBox="0 0 512 361" fill="none" xmlns="http://www.w3.org/2000/svg">
<path d="M472.091 31.1028C477.049 30.7093 481.859 30.8657 486.519 31.5764C491.158 32.2842 495.425 33.4656 499.312 35.1282C503.27 36.7116 506.47 38.6003 508.856 40.8225L509.532 41.4514L509.134 42.2844C507.368 45.9695 505.523 50.1218 503.598 54.7414L503.595 54.7483C501.68 59.2669 500.074 63.7039 498.774 68.0598L498.305 69.633L496.909 68.7688C495.272 67.7551 493.71 66.7407 492.226 65.7248C490.799 64.7491 489.296 63.8474 487.716 63.0198L487.705 63.0139L487.693 63.0071C486.236 62.2056 484.623 61.5441 482.849 61.0266L482.817 61.0178L482.787 61.0071C481.149 60.4375 479.269 60.1072 477.131 60.0334L477.1 60.0315C475.911 59.9616 474.719 60.066 473.521 60.3479L473.493 60.3547L473.465 60.3596C472.376 60.5637 471.516 60.9274 470.844 61.4162L470.812 61.4387L470.779 61.4602C470.156 61.8567 469.777 62.3238 469.568 62.8606C469.482 63.2348 469.548 63.8134 470.113 64.6955C470.701 65.57 471.994 66.6011 474.236 67.7248C476.593 68.7886 479.105 69.8159 481.772 70.8069C484.55 71.8098 487.212 72.7744 489.759 73.7004C492.391 74.5534 494.427 75.3969 495.791 76.2473C500.139 78.9046 503.231 82.292 504.974 86.4241H504.975C506.768 90.4189 507.351 94.4908 506.691 98.6106C506.032 102.732 504.177 106.5 501.179 109.904C498.128 113.367 493.993 115.76 488.854 117.125L488.842 117.128C485.156 118.069 481.355 118.775 477.439 119.244C474.024 119.654 470.637 119.915 467.279 120.026L465.843 120.065C462.101 120.143 458.547 120.064 455.184 119.829C451.837 119.596 448.902 119.284 446.385 118.891L445.437 118.742L445.33 117.788C445.173 116.375 445.017 114.579 444.862 112.407L444.86 112.386V112.364C444.784 110.214 444.668 107.986 444.515 105.68L444.513 105.659L444.512 105.639C444.435 103.336 444.32 101.071 444.167 98.8459L444.165 98.8244L444.164 98.803C444.087 96.5665 444.01 94.6803 443.934 93.1438L443.932 93.1125V93.0803C443.932 92.521 444.266 92.1518 444.536 91.9768C444.763 91.8299 444.986 91.7827 445.093 91.7639C445.325 91.723 445.568 91.7285 445.755 91.7395C446.15 91.7627 446.685 91.8384 447.33 91.9514C448.639 92.1054 450.252 92.2975 452.169 92.5276C454.169 92.7583 456.364 92.9898 458.753 93.2209C461.105 93.4485 463.297 93.5609 465.331 93.5618C467.411 93.486 469.146 93.2276 470.555 92.8049C471.846 92.4174 472.404 91.8287 472.621 91.177C472.656 91.0711 472.664 90.9664 472.563 90.7815C472.44 90.5538 472.156 90.2246 471.582 89.8196C470.365 88.9606 468.713 88.0731 466.597 87.1662C464.463 86.2517 462.094 85.3348 459.488 84.4153L459.467 84.4075L459.446 84.3987C456.887 83.3905 454.518 82.4203 452.342 81.4875L452.336 81.4846C448.65 79.8822 445.634 77.8166 443.329 75.2649L443.314 75.2493L443.301 75.2327C441.108 72.6332 439.586 69.8058 438.761 66.7541C437.94 63.7189 437.78 60.5688 438.268 57.3166C438.754 54.0748 439.808 50.9955 441.425 48.0852L441.431 48.0735L441.438 48.0618C443.133 45.1555 445.346 42.504 448.063 40.1057C450.889 37.6033 454.189 35.635 457.95 34.1946C462.395 32.4495 467.111 31.4209 472.091 31.1028Z" fill="#0212EE" stroke="black" stroke-width="2.51274"/>
<path d="M375.307 17.0738C377.516 17.2656 379.717 17.664 381.907 18.2705L382.851 18.5447L382.859 18.5474C383.862 18.8608 384.752 19.4974 385.061 20.6089C385.285 21.4133 385.27 22.2877 385.095 23.1872C384.936 24.0031 384.723 24.8491 384.46 25.724C384.219 26.5281 384.029 27.2929 383.887 28.0181C383.208 31.9641 382.527 35.9103 381.848 39.8563C381.299 43.0429 380.744 46.2571 380.184 49.4992C381.789 48.7376 383.501 47.872 385.319 46.8988L385.339 46.8887C388.089 45.4795 390.803 44.0191 393.484 42.5083C396.275 40.924 398.972 39.3663 401.574 37.8347L401.595 37.8227C404.281 36.3084 406.675 34.9167 408.777 33.6479L408.789 33.6404L408.802 33.6338C411.003 32.3735 412.804 31.3452 414.204 30.5501L414.242 30.5296C414.996 30.1348 415.636 29.8187 416.157 29.5872C416.587 29.3958 417.005 29.2344 417.36 29.1469C417.688 29.04 417.99 29.0935 418.164 29.1513C418.377 29.222 418.524 29.3323 418.587 29.383C418.725 29.4928 418.829 29.6172 418.887 29.689C419.019 29.8523 419.165 30.0685 419.315 30.3057C419.624 30.7932 420.046 31.52 420.575 32.4711C421.635 34.3765 422.873 36.7122 424.289 39.4752C425.73 42.1679 427.179 45.0385 428.636 48.0861C430.184 51.042 431.509 53.5557 432.61 55.6282L433.159 56.6634L432.165 57.2836C429.194 59.1355 426.118 60.8312 422.938 62.3717L422.927 62.3775L422.915 62.3831C419.778 63.8253 416.563 65.2062 413.272 66.5284L413.273 66.5296C410.076 67.8651 406.835 69.1919 403.553 70.5106L403.544 70.5149C400.695 71.6344 397.859 72.8654 395.037 74.208C395.709 77.2844 396.893 80.484 398.606 83.8084C400.494 87.4698 402.787 90.8178 405.487 93.8546C408.181 96.8864 411.139 99.4002 414.359 101.403C417.525 103.372 420.746 104.407 424.031 104.55L426.448 104.654L424.972 106.57C424.389 107.328 423.253 108.868 421.552 111.205L421.547 111.212L421.543 111.218C419.853 113.478 418.002 115.883 415.99 118.432C414.071 120.989 412.227 123.385 410.458 125.62C408.795 127.843 407.579 129.365 406.847 130.104L406.29 130.667L405.542 130.407C400.737 128.739 396.478 126.304 392.779 123.1L392.77 123.092C389.201 119.942 386.076 116.378 383.397 112.403C380.725 108.438 378.513 104.201 376.764 99.6929C375.845 97.3243 375.025 94.9717 374.299 92.6376C374.154 93.9526 373.991 95.3658 373.807 96.8766C373.513 99.2982 373.193 101.847 372.849 104.522L372.649 106.532C372.447 108.516 372.235 110.424 372.012 112.256C371.717 114.681 371.428 116.847 371.146 118.753C370.952 120.656 370.825 121.989 370.762 122.759L370.662 123.983L369.435 123.91C363.549 123.564 357.662 123.218 351.776 122.871C345.827 122.521 339.877 121.721 333.927 120.473L332.764 120.229L332.943 119.055C335.491 102.322 337.858 85.3759 340.045 68.217L340.046 68.2103C342.34 50.9483 345.097 34.042 348.32 17.4924C348.462 16.7588 348.821 16.1161 349.403 15.6299C349.953 15.1698 350.634 14.9086 351.358 14.775L351.914 14.6693C353.232 14.4504 354.7 14.4262 356.306 14.5754C358.09 14.7412 360.019 15.027 362.094 15.4299C364.14 15.7405 366.065 15.9831 367.866 16.1591L367.883 16.1613L367.899 16.1624C370.411 16.4741 372.881 16.7787 375.307 17.0738Z" fill="#0212EE" stroke="black" stroke-width="2.51274"/>
<path d="M270.913 15.2534C273.643 20.7142 276.122 26.2765 278.347 31.9399C280.56 37.5743 282.724 43.2087 284.837 48.8432H284.836C287.042 54.46 289.25 60.1265 291.456 65.8432L292.326 67.9409C293.624 71.0354 294.969 74.0985 296.358 77.1313C296.339 69.1699 296.614 61.0153 297.182 52.6674C297.887 42.2837 298.946 32.4983 300.359 23.3129L300.526 22.227L301.625 22.2475C306.975 22.3485 312.723 22.6515 318.868 23.1547H318.869C325.078 23.5553 330.83 23.7553 336.126 23.7553C336.51 23.7553 336.873 23.8941 337.158 24.1479C337.418 24.3786 337.56 24.655 337.642 24.8715C337.789 25.2645 337.829 25.7184 337.833 26.142C337.939 27.0829 337.873 28.2215 337.676 29.521C337.57 30.7738 337.364 32.2141 337.06 33.8364C336.763 35.4197 336.515 37.0028 336.317 38.5854L336.315 38.5991L336.313 38.6118C334.203 52.9855 332.092 67.2594 329.981 81.4321C327.876 95.5708 326.321 109.86 325.318 124.301L325.243 125.384L324.161 125.467C321.622 125.663 318.464 126.154 314.675 126.952L314.674 126.951C310.917 127.763 307.158 128.322 303.397 128.628C299.688 129.04 296.3 128.995 293.246 128.468C289.995 127.908 287.658 126.272 286.561 123.466L286.551 123.441C283.241 114.415 279.732 105.539 276.021 96.8149C272.899 89.4736 269.49 82.2036 265.799 75.0034C265.421 81.6061 265.109 88.1754 264.864 94.7114V94.7124C264.563 102.652 264.26 110.693 263.959 118.833L263.937 119.451L263.435 119.809C262.51 120.47 261.035 120.964 259.207 121.371C257.384 121.776 255.411 122.18 253.29 122.584L253.241 122.592C251.234 122.893 249.277 123.195 247.371 123.496L247.343 123.499L247.313 123.503C245.505 123.704 244.206 123.854 243.411 123.954L243.396 123.956L243.38 123.956C242.442 124.05 241.34 124.241 240.07 124.534C238.711 124.847 237.395 125.058 236.123 125.165C234.815 125.273 233.548 125.221 232.326 124.998L232.257 124.986L232.19 124.965C230.858 124.566 229.853 123.725 229.292 122.463V122.462C228.528 120.818 227.854 118.447 227.248 115.415C226.641 112.379 226.036 108.945 225.431 105.113C224.825 101.276 224.27 97.2399 223.766 93.0043L223.764 92.9897L223.762 92.9741C223.36 88.7567 222.959 84.7408 222.558 80.9262L222.557 80.9223C222.154 77.0007 221.803 73.4804 221.501 70.3618L221.499 70.3422L221.498 70.3217C221.297 67.2057 221.146 64.8423 221.045 63.2329H221.044C220.943 62.1274 220.795 60.4809 220.596 58.2934L220.593 58.2641L220.592 58.2338C220.492 55.937 220.342 53.4369 220.142 50.7338C219.939 48.0015 219.788 45.1197 219.687 42.0893C219.586 39.0756 219.485 36.2124 219.385 33.5004L219.384 33.478V33.4545C219.384 30.7261 219.434 28.2929 219.536 26.1577C219.638 23.924 219.844 22.1541 220.183 20.9116L220.401 20.1098L221.226 19.9975C229.37 18.8914 237.415 17.8351 245.359 16.8295H245.361C253.428 15.8212 261.545 15.0651 269.712 14.561L270.542 14.5092L270.913 15.2534Z" fill="#0212EE" stroke="black" stroke-width="2.51274"/>
<path d="M199.871 48.48C200.428 48.48 200.93 48.5082 201.36 48.5728C201.73 48.6283 202.134 48.7248 202.491 48.9126C203.084 49.1436 203.551 49.5419 203.877 50.0689L204.018 50.3218L204.051 50.3892L204.077 50.4605C204.453 51.5136 204.813 52.9311 205.164 54.6841C205.473 55.9213 205.727 56.9728 205.923 57.8365L206.103 58.6451V58.648C208.262 68.8165 210.073 78.9854 211.536 89.1548L212.102 92.9693C213.403 101.882 214.571 110.874 215.606 119.946L215.737 121.093L214.604 121.32C213.523 121.536 211.719 121.817 209.22 122.165C206.77 122.515 204.182 122.83 201.458 123.11L201.427 123.112C198.72 123.32 196.117 123.529 193.618 123.737L193.602 123.739H193.585C191.151 123.878 189.346 123.917 188.219 123.842L187.14 123.771L187.05 122.694C186.771 119.352 186.528 116.078 186.319 112.874L186.318 112.873C186.214 111.24 186.11 109.607 186.006 107.974C185.929 106.768 185.851 105.561 185.774 104.354C184.656 104.442 183.538 104.512 182.419 104.563L182.39 104.564H182.361C180.944 104.564 179.496 104.595 178.016 104.656C177.833 107.502 177.65 110.267 177.467 112.953C177.328 116.013 177.189 118.832 177.05 121.407L176.987 122.563L175.829 122.594C170.671 122.734 165.582 122.768 160.562 122.699C155.565 122.629 150.463 122.595 145.258 122.595H143.634L144.042 121.023C145.009 117.292 145.978 113.142 146.947 108.571L146.95 108.557L147.724 105.059C148.235 102.718 148.738 100.36 149.232 97.9839L149.967 94.4077C150.938 89.5529 151.84 84.8024 152.672 80.1568L152.673 80.148L152.675 80.1392C153.578 75.482 154.413 71.2409 155.178 67.4165C155.942 63.5949 156.603 60.3941 157.16 57.8159L157.369 56.855C157.575 55.9356 157.773 55.1399 157.964 54.4722C158.212 53.6038 158.468 52.8756 158.746 52.3658L159.05 51.8101L159.677 51.7232C164.22 51.0941 168.832 50.6047 173.513 50.2554C178.173 49.8383 182.798 49.4917 187.39 49.2134C190.723 49.0051 193.36 48.8305 195.3 48.6919C197.254 48.5523 198.784 48.48 199.871 48.48ZM183.664 76.3159C183.106 76.4431 182.514 76.5999 181.889 76.7876C181.242 76.9817 180.632 77.2073 180.058 77.4624L180.023 77.4771L179.988 77.4898C179.956 77.5019 179.927 77.5158 179.899 77.5269C179.715 78.8202 179.527 80.4295 179.34 82.3599C179.23 84.0112 179.122 85.7723 179.012 87.6431C180.096 87.5825 181.153 87.5231 182.184 87.4624H182.188C183.006 87.417 183.825 87.3547 184.644 87.2788C184.474 85.4565 184.303 83.611 184.133 81.7427L184.131 81.7242L184.13 81.7056C184.02 79.8863 183.863 78.0897 183.664 76.3159Z" fill="#0212EE" stroke="black" stroke-width="2.51274"/>
<path d="M73.6055 45.9692C75.1665 46.0402 77.2838 46.1816 79.9502 46.3921L79.9492 46.3931C82.6848 46.6035 85.455 46.848 88.2598 47.1284C91.1378 47.3392 93.8095 47.585 96.2744 47.8667C98.7292 48.1472 100.56 48.4349 101.707 48.7407L102.822 49.0386L102.621 50.1743C101.855 54.4931 101.192 58.9183 100.635 63.4487C100.199 67.4993 99.9899 71.4914 100.003 75.4253C102.692 75.305 105.33 75.1862 107.916 75.0659L109.098 74.9976C111.444 74.8846 113.808 74.9093 116.191 75.0728C116.439 71.87 116.689 68.4756 116.937 64.8892C117.217 60.7475 117.533 56.8835 117.885 53.2983L118.009 52.0366L119.269 52.1724C121.206 52.3799 123.357 52.5528 125.722 52.6919H125.721C128.172 52.832 130.588 52.9727 132.969 53.1128H132.968C135.433 53.2537 137.727 53.43 139.848 53.6421C141.971 53.8544 143.707 54.1054 145.037 54.4009L146.223 54.6646L145.999 55.8579C145.027 61.0658 144.297 66.5214 143.811 72.2251C143.322 77.946 142.973 83.7373 142.764 89.5991V89.6001C142.554 95.397 142.449 101.194 142.449 106.991V124.707L141.337 124.834C137.669 125.258 133.898 125.575 130.022 125.787C126.201 125.995 122.415 126.307 118.664 126.723C117.761 126.861 117.026 126.944 116.509 126.944C115.951 126.944 115.119 126.811 114.624 126.069L114.503 125.888L114.45 125.677C114.324 125.172 114.345 124.607 114.422 124.061C114.482 123.577 114.518 122.866 114.518 121.906V121.878L114.519 121.851C114.588 120.246 114.659 118.395 114.729 116.297C114.799 114.127 114.868 111.922 114.938 109.682V109.663L114.94 109.643C115.08 107.414 115.184 105.255 115.254 103.167V103.148L115.256 103.128C115.362 101.482 115.447 99.9994 115.513 98.6802C112.997 98.4562 110.508 98.2818 108.045 98.1616C105.647 98.0447 103.224 98.0276 100.774 98.1089C101.156 101.806 101.565 105.559 102.002 109.368C102.488 113.073 103.053 116.478 103.695 119.585L103.977 120.901L103.98 120.92L103.984 120.939C104.192 122.047 104.286 123.09 104.075 123.882C103.836 125.105 102.7 125.629 101.794 125.856L101.754 125.866L101.714 125.874C100.88 126.025 99.6029 126.169 97.917 126.309L97.8906 126.311L97.8652 126.313C96.2466 126.38 93.9834 126.619 91.0576 127.037C90.0678 127.178 88.7307 127.353 87.0498 127.563L87.0508 127.564C85.4203 127.777 83.7564 127.917 82.0596 127.989L82.0605 127.99C80.4036 128.134 78.8731 128.171 77.4736 128.097H77.4707C76.7831 128.059 76.1362 127.96 75.6025 127.747C75.0772 127.536 74.4673 127.129 74.2402 126.375L74.2393 126.375C73.233 123.141 72.4157 119.254 71.7793 114.728C71.1445 110.213 70.6517 105.387 70.2998 100.25L70.2988 100.241V100.232C70.0174 95.0963 69.876 89.8561 69.876 84.5122C69.876 79.1795 69.9465 74.1253 70.0869 69.3501V69.3413L70.0879 69.3325C70.2986 64.4857 70.5793 60.1237 70.9316 56.2485L70.9336 56.229C71.3556 52.2903 71.8173 49.1883 72.3232 46.9478L72.5547 45.9214L73.6055 45.9692Z" fill="#0212EE" stroke="black" stroke-width="2.51274"/>
<path d="M79.5938 1.76562C79.9258 1.80718 80.3321 1.92536 80.6797 2.22461C81.4706 2.82004 81.5986 3.83368 81.5986 4.55762V7.57324C81.5986 9.00579 81.5471 10.9353 81.4463 13.3545C81.3455 15.7729 81.194 18.2899 80.9932 20.9053C80.8928 23.5137 80.7927 26.0222 80.6924 28.4307C80.5922 30.8357 80.543 32.7257 80.543 34.1074C80.543 34.9325 79.892 35.3217 79.6924 35.4268C79.4189 35.5706 79.1055 35.6557 78.8291 35.7139C78.2535 35.835 77.4587 35.9147 76.4883 35.9658L76.4551 35.9668H61.7979C59.8585 35.9668 58.2377 35.9951 56.9307 36.0498C57.2186 42.2007 57.5498 48.6601 57.9258 55.4277L58.6797 66.209C58.931 69.8277 59.1823 73.4717 59.4336 77.1406H59.4326C60.0351 84.4711 60.6387 91.7513 61.2412 98.9814L61.6934 104.274C61.9948 107.766 62.2953 111.181 62.5967 114.521L63.0488 119.476L63.0508 119.498L63.0527 119.521C63.1527 121.322 63.2988 122.526 63.4688 123.206L63.4736 123.223L63.4766 123.238C63.5836 123.72 63.6588 124.158 63.6904 124.537C63.7192 124.883 63.726 125.318 63.5928 125.718L63.5918 125.717C63.4471 126.2 63.1376 126.605 62.6855 126.863C62.2905 127.089 61.8576 127.161 61.4668 127.174C60.7947 127.279 59.7269 127.38 58.3018 127.476C57.5119 127.583 56.0132 127.683 53.8662 127.78L53.8672 127.781C51.7581 127.882 49.2516 127.981 46.3486 128.081C43.5184 128.283 40.4896 128.434 37.2627 128.535L37.2637 128.536C34.1414 128.637 31.1182 128.686 28.1943 128.687C25.3814 128.787 22.9126 128.838 20.79 128.838C18.7052 128.838 17.123 128.745 16.2236 128.488L15.2725 128.217L15.3135 127.229C15.6149 119.893 15.9163 112.255 16.2178 104.316C16.5191 96.3818 16.7708 88.3966 16.9717 80.3613V80.3457C17.2728 72.3153 17.4738 64.3349 17.5742 56.4053C17.6684 48.9634 17.7158 41.7867 17.7217 34.876C17.4573 34.9209 17.1507 34.9754 16.8008 35.041L16.7676 35.0469L16.7344 35.0518C15.2391 35.2511 13.5407 35.5005 11.6387 35.8008L11.6104 35.8057L11.5811 35.8086C9.75461 36.0115 8.02598 36.1647 6.39551 36.2666C5.5739 36.318 4.87442 36.3241 4.35156 36.2588C4.10372 36.2278 3.7848 36.1683 3.49316 36.0225C3.2142 35.8829 2.70036 35.5126 2.65332 34.8145C2.45141 32.3915 2.24922 29.5686 2.04785 26.3467L2.0459 26.3271V26.3076C1.94543 23.0925 1.8446 20.0276 1.74414 17.1143L1.74316 17.0928V9.38281C1.74316 8.31847 1.76811 7.47786 1.82422 6.88867C1.85123 6.60509 1.8918 6.31483 1.96191 6.06934C1.99441 5.95561 2.05761 5.76135 2.18555 5.56934C2.29634 5.40314 2.6268 4.996 3.22363 4.96289V4.96191C8.05573 4.65991 13.6403 4.35836 19.9766 4.05664H19.9775C26.4108 3.75508 32.9449 3.4539 39.5791 3.15234L44.6055 2.93555C49.6038 2.72807 54.5176 2.54837 59.3467 2.39746V2.39844C65.7791 2.09705 71.4627 1.89463 76.3965 1.79395H78.5957C78.9261 1.7458 79.2668 1.72476 79.5938 1.76562Z" fill="#0212EE" stroke="black" stroke-width="2.51274"/>
<path d="M269.89 142.423C274.678 141.69 279.259 141.371 283.63 141.469H283.64C286.965 141.568 290.129 142.04 293.128 142.89H293.127C296.134 143.694 298.796 144.931 301.094 146.61H301.095C303.477 148.268 305.347 150.397 306.693 152.983L306.942 153.473C308.141 155.947 308.671 158.777 308.575 161.925C308.52 164.236 307.818 166.488 306.522 168.667C305.295 170.764 303.716 172.673 301.794 174.393L301.792 174.394C299.932 176.053 297.873 177.484 295.618 178.687L295.608 178.692C294.191 179.432 292.782 180.014 291.382 180.433C291.676 180.637 291.991 180.828 292.329 181.005C293.488 181.538 294.716 181.964 296.017 182.279C297.376 182.55 298.733 182.685 300.088 182.685C301.444 182.685 302.635 182.549 303.67 182.292C304.334 182.103 304.832 181.961 305.166 181.865C305.378 181.805 305.6 181.755 305.82 181.733C305.986 181.716 306.213 181.71 306.458 181.763C306.785 181.812 307.141 181.972 307.402 182.319C307.673 182.681 307.708 183.073 307.708 183.29V184.231C307.708 186.657 307.659 188.918 307.562 191.013C307.513 193.038 307.441 195.229 307.345 197.586L307.322 198.154L306.88 198.512C304.42 200.5 301.696 201.533 298.736 201.538L298.737 201.539C295.925 201.591 293.156 200.964 290.441 199.684V199.683C287.808 198.466 285.363 196.8 283.106 194.693L283.096 194.684C282.063 193.698 281.13 192.679 280.299 191.628C280.3 191.788 280.303 191.95 280.303 192.111V194.669C280.349 195.452 280.394 196.143 280.439 196.742C280.535 197.411 280.598 197.765 280.627 197.881C280.741 198.336 280.619 198.792 280.335 199.128C280.105 199.4 279.824 199.531 279.66 199.594C279.332 199.72 278.945 199.77 278.592 199.797C277.765 199.902 276.524 199.921 274.925 199.875V199.876C273.321 199.876 271.623 199.851 269.829 199.803H269.828C268.092 199.755 266.404 199.707 264.765 199.658H264.764C263.175 199.61 262.034 199.587 261.331 199.587H260.535C260.2 199.587 259.851 199.472 259.568 199.215C259.311 198.981 259.191 198.705 259.133 198.511C259.024 198.147 259.04 197.764 259.068 197.483L259.07 197.465C259.26 195.802 259.428 193.894 259.571 191.739L259.573 191.714C259.765 189.509 259.932 187.206 260.076 184.806C260.221 182.396 260.366 179.962 260.511 177.504C260.655 175.052 260.775 172.697 260.871 170.439C260.967 168.179 261.039 166.113 261.087 164.241C261.118 163.023 261.138 161.94 261.148 160.99C261.109 160.999 261.069 161.006 261.029 161.015C260.653 161.109 260.277 161.204 259.9 161.298L259.826 161.317L259.751 161.326C259.524 161.355 259.259 161.374 259.005 161.346C258.878 161.332 258.69 161.299 258.492 161.209C258.307 161.125 258.054 160.961 257.874 160.662C257.763 160.489 257.691 160.313 257.648 160.197C257.588 160.033 257.531 159.844 257.478 159.644C257.37 159.241 257.256 158.714 257.133 158.075L257.128 158.052L257.124 158.028C256.932 156.779 256.715 155.408 256.475 153.916L256.472 153.897L256.47 153.877C256.276 152.375 256.106 150.944 255.96 149.584C255.815 148.231 255.719 147.375 255.673 147.002L255.547 145.987L256.515 145.657C260.687 144.234 265.146 143.157 269.888 142.424L269.89 142.423ZM284.305 159.877C283.285 159.483 281.956 159.322 280.27 159.466C280.243 160.538 280.23 161.611 280.23 162.683C280.262 163.646 280.282 164.609 280.293 165.571C280.31 165.569 280.326 165.568 280.343 165.566C280.72 165.474 281.099 165.402 281.479 165.352C281.829 165.264 282.032 165.207 282.12 165.178L282.175 165.16L282.23 165.147C284.42 164.634 285.575 163.949 286.073 163.295L286.078 163.288C286.703 162.479 286.695 161.957 286.505 161.534C286.262 160.996 285.647 160.397 284.305 159.877Z" fill="#0212EE" stroke="black" stroke-width="2.51274"/>
<path d="M239.038 156.094C241.425 155.953 243.831 156.259 246.251 156.997L246.735 157.15L246.74 157.152C247.21 157.309 247.459 157.666 247.568 157.939C247.666 158.183 247.678 158.409 247.678 158.54C247.678 158.811 247.621 159.093 247.562 159.33L247.559 159.343L247.555 159.355C247.438 159.784 247.27 160.287 247.057 160.856C246.879 161.423 246.668 162.017 246.427 162.64L246.304 162.995C247.914 163.644 249.485 164.467 251.013 165.466H251.012C253.012 166.716 254.601 168.32 255.753 170.275L255.947 170.61C256.896 172.289 257.53 174.086 257.85 175.996C258.22 178.007 258.276 180.036 258.016 182.08C257.757 184.109 257.24 186.084 256.467 187.999C255.69 189.924 254.67 191.687 253.406 193.285L253.405 193.284C252.178 194.88 250.746 196.257 249.109 197.41L249.105 197.413H249.104C247.463 198.559 245.648 199.342 243.669 199.761L243.668 199.76C240.72 200.421 237.78 200.495 234.858 199.977H234.855C231.977 199.461 229.327 198.443 226.915 196.922L226.907 196.917C224.521 195.388 222.527 193.411 220.931 190.998C219.307 188.544 218.338 185.728 218.005 182.578V182.577C217.713 179.8 217.839 177.116 218.393 174.533L218.395 174.524L218.396 174.517C218.982 171.956 219.899 169.585 221.152 167.41L221.16 167.396C222.443 165.233 223.987 163.32 225.792 161.663L225.802 161.654C227.534 160.095 229.436 158.854 231.506 157.939L231.922 157.761C234.184 156.798 236.558 156.243 239.037 156.095L239.038 156.094ZM237.244 173.166C237.024 173.278 236.801 173.419 236.575 173.593L236.57 173.597C235.719 174.242 235.016 175.087 234.466 176.156L234.463 176.163L234.459 176.17C233.915 177.198 233.593 178.322 233.501 179.554C233.415 180.699 233.656 181.66 234.189 182.49L234.427 182.83C234.989 183.583 235.618 184.082 236.304 184.381C237.194 184.753 238.025 184.867 238.819 184.766C239.622 184.628 240.372 184.28 241.081 183.685L241.09 183.677L241.1 183.669C241.772 183.126 242.272 182.355 242.562 181.279C242.716 180.685 242.684 180.222 242.544 179.841C242.373 179.376 242.086 178.943 241.658 178.542L241.644 178.528L241.63 178.514C241.206 178.089 240.683 177.708 240.049 177.376C239.378 177.025 238.695 176.739 237.998 176.518V176.517C237.762 176.446 237.535 176.316 237.35 176.116C237.141 175.891 237.039 175.64 236.989 175.441C236.898 175.075 236.94 174.715 236.985 174.467C237.056 174.046 237.142 173.613 237.244 173.166Z" fill="#0212EE" stroke="black" stroke-width="2.51274"/>
<path d="M186.614 142.52C187.188 142.32 187.817 142.279 188.45 142.332L188.449 142.333C188.996 142.375 189.687 142.397 190.527 142.397C195.213 142.397 200.012 142.442 204.924 142.533C209.233 142.573 213.267 142.683 217.024 142.862L218.617 142.943L218.652 142.945L218.688 142.949C218.987 142.983 219.442 143.076 219.819 143.406C220.248 143.781 220.388 144.288 220.349 144.747C220.336 145.179 220.217 145.85 220.051 146.639L220.048 146.652C219.876 147.426 219.677 148.572 219.451 150.109C219.237 151.567 219.124 153.566 219.124 156.13C219.124 157.207 219.147 158.063 219.189 158.705H219.188C219.235 159.359 219.245 159.944 219.18 160.399C219.134 160.721 219.012 161.098 218.728 161.423C218.43 161.763 218.044 161.942 217.665 162.005C217.088 162.101 216.423 161.952 215.83 161.772V161.773C213.525 161.14 211.152 160.529 208.71 159.942C206.836 159.49 205.039 159.012 203.318 158.507C203.329 159.324 203.346 160.165 203.372 161.028L203.573 164.37C205.49 164.402 207.391 164.418 209.276 164.418C211.532 164.373 213.742 164.305 215.906 164.215L217.138 164.163L217.212 165.395C217.306 166.947 217.306 168.564 217.213 170.244C217.169 171.843 217.169 173.42 217.213 174.973C217.259 175.567 217.258 176.231 217.214 176.958C217.212 177.345 217.18 177.73 217.088 178.079C216.997 178.425 216.812 178.873 216.402 179.201L216.371 179.225C216.074 179.447 215.733 179.554 215.479 179.613C215.2 179.679 214.886 179.72 214.555 179.745C213.926 179.794 213.234 179.817 212.481 179.818H210.459L210.414 179.814C209.773 179.768 209.384 179.749 209.208 179.749H205.125C205.526 182.686 205.957 185.539 206.425 188.306C206.966 191.509 207.551 194.387 208.179 196.943L208.467 198.115L207.306 198.449C204.232 199.334 201.066 199.939 197.812 200.265C194.529 200.593 191.267 200.523 188.029 200.054L187.33 199.952L187.053 199.302C186.09 197.039 185.319 194.09 184.72 190.494C184.176 187.231 183.75 183.671 183.436 179.818H180.982C180.156 179.818 179.729 179.205 179.568 178.884C179.398 178.544 179.312 178.146 179.261 177.784L179.254 177.737L179.251 177.69C179.203 176.975 179.18 176.197 179.18 175.357C179.18 174.024 179.203 172.691 179.249 171.359C179.294 170.006 179.316 168.793 179.316 167.72V166.163L179.321 166.107C179.353 165.757 179.444 165.308 179.728 164.919C180.063 164.458 180.571 164.214 181.118 164.214H182.884C182.938 161.095 183.044 158.082 183.205 155.174V155.165L183.206 155.157C183.436 151.801 183.804 148.751 184.314 146.013C184.453 145.191 184.658 144.43 184.998 143.86H184.997C185.339 143.245 185.867 142.727 186.614 142.52Z" fill="#0212EE" stroke="black" stroke-width="2.51274"/>
<path d="M446.674 260.96C451.712 260.652 456.731 261.172 461.726 262.518L461.724 262.518C466.719 263.782 471.277 265.756 475.389 268.445C479.544 271.075 482.969 274.382 485.65 278.361L485.649 278.361C488.43 282.386 490.093 286.974 490.648 292.102L490.743 292.972L489.961 293.362C487.673 294.504 485.737 295.5 484.152 296.352L484.131 296.362L484.112 296.372C482.507 297.161 480.913 297.871 479.331 298.505L479.332 298.506C477.83 299.152 476.251 299.783 474.595 300.4C472.918 301.024 470.92 301.67 468.606 302.337L467.601 302.627L467.134 301.691C466.079 299.577 464.632 297.899 462.79 296.631C460.915 295.341 458.857 294.506 456.602 294.123C454.431 293.755 452.121 293.845 449.659 294.417C447.318 294.993 445.099 296.08 442.999 297.699L442.999 297.7C440.197 299.885 438.366 302.407 437.434 305.264L437.277 305.808C436.534 308.529 436.363 311.232 436.758 313.929C437.182 316.823 438.135 319.495 439.616 321.954C441.2 324.365 442.961 326.152 444.886 327.364C446.774 328.467 448.702 328.855 450.711 328.57C452.209 328.298 453.731 327.339 455.245 325.474C454.635 325.344 453.968 325.245 453.244 325.178L453.196 325.174L449.547 324.554L449.479 324.535C448.83 324.349 448.175 324.201 447.515 324.089L447.438 324.075L447.363 324.053C446.759 323.871 446.355 323.77 446.122 323.73L444.882 323.52L445.093 322.282C445.14 322.002 445.277 320.97 445.507 319.135L445.511 319.108L445.515 319.081C445.819 317.292 446.104 315.378 446.371 313.337L446.374 313.314L447.343 307.607L447.348 307.58C447.536 306.714 447.705 306.03 447.855 305.552C447.927 305.323 448.012 305.083 448.115 304.882C448.163 304.789 448.253 304.627 448.401 304.474C448.507 304.364 448.854 304.044 449.389 304.058C450.654 304.014 452.839 304.183 455.86 304.538C458.96 304.902 462.288 305.346 465.843 305.868C469.49 306.326 473.002 306.882 476.38 307.536C478.916 307.966 481.016 308.346 482.675 308.674L484.188 308.984L484.202 308.988L484.215 308.991C485.67 309.339 486.811 310.178 487.227 311.617C487.626 312.776 487.722 314.075 487.573 315.479C487.43 316.83 487.142 318.267 486.716 319.787L486.714 319.794C486.327 321.145 486.04 322.382 485.849 323.506L485.848 323.514L485.846 323.523C484.75 329.487 482.571 334.722 479.293 339.202C476.042 343.643 472.137 347.237 467.58 349.971L467.58 349.97C463.111 352.712 458.221 354.505 452.921 355.353L452.922 355.354C447.698 356.215 442.549 356.092 437.483 354.982C432.401 353.868 427.666 351.724 423.287 348.564L423.279 348.559L423.272 348.554C418.863 345.281 415.299 340.9 412.567 335.448L412.567 335.449C409.973 330.303 408.201 324.92 407.254 319.306C406.31 313.709 406.125 308.23 406.704 302.873L406.704 302.872C407.296 297.447 408.582 292.295 410.567 287.422L410.57 287.416L410.573 287.408C412.655 282.462 415.386 278.106 418.771 274.351C422.174 270.514 426.202 267.408 430.847 265.035C435.531 262.643 440.815 261.293 446.674 260.96Z" fill="#0212EE" stroke="black" stroke-width="2.51274"/>
<path d="M353.433 245.567C354.931 250.711 356.196 255.902 357.226 261.142C358.248 266.344 359.227 271.539 360.163 276.726L361.691 284.565C362.199 287.189 362.705 289.825 363.209 292.471C363.908 295.759 364.666 299.021 365.481 302.258C366.694 295.609 368.17 288.846 369.911 281.972C372.153 273.123 374.606 264.846 377.271 257.14L377.63 256.102L378.706 256.319C383.314 257.249 388.235 258.416 393.466 259.819L393.465 259.819C398.747 261.137 403.668 262.211 408.226 263.042C408.595 263.109 408.919 263.306 409.149 263.6C409.357 263.866 409.443 264.154 409.482 264.368C409.552 264.754 409.513 265.17 409.449 265.541C409.391 266.386 409.15 267.37 408.775 268.462C408.485 269.53 408.08 270.742 407.563 272.092C407.06 273.408 406.598 274.732 406.18 276.063L406.171 276.089C402.091 288.155 398.027 300.135 393.978 312.028C389.941 323.889 386.355 335.966 383.221 348.261L382.953 349.313L381.874 349.2C379.662 348.971 376.868 348.898 373.478 348.991L373.478 348.99C370.092 349.1 366.744 348.991 363.435 348.661C360.174 348.431 357.257 347.857 354.699 346.92C351.943 345.911 350.138 344.096 349.619 341.439L349.614 341.413C348.179 333.11 346.547 324.905 344.718 316.799C343.221 310.162 341.481 303.541 339.498 296.934C338.183 302.383 336.926 307.815 335.728 313.23L335.728 313.231C334.22 320.032 332.695 326.92 331.155 333.895L331.023 334.498L330.465 334.76C329.533 335.199 328.156 335.394 326.513 335.457C324.875 335.52 323.108 335.559 321.214 335.574L321.189 335.574L321.164 335.574C319.386 335.518 317.651 335.47 315.96 335.43L315.93 335.429L315.902 335.427C314.31 335.316 313.167 335.241 312.467 335.202L312.451 335.201L312.436 335.2C311.621 335.135 310.647 335.125 309.51 335.178C308.282 335.236 307.105 335.211 305.983 335.101C304.826 334.989 303.728 334.74 302.695 334.351L302.629 334.326L302.568 334.294C301.451 333.725 300.688 332.813 300.387 331.601L300.386 331.602C299.978 330.044 299.768 327.871 299.722 325.145C299.675 322.428 299.693 319.368 299.773 315.966C299.854 312.559 300.009 308.989 300.24 305.254L300.241 305.239L300.243 305.225C300.559 301.524 300.844 297.997 301.097 294.644L301.098 294.64C301.367 291.194 301.616 288.102 301.846 285.364L301.848 285.345L301.85 285.324C302.167 282.605 302.408 280.543 302.574 279.139L302.573 279.139C302.661 278.17 302.791 276.728 302.963 274.812L302.965 274.782L302.97 274.752C303.245 272.757 303.508 270.579 303.76 268.218C304.015 265.827 304.337 263.315 304.727 260.683C305.114 258.068 305.477 255.582 305.817 253.227L305.82 253.205L305.824 253.182C306.253 250.827 306.68 248.733 307.104 246.905C307.543 244.991 308.002 243.484 308.497 242.449L308.856 241.7L309.687 241.737C316.887 242.063 323.992 242.417 331.003 242.798L331.004 242.799C338.124 243.197 345.248 243.821 352.376 244.67L353.201 244.768L353.433 245.567Z" fill="#0212EE" stroke="black" stroke-width="2.51274"/>
<path d="M294.066 260.997C293.051 267.638 292.23 274.673 291.604 282.104C290.978 289.548 290.468 296.874 290.076 304.082C289.684 311.296 289.371 318.156 289.136 324.661V324.662C288.9 331.097 288.704 336.669 288.547 341.376L288.546 341.375C288.529 341.918 288.193 342.242 288.096 342.33C287.956 342.456 287.811 342.539 287.72 342.587C287.526 342.688 287.295 342.775 287.07 342.85C286.607 343.004 285.95 343.179 285.123 343.376C283.507 343.78 281.47 344.178 279.021 344.573L279.021 344.574C276.641 344.971 274.028 345.328 271.184 345.644L271.183 345.643C268.408 345.96 265.785 346.16 263.315 346.239H263.274C262.426 346.239 261.856 345.658 261.541 345.246C261.188 344.785 260.873 344.167 260.582 343.46L260.57 343.431L260.56 343.401C260.074 342.025 259.592 340.419 259.115 338.59L259.107 338.56L259.102 338.529C258.71 336.649 258.317 334.808 257.926 333.007L257.92 332.977L257.915 332.946C257.601 331.063 257.365 329.65 257.208 328.708V328.707C256.885 326.849 256.568 324.142 256.254 320.607V320.605C255.94 316.995 255.587 312.993 255.194 308.599L255.193 308.588V308.577C254.879 304.18 254.565 299.625 254.251 294.914V294.913C253.936 290.116 253.7 285.67 253.543 281.575C253.386 277.484 253.306 273.935 253.306 270.932C253.306 269.422 253.346 268.15 253.428 267.123C253.508 266.119 253.635 265.268 253.842 264.648L254.089 263.905L254.864 263.8C261.225 262.936 267.508 262.112 273.712 261.326H273.714C280.019 260.538 286.364 259.947 292.747 259.553L294.302 259.457L294.066 260.997Z" fill="#0212EE" stroke="black" stroke-width="2.51274"/>
<path d="M253.81 218.211C254.145 218.213 254.562 218.281 254.943 218.536C255.8 219.032 256.05 220.023 256.137 220.741L256.501 223.735C256.673 225.157 256.855 227.079 257.046 229.492C257.238 231.905 257.391 234.422 257.507 237.043C257.722 239.644 257.925 242.147 258.115 244.55C258.306 246.949 258.485 248.831 258.652 250.203C258.751 251.022 258.152 251.487 257.966 251.615C257.712 251.791 257.411 251.913 257.144 252.004C256.587 252.194 255.808 252.369 254.85 252.537L254.818 252.542L240.267 254.309C238.342 254.542 236.737 254.766 235.446 254.978C236.473 261.049 237.581 267.421 238.77 274.094L240.818 284.706C241.504 288.268 242.192 291.855 242.884 295.467L242.883 295.467C244.365 302.672 245.842 309.826 247.312 316.931L248.399 322.131C249.119 325.56 249.829 328.915 250.531 332.194L251.577 337.057L251.582 337.08L251.586 337.103C251.903 338.877 252.193 340.056 252.444 340.71L252.451 340.726L252.455 340.741C252.62 341.207 252.747 341.632 252.824 342.005C252.894 342.344 252.954 342.776 252.87 343.189L252.868 343.188C252.783 343.685 252.525 344.124 252.107 344.435C251.742 344.707 251.321 344.831 250.935 344.89C250.28 345.076 249.232 345.305 247.829 345.571C247.058 345.773 245.582 346.053 243.463 346.409L243.464 346.41C241.382 346.763 238.906 347.164 236.036 347.614C233.251 348.155 230.262 348.671 227.071 349.16L227.072 349.161C223.985 349.637 220.99 350.051 218.087 350.403C215.307 350.842 212.862 351.19 210.755 351.446C208.686 351.698 207.104 351.796 206.18 351.65L205.203 351.495L205.125 350.509C204.539 343.19 203.918 335.572 203.26 327.655C202.602 319.742 201.89 311.785 201.12 303.784L201.118 303.768C200.449 295.76 199.687 287.814 198.83 279.93C198.027 272.531 197.208 265.401 196.381 258.54C196.124 258.616 195.826 258.707 195.487 258.814L195.455 258.824L195.422 258.833C193.962 259.211 192.306 259.664 190.454 260.191L190.426 260.199L190.398 260.206C188.609 260.627 186.912 260.988 185.305 261.286C184.496 261.436 183.802 261.526 183.275 261.524C183.025 261.523 182.702 261.503 182.395 261.393C182.101 261.288 181.546 260.983 181.415 260.295C180.923 257.914 180.382 255.136 179.793 251.962L179.787 251.924C179.299 248.744 178.83 245.714 178.379 242.834L178.375 242.813L177.446 235.159C177.317 234.102 177.241 233.265 177.225 232.673C177.218 232.388 177.223 232.095 177.263 231.843C177.282 231.726 177.321 231.526 177.425 231.32C177.515 231.141 177.794 230.697 178.382 230.593L178.382 230.592C183.143 229.709 188.65 228.737 194.904 227.673L194.905 227.673C201.255 226.598 207.705 225.511 214.254 224.412L219.218 223.591C224.155 222.782 229.011 222.012 233.787 221.28L233.787 221.281C240.136 220.206 245.754 219.32 250.64 218.625L252.823 218.36C253.145 218.272 253.481 218.21 253.81 218.211Z" fill="#0212EE" stroke="black" stroke-width="2.51274"/>
<path d="M162.897 272.169C166.847 271.937 170.838 272.441 174.864 273.669L175.67 273.924L175.675 273.926C176.163 274.089 176.425 274.461 176.544 274.757C176.651 275.024 176.668 275.282 176.668 275.453C176.668 275.803 176.592 276.198 176.496 276.581L176.493 276.595L176.489 276.608C176.299 277.307 176.019 278.14 175.659 279.102C175.359 280.06 175.003 281.072 174.59 282.135L174.103 283.531C174.101 283.534 174.1 283.538 174.099 283.541C177.059 284.665 179.94 286.146 182.742 287.978H182.741C186.044 290.039 188.652 292.674 190.54 295.883H190.539C192.278 298.804 193.429 301.944 193.991 305.298C194.61 308.637 194.703 312.008 194.271 315.406C193.841 318.784 192.98 322.07 191.691 325.26C190.402 328.454 188.71 331.376 186.618 334.025L186.619 334.026C184.581 336.682 182.2 338.971 179.479 340.887L179.475 340.891C176.782 342.769 173.807 344.052 170.559 344.742C165.644 345.847 160.749 345.973 155.885 345.111L155.883 345.11C151.091 344.25 146.687 342.558 142.682 340.032L142.675 340.027C138.719 337.492 135.413 334.216 132.763 330.209C130.085 326.161 128.478 321.506 127.924 316.272V316.271C127.435 311.63 127.647 307.156 128.568 302.856L128.57 302.848L128.572 302.839C129.55 298.562 131.081 294.61 133.168 290.989L133.172 290.981L133.176 290.974C135.317 287.364 137.891 284.176 140.897 281.415L140.906 281.408C143.978 278.643 147.365 276.485 151.063 274.943C154.824 273.34 158.771 272.416 162.896 272.169H162.897ZM161.157 298.964C160.139 299.137 159.13 299.594 158.117 300.37L158.112 300.374C156.55 301.56 155.271 303.104 154.279 305.032L154.271 305.045C153.286 306.907 152.708 308.937 152.542 311.15C152.382 313.277 152.832 315.108 153.855 316.699L154.071 317.017C155.159 318.572 156.421 319.626 157.846 320.245C159.495 320.935 161.073 321.159 162.602 320.96C164.141 320.701 165.567 320.033 166.89 318.922L166.898 318.914L166.908 318.908C168.218 317.849 169.159 316.367 169.695 314.384C169.996 313.226 169.951 312.248 169.64 311.402C169.297 310.471 168.729 309.621 167.908 308.852L167.894 308.837L167.879 308.824C167.087 308.032 166.124 307.331 164.975 306.729C163.799 306.113 162.597 305.609 161.371 305.217C161.095 305.143 160.831 304.996 160.618 304.766C160.389 304.519 160.273 304.239 160.214 304.003C160.104 303.564 160.149 303.099 160.219 302.716C160.342 301.981 160.495 301.218 160.677 300.429L160.687 300.385L160.7 300.342C160.851 299.852 161.004 299.393 161.157 298.964Z" fill="#0212EE" stroke="black" stroke-width="2.51274"/>
<path d="M65.8428 221.871L66.584 221.905L67.6777 221.978L67.7539 223.072C68.6738 236.296 69.5359 249.462 70.3408 262.571C71.1181 275.229 72.1116 287.941 73.3184 300.708C73.5142 300.668 73.7366 300.622 73.9873 300.566C74.9886 300.343 76.0516 300.064 77.1758 299.727L77.1904 299.722L77.2061 299.718C78.4271 299.385 79.4676 299.055 80.334 298.732C80.739 298.55 80.9971 298.403 81.1475 298.297C82.7336 286.229 83.6995 274.162 84.041 262.095C84.3864 249.775 85.0193 237.454 85.9404 225.134L86.0254 224.002L87.1592 223.972C95.683 223.742 104.093 223.684 112.388 223.799C120.659 223.914 129.102 223.972 137.719 223.972H139.372L138.93 225.564C137.215 231.738 135.497 238.835 133.777 246.857C132.168 254.904 130.502 263.24 128.777 271.862C127.17 280.36 125.619 288.802 124.126 297.185C122.63 305.584 121.191 313.238 119.81 320.146C118.545 327.043 117.394 332.912 116.357 337.751L116.356 337.757C115.837 340.125 115.371 342.06 114.961 343.555C114.558 345.022 114.187 346.149 113.839 346.845L113.543 347.437L112.888 347.528C105.394 348.565 97.7856 349.371 90.0635 349.948L90.0645 349.949C82.3507 350.64 74.694 351.214 67.0947 351.674L67.0957 351.675C61.5855 352.02 57.1787 352.363 53.8691 352.706C50.5386 353.05 47.9115 353.227 46.0098 353.229C44.2058 353.34 42.7303 353.306 41.7891 352.993C40.7626 352.651 39.9936 351.952 39.5098 350.984L39.4941 350.951L39.4795 350.917C39.0846 349.995 38.7749 348.861 38.5352 347.542C38.3052 346.278 38.0756 345.013 37.8457 343.749L37.835 343.689L37.8301 343.628C37.7182 342.286 37.5503 341.004 37.3281 339.783L37.3184 339.727L37.3135 339.671C37.1995 338.418 37.0863 337.407 36.9756 336.631L36.9736 336.612C35.8252 327.539 34.5618 318.351 33.1836 309.047L33.1816 309.04L33.1807 309.032C31.9169 299.726 30.5964 290.477 29.2178 281.286L29.2158 281.277L29.2148 281.269C27.9506 271.959 26.6861 262.822 25.4219 253.857L25.4199 253.839C24.2701 244.755 23.1775 235.958 22.1426 227.449L22.002 226.293L23.1436 226.066C24.9053 225.714 27.8094 225.249 31.834 224.674C35.8872 224.095 40.168 223.632 44.6758 223.286C49.2666 222.827 53.5753 222.482 57.6016 222.251C61.2228 221.95 63.9843 221.817 65.8428 221.871Z" fill="#0212EE" stroke="black" stroke-width="2.51274"/>
</svg>
