<svg width="690" height="272" viewBox="0 0 690 272" fill="none" xmlns="http://www.w3.org/2000/svg">
<path d="M605.051 15.3144C606.276 15.2129 607.259 15.2004 607.928 15.3154C608.282 15.3253 608.656 15.4035 608.983 15.622C609.308 15.8387 609.517 16.1445 609.63 16.4833C609.794 16.784 609.867 17.122 609.896 17.4443C609.929 17.8054 609.911 18.2123 609.859 18.6523V21.6747C609.859 27.0534 609.806 32.808 609.698 38.9374V56.6533C609.698 56.9682 609.668 57.2894 609.572 57.5771C609.484 57.8413 609.312 58.1506 608.987 58.3515C608.832 58.4591 608.682 58.4971 608.625 58.5107C608.52 58.5357 608.417 58.5459 608.334 58.5507C608.165 58.5606 607.965 58.5553 607.75 58.541C607.314 58.5119 606.712 58.44 605.955 58.332V58.3329C602.098 57.7972 598.079 57.3145 593.897 56.8857L593.885 56.8847L593.872 56.8828C589.797 56.3466 585.668 55.8645 581.485 55.4355C577.294 55.0056 573.156 54.5753 569.072 54.1454C565.302 53.7485 561.713 53.3501 558.308 52.9531C558.184 54.0034 558.118 55.393 558.118 57.1367V61.2509H596.22L596.157 62.1923C596.05 63.798 595.942 65.6736 595.835 67.8193C595.728 69.9676 595.62 72.1699 595.513 74.4257C595.406 76.6764 595.298 78.927 595.19 81.1777C595.19 83.3313 595.137 85.2767 595.028 87.0117L594.982 87.746L594.251 87.832C592.4 88.0497 589.748 88.2662 586.305 88.4814L586.291 88.4824H586.277C582.847 88.5896 579.255 88.7503 575.501 88.9648C571.741 89.1796 568.143 89.3945 564.706 89.6093L564.679 89.6113C561.691 89.7046 559.318 89.7996 557.557 89.8925C557.295 92.6262 557.216 94.7389 557.311 96.2499C557.362 97.0674 557.499 97.5264 557.63 97.7451C557.676 97.8222 557.708 97.8456 557.714 97.8495C557.701 97.8428 557.708 97.8556 557.771 97.8476L557.779 97.8466L557.788 97.8456C564.866 97.095 572.752 96.0761 581.446 94.788C590.14 93.5 598.511 92.1047 606.559 90.6025L607.519 90.4228L607.6 91.3964C607.706 92.6733 607.974 95.2955 608.404 99.2734C608.94 103.133 609.476 107.259 610.012 111.651L610.476 114.923C610.92 118.154 611.305 121.266 611.628 124.257H611.627C612.056 128.122 612.327 130.712 612.436 132.016L612.507 132.872L611.653 132.966C597.986 134.472 584.317 135.495 570.649 136.033L570.648 136.032C557.1 136.677 543.443 137.055 529.68 137.162H529.673C527.448 137.162 525.622 136.777 524.332 135.874C522.923 134.888 522.296 133.092 522.184 130.844L522.183 130.821V130.8C522.183 117.253 522.343 103.76 522.666 90.3203C522.982 77.1637 523.244 63.9038 523.457 50.541C522.059 50.4349 520.804 50.2931 519.695 50.1083L519.683 50.1064C518.511 49.8934 517.507 49.7346 516.669 49.6298C516.22 49.5737 515.814 49.4964 515.501 49.3788C515.347 49.3211 515.155 49.2322 514.988 49.0859C514.81 48.9296 514.607 48.656 514.606 48.2714C514.606 46.8004 514.501 44.6232 514.286 41.7275L514.285 41.7119V41.6953C514.178 38.8052 514.017 35.9692 513.803 33.1874L513.801 33.1523C513.693 30.2436 513.64 27.7069 513.64 25.5439C513.64 24.4592 513.679 23.5995 513.77 22.9951C513.814 22.7017 513.879 22.4047 513.989 22.1591C514.065 21.9901 514.323 21.4988 514.897 21.4433C516.981 21.1163 520.28 20.7936 524.774 20.4726C529.397 20.0427 534.608 19.6131 540.407 19.1835H540.409C546.321 18.7536 552.556 18.3234 559.112 17.8935H559.113C565.778 17.4635 572.068 17.0871 577.981 16.7646C583.999 16.3348 589.429 16.012 594.271 15.7968C599.094 15.5825 602.687 15.4218 605.051 15.3144Z" fill="#F3D038" stroke="black" stroke-width="1.76427"/>
<path d="M461.572 30.4797C467.502 30.0101 473.249 30.1983 478.813 31.047C484.368 31.8943 489.466 33.3083 494.103 35.2931H494.104C498.83 37.1836 502.614 39.4249 505.419 42.0363L505.895 42.4777L505.614 43.0627C503.479 47.5189 501.249 52.5367 498.924 58.1164L498.922 58.1213C496.604 63.5913 494.658 68.9655 493.084 74.2433L492.755 75.3478L491.774 74.7414C489.807 73.5234 487.932 72.3046 486.149 71.0851C484.408 69.8939 482.574 68.7937 480.647 67.7843L480.64 67.7795L480.632 67.7756C478.83 66.7845 476.84 65.9691 474.66 65.3332L474.638 65.3273L474.617 65.3195C472.572 64.6081 470.239 64.2012 467.608 64.1105L467.598 64.1095H467.587C466.09 64.0215 464.591 64.1533 463.088 64.507L463.049 64.5148C461.662 64.7749 460.531 65.2438 459.631 65.8986L459.609 65.9152L459.586 65.9299C458.716 66.4836 458.158 67.1652 457.856 67.9738C457.685 68.6579 457.844 69.5464 458.593 70.7131C459.394 71.911 461.082 73.2197 463.828 74.5939C466.689 75.8852 469.736 77.1318 472.97 78.3332L482.593 81.8195C485.777 82.8499 488.187 83.8543 489.771 84.8439H489.77C494.922 87.9939 498.55 91.9861 500.591 96.8322C502.707 101.545 503.389 106.332 502.614 111.171C501.84 116.012 499.661 120.449 496.115 124.474C492.532 128.541 487.663 131.369 481.562 132.989L481.555 132.991C477.137 134.119 472.579 134.965 467.884 135.528C463.783 136.021 459.716 136.334 455.685 136.467L453.959 136.514C449.463 136.608 445.196 136.513 441.16 136.232C437.136 135.951 433.615 135.576 430.602 135.106L429.936 135.001L429.861 134.331C429.673 132.638 429.486 130.482 429.299 127.867L429.298 127.852V127.835C429.205 125.236 429.066 122.543 428.88 119.756L428.878 119.727C428.785 116.941 428.646 114.202 428.46 111.511L428.459 111.496V111.481C428.366 108.781 428.273 106.503 428.18 104.646L428.179 104.623V104.602C428.179 104.199 428.419 103.932 428.619 103.802C428.789 103.692 428.96 103.654 429.056 103.637C429.26 103.601 429.493 103.604 429.707 103.616C430.153 103.643 430.782 103.729 431.571 103.868C433.15 104.054 435.095 104.286 437.407 104.564H437.408C439.825 104.842 442.475 105.121 445.359 105.401C448.213 105.677 450.878 105.815 453.354 105.816C455.91 105.724 458.066 105.406 459.837 104.875C461.522 104.37 462.401 103.548 462.748 102.506C462.851 102.198 462.832 101.891 462.635 101.528C462.422 101.134 461.993 100.669 461.259 100.151C459.743 99.0803 457.707 97.9898 455.131 96.8859C452.542 95.7766 449.672 94.6658 446.519 93.5529L446.489 93.5412C443.407 92.3271 440.557 91.1594 437.938 90.0373L437.935 90.0353C433.556 88.1315 429.997 85.6883 427.288 82.6896L427.278 82.6779L427.269 82.6672C424.677 79.596 422.888 76.2672 421.92 72.6838C420.955 69.1119 420.764 65.4007 421.34 61.5597C421.915 57.7262 423.161 54.0849 425.075 50.6398L425.079 50.632L425.084 50.6242C427.092 47.1814 429.718 44.0342 432.95 41.1818C436.087 38.4036 439.722 36.1773 443.848 34.4992L444.68 34.1701C449.985 32.0867 455.618 30.8577 461.572 30.4797Z" fill="#F3D038" stroke="black" stroke-width="1.76427"/>
<path d="M330.325 54.103C334.39 53.8639 338.502 54.3819 342.656 55.6489L343.487 55.9126L343.491 55.9136L343.618 55.9653C343.896 56.1007 344.056 56.3351 344.136 56.5337C344.218 56.74 344.233 56.9463 344.233 57.0991C344.233 57.411 344.165 57.7822 344.067 58.1733L344.065 58.1821L344.063 58.1919C343.868 58.9069 343.58 59.7676 343.205 60.769C342.893 61.7645 342.522 62.8171 342.091 63.9263L341.581 65.3852C341.533 65.5244 341.487 65.6599 341.442 65.7915C344.629 66.9664 347.731 68.5399 350.747 70.5102L351.376 70.9145C354.479 72.9682 356.945 75.5385 358.761 78.6245H358.76C360.548 81.6275 361.732 84.856 362.309 88.3052L362.422 88.9497C362.955 92.1773 363.013 95.4332 362.596 98.7143C362.152 102.201 361.264 105.592 359.934 108.885C358.602 112.181 356.857 115.195 354.699 117.926L354.7 117.927C352.6 120.663 350.149 123.02 347.348 124.994L347.344 124.997C344.582 126.923 341.53 128.239 338.196 128.946L338.197 128.947C333.125 130.088 328.078 130.216 323.062 129.327H323.06C318.115 128.439 313.575 126.693 309.445 124.088L309.44 124.085C305.366 121.475 301.961 118.101 299.229 113.971C296.477 109.812 294.822 105.023 294.251 99.6264V99.6255C293.746 94.8268 293.965 90.2063 294.916 85.769L294.919 85.7573L295.115 84.9331C296.13 80.8278 297.645 77.0209 299.665 73.5161L299.671 73.5063C301.884 69.7764 304.542 66.4845 307.646 63.6343L307.651 63.6284C310.625 60.9523 313.882 58.8299 317.422 57.2651L318.133 56.9595C322.007 55.3089 326.073 54.3569 330.324 54.103H330.325ZM329.131 81.1186C327.747 81.1935 326.394 81.722 325.055 82.7485L325.051 82.7505C323.366 84.0285 321.991 85.69 320.931 87.7524L320.926 87.7622C319.869 89.7581 319.251 91.9334 319.073 94.2973C318.9 96.6009 319.388 98.6062 320.512 100.351C321.734 102.213 323.186 103.48 324.859 104.208L325.194 104.342C326.867 104.988 328.488 105.193 330.068 104.983C331.753 104.698 333.307 103.967 334.739 102.764L334.746 102.758L334.752 102.753C336.199 101.585 337.224 99.9568 337.803 97.8149C338.135 96.5353 338.095 95.423 337.734 94.4438C337.352 93.4051 336.72 92.4647 335.819 91.6206L335.809 91.6108L335.799 91.6001C334.939 90.7402 333.897 89.9857 332.665 89.3403C331.407 88.6815 330.121 88.1431 328.808 87.7251V87.7231C328.597 87.6641 328.398 87.5536 328.237 87.3804C328.06 87.1896 327.966 86.9689 327.917 86.7729C327.825 86.4035 327.859 85.9913 327.928 85.6108C328.055 84.8511 328.213 84.0622 328.401 83.2446L328.409 83.2143L328.418 83.1841C328.653 82.4202 328.891 81.7311 329.131 81.1186Z" fill="#F3D038" stroke="black" stroke-width="1.76427"/>
<path d="M396.349 64.673C399.318 64.4984 402.319 64.8773 405.348 65.801L405.954 65.9933L405.957 65.9943C406.302 66.1093 406.489 66.3722 406.573 66.5832C406.649 66.7735 406.661 66.9582 406.661 67.0832C406.661 67.3393 406.606 67.6311 406.534 67.9191L406.532 67.9279L406.529 67.9367C406.385 68.4654 406.174 69.0989 405.899 69.8303C405.674 70.5473 405.407 71.3041 405.099 72.0998L404.73 73.1525C404.723 73.1752 404.715 73.1976 404.707 73.2199C406.955 74.068 409.143 75.189 411.271 76.5803H411.27C413.75 78.128 415.708 80.1063 417.126 82.5148L417.366 82.9299C418.541 85.008 419.327 87.2314 419.723 89.5959L419.806 90.0666C420.195 92.4232 420.237 94.8005 419.933 97.1955C419.609 99.7366 418.961 102.209 417.992 104.609C417.022 107.011 415.749 109.209 414.176 111.201L414.177 111.202C412.644 113.2 410.854 114.92 408.809 116.362L408.805 116.363C406.779 117.777 404.54 118.743 402.096 119.26L402.095 119.259C398.402 120.088 394.725 120.182 391.07 119.534L391.068 119.533C387.464 118.886 384.152 117.614 381.14 115.714L381.134 115.71C378.159 113.805 375.674 111.341 373.681 108.328C371.668 105.286 370.46 101.786 370.043 97.8498V97.8488C369.675 94.3563 369.835 90.9903 370.528 87.756L370.531 87.7443C371.267 84.5262 372.418 81.5527 373.988 78.8283L373.994 78.8185C375.605 76.1026 377.541 73.704 379.803 71.6271L379.81 71.6213C382.122 69.5401 384.672 67.9162 387.456 66.756C390.282 65.5524 393.248 64.8582 396.348 64.673H396.349ZM395.132 84.7267C394.316 84.8441 393.51 85.1985 392.702 85.8176L392.698 85.8205C391.512 86.7204 390.541 87.8919 389.79 89.3527L389.785 89.3625C389.038 90.7742 388.599 92.3137 388.474 93.9904C388.352 95.6085 388.694 97.0048 389.477 98.218C390.339 99.5304 391.354 100.41 392.514 100.913C393.765 101.437 394.966 101.608 396.13 101.456C397.304 101.259 398.39 100.751 399.396 99.9055L399.403 99.8996L399.409 99.8947C400.409 99.0871 401.125 97.9573 401.532 96.4514C401.762 95.5668 401.73 94.8151 401.489 94.1623C401.227 93.45 400.792 92.8014 400.167 92.215L400.157 92.2053L400.146 92.1955C399.544 91.5933 398.813 91.061 397.941 90.6047C397.045 90.1349 396.128 89.752 395.192 89.4543V89.4523C395.002 89.3976 394.822 89.2961 394.675 89.1379C394.512 88.9621 394.427 88.7622 394.385 88.592C394.305 88.2741 394.338 87.9346 394.39 87.6486C394.482 87.0954 394.597 86.5218 394.734 85.9279L394.741 85.8967L394.751 85.8664C394.877 85.4579 395.004 85.0778 395.132 84.7267Z" fill="#F3D038" stroke="black" stroke-width="1.76427"/>
<path d="M201.727 42.5796C203.635 42.6663 206.228 42.8386 209.503 43.0972L209.502 43.0981C212.863 43.3567 216.268 43.6578 219.715 44.0024C223.248 44.2611 226.526 44.5633 229.548 44.9087C232.564 45.2533 234.772 45.6029 236.131 45.9653L236.914 46.1743L236.772 46.9722C235.828 52.293 235.013 57.7435 234.326 63.3237C233.762 68.5673 233.503 73.7329 233.547 78.8208C237.1 78.6623 240.581 78.5047 243.988 78.3462C247.529 78.1052 251.106 78.1278 254.718 78.4067C255.039 74.2743 255.362 69.8792 255.684 65.2212C256.028 60.1354 256.416 55.3924 256.848 50.9927L256.935 50.1069L257.819 50.2016C260.213 50.4581 262.867 50.6718 265.782 50.8432H265.781C268.795 51.0154 271.765 51.1877 274.692 51.3598H274.691C277.714 51.5326 280.525 51.7486 283.121 52.0083C285.719 52.2681 287.825 52.574 289.423 52.9292L290.255 53.1138L290.099 53.9516C288.899 60.3768 287.999 67.1055 287.398 74.1372C286.797 81.181 286.367 88.3113 286.109 95.5278C285.852 102.662 285.723 109.796 285.723 116.93V138.118L284.942 138.208C280.448 138.727 275.824 139.115 271.073 139.374C266.359 139.632 261.688 140.017 257.061 140.531C255.948 140.701 255.082 140.796 254.497 140.796C253.884 140.796 253.152 140.648 252.73 140.016L252.646 139.889L252.608 139.741C252.482 139.234 252.499 138.628 252.591 137.982C252.669 137.347 252.711 136.447 252.711 135.266V135.247L252.712 135.228C252.798 133.252 252.884 130.973 252.97 128.393C253.056 125.725 253.142 123.014 253.229 120.26V120.247L253.229 120.233C253.401 117.486 253.529 114.826 253.615 112.252L253.617 112.225C253.765 109.93 253.879 107.891 253.963 106.11C250.647 105.806 247.367 105.575 244.125 105.416C240.928 105.261 237.694 105.247 234.424 105.376C234.913 110.147 235.439 114.993 236.004 119.915L236.267 121.854C236.805 125.687 237.416 129.252 238.098 132.547L238.444 134.172L238.447 134.186L238.449 134.2C238.705 135.562 238.789 136.716 238.569 137.533C238.367 138.657 237.322 139.21 236.247 139.479L236.219 139.486L236.19 139.491C235.199 139.671 233.656 139.847 231.587 140.019L231.568 140.02L231.551 140.021C229.528 140.105 226.721 140.402 223.116 140.916C221.904 141.09 220.264 141.305 218.198 141.563C216.204 141.823 214.167 141.997 212.089 142.084C210.078 142.259 208.23 142.304 206.547 142.215H206.544C205.729 142.17 205.017 142.054 204.458 141.831C203.9 141.607 203.354 141.215 203.162 140.544V140.543C201.942 136.615 200.945 131.881 200.167 126.35C199.389 120.818 198.785 114.9 198.354 108.598L198.353 108.586C198.007 102.286 197.835 95.856 197.835 89.2983C197.835 82.7486 197.921 76.5422 198.094 70.6792V70.6665C198.352 64.7164 198.698 59.3649 199.13 54.6138V54.6069L199.131 54.6001C199.649 49.7673 200.213 45.9836 200.826 43.2661L200.989 42.5454L201.727 42.5796Z" fill="#F3D038" stroke="black" stroke-width="1.76427"/>
<path d="M118.755 1.35449C125.673 0.802705 132.589 1.21789 139.503 2.60059H139.502C146.425 3.84827 152.804 6.06696 158.635 9.25977C164.604 12.3171 169.746 16.3477 174.056 21.3496H174.057C178.391 26.2262 181.476 31.953 183.312 38.5156L183.485 39.1543L183.492 39.1807L183.497 39.207C183.577 39.6059 183.492 39.9901 183.359 40.3154C183.225 40.644 183.018 40.974 182.769 41.3008C182.269 41.9539 181.515 42.7024 180.539 43.5391L180.538 43.5381C178.719 45.2142 176.295 47.0819 173.278 49.1387L173.255 49.1543C170.241 51.0723 166.954 53.1266 163.394 55.3174C159.826 57.5127 156.529 59.4364 153.503 61.0869C150.484 62.7335 147.935 64.0434 145.86 65.0117C144.828 65.4937 143.998 65.8302 143.405 65.9883C143.13 66.0617 142.795 66.1283 142.484 66.0869C142.321 66.0651 142.07 66.0014 141.854 65.7998C141.613 65.5746 141.526 65.2837 141.526 65.0332C141.526 60.1196 140.201 56.7211 137.732 54.623L137.724 54.6152L137.714 54.6064C135.132 52.2827 132.114 51.0628 128.626 50.9336L128.609 50.9326L128.594 50.9316C125.061 50.67 121.515 51.3196 117.945 52.9043C114.543 54.4748 112.022 56.7466 110.342 59.7168C108.479 63.0435 107.284 66.5664 106.752 70.2881C106.217 74.0309 106.216 77.7728 106.749 81.5156C107.417 85.2471 108.616 88.8474 110.349 92.3184C112.102 95.4477 114.266 98.2841 116.843 100.829L117.364 101.335L117.372 101.342L117.379 101.35C120.122 104.093 122.973 105.32 125.954 105.196C129.05 105.067 131.814 104.04 134.269 102.102C136.734 100.155 138.63 97.5512 139.947 94.2578C141.246 91.0108 141.512 87.5643 140.726 83.8936L140.723 83.8818C140.673 83.6345 140.691 83.3708 140.799 83.1201C140.902 82.8784 141.067 82.6984 141.233 82.5674C141.547 82.3198 141.957 82.1765 142.358 82.0811C143.182 81.885 144.379 81.7998 145.897 81.7998C148.933 81.7998 152.375 81.9382 156.222 82.2129H156.221C160.197 82.4871 163.969 82.8286 167.538 83.2402C171.225 83.5131 173.576 83.6475 174.629 83.6475C177.354 83.6475 179.315 83.7141 180.472 83.8574C181.123 83.9298 181.696 84.0429 182.164 84.2129C182.616 84.3772 183.078 84.6342 183.366 85.0664C183.63 85.4625 183.72 85.925 183.72 86.376C183.72 86.8073 183.637 87.2788 183.499 87.7773C183.376 88.5277 183.31 89.56 183.31 90.8916C183.31 96.5955 182.404 102.361 180.602 108.186L180.601 108.191C178.795 113.885 176.157 119.296 172.691 124.426L172.686 124.436C169.215 129.434 164.982 133.941 159.995 137.959L159.989 137.964L159.983 137.968C154.978 141.861 149.349 144.848 143.104 146.931C137.414 148.873 131.317 150.051 124.815 150.466H124.807L124.798 150.467C118.42 150.744 112.111 150.119 105.874 148.595L105.87 148.594C99.7572 147.066 93.9256 144.566 88.3779 141.099C82.8092 137.618 78.0078 133.164 73.9766 127.742L73.9736 127.737C67.8896 119.441 63.3969 110.179 60.4961 99.957C57.5982 89.7453 56.3553 79.4591 56.7695 69.1025L56.7705 69.0908C57.3232 58.7283 59.6035 48.8442 63.6123 39.4443L63.6143 39.4385C67.7724 29.8747 73.8064 21.7602 81.71 15.1045C86.2807 11.188 91.5205 8.13237 97.4219 5.93457L98.6113 5.50586C105.118 3.15341 111.834 1.76881 118.755 1.35352V1.35449Z" fill="#F3D038" stroke="black" stroke-width="1.76427"/>
<path d="M189.664 201.513C193.749 200.888 197.655 200.616 201.381 200.7H201.387C204.211 200.784 206.896 201.184 209.44 201.904H209.441C212.001 202.586 214.262 203.636 216.211 205.062L216.583 205.33C218.421 206.69 219.876 208.399 220.942 210.45H220.941C222.095 212.627 222.611 215.153 222.525 217.995C222.479 219.935 221.89 221.829 220.796 223.669L220.797 223.67C219.758 225.445 218.42 227.062 216.79 228.52L216.789 228.521C215.21 229.929 213.461 231.144 211.546 232.165L211.54 232.168C210.211 232.863 208.892 233.392 207.585 233.751C207.933 234.022 208.316 234.27 208.739 234.492C209.743 234.953 210.808 235.32 211.933 235.593C213.11 235.828 214.286 235.947 215.46 235.947C216.629 235.947 217.661 235.83 218.562 235.607C219.137 235.443 219.568 235.321 219.855 235.239C220.03 235.189 220.208 235.149 220.381 235.131C220.51 235.118 220.676 235.115 220.854 235.152C221.099 235.183 221.366 235.298 221.561 235.557C221.756 235.818 221.783 236.105 221.783 236.272V237.076C221.783 239.148 221.742 241.079 221.659 242.868L221.658 242.867C221.617 244.598 221.556 246.473 221.474 248.49L221.457 248.889L221.146 249.14C219.073 250.817 216.783 251.682 214.3 251.685L214.301 251.686C211.928 251.73 209.589 251.201 207.292 250.118V250.117C205.06 249.085 202.985 247.672 201.068 245.883L201.061 245.876C200.033 244.896 199.125 243.878 198.334 242.825C198.342 243.151 198.348 243.482 198.348 243.816V246.016C198.388 246.693 198.427 247.289 198.467 247.807C198.548 248.374 198.602 248.686 198.63 248.796C198.712 249.123 198.625 249.45 198.421 249.692C198.254 249.889 198.048 249.986 197.921 250.035C197.661 250.134 197.344 250.177 197.04 250.199C196.344 250.286 195.288 250.304 193.914 250.263V250.262C192.553 250.262 191.11 250.243 189.588 250.202H189.587L185.257 250.078C183.898 250.036 182.919 250.016 182.315 250.016H181.635C181.392 250.016 181.141 249.933 180.938 249.748C180.752 249.58 180.664 249.379 180.62 249.233C180.538 248.959 180.548 248.663 180.571 248.428L180.573 248.415C180.736 246.99 180.879 245.355 181.002 243.51L181.003 243.501V243.493C181.167 241.605 181.311 239.634 181.435 237.58C181.558 235.519 181.682 233.437 181.806 231.335C181.929 229.237 182.032 227.222 182.114 225.289C182.197 223.356 182.258 221.588 182.299 219.986C182.328 218.84 182.343 217.834 182.352 216.965C182.248 216.986 182.14 217.007 182.027 217.032C181.7 217.114 181.372 217.196 181.045 217.278L180.993 217.291L180.94 217.297C180.751 217.321 180.542 217.337 180.347 217.315C180.249 217.304 180.112 217.279 179.968 217.213C179.848 217.159 179.692 217.06 179.568 216.889C179.566 216.886 179.564 216.883 179.562 216.88C179.547 216.86 179.533 216.838 179.52 216.815C179.437 216.686 179.381 216.552 179.346 216.456C179.297 216.324 179.251 216.169 179.206 216C179.116 215.662 179.018 215.216 178.913 214.672L178.91 214.656L178.908 214.639C178.744 213.57 178.558 212.397 178.353 211.122L178.35 211.107L178.349 211.093C178.183 209.81 178.037 208.587 177.913 207.426C177.789 206.27 177.708 205.536 177.668 205.215L177.578 204.503L178.258 204.271C181.815 203.057 185.617 202.139 189.662 201.513H189.664ZM202.032 216.07C201.091 215.705 199.867 215.571 198.324 215.722C198.299 216.688 198.285 217.653 198.285 218.619L198.312 219.554C198.327 220.149 198.336 220.744 198.342 221.339C198.428 221.328 198.515 221.315 198.604 221.304C198.928 221.225 199.254 221.164 199.58 221.121C199.887 221.043 200.071 220.993 200.154 220.965L200.192 220.953L200.232 220.943C202.116 220.502 203.159 219.902 203.627 219.288L203.631 219.284C204.195 218.553 204.219 218.033 204.02 217.588C203.783 217.063 203.203 216.523 202.032 216.07Z" fill="#F3D038" stroke="black" stroke-width="1.76427"/>
<path d="M127.467 193.195C128.041 193.367 128.821 193.647 129.797 194.026C130.848 194.359 132.003 194.771 133.26 195.262C134.524 195.702 135.84 196.196 137.209 196.743C138.633 197.236 139.952 197.731 141.165 198.227L142.938 198.927C143.487 199.147 143.997 199.354 144.465 199.547H144.464C145.439 199.926 146.156 200.19 146.625 200.346L147.484 200.634L147.175 201.485C146.52 203.286 145.864 205.142 145.209 207.053C144.612 208.9 144.042 210.774 143.499 212.676C143.015 214.559 142.612 216.47 142.289 218.408L142.288 218.412C141.968 220.279 141.809 222.146 141.809 224.011C141.809 225.656 141.94 227.301 142.205 228.947C142.522 230.58 142.963 231.912 143.514 232.963C144.052 233.99 144.637 234.483 145.21 234.663C145.65 234.786 146.385 234.63 147.528 233.487C148.981 232.034 150.093 230.379 150.869 228.516C151.664 226.608 152.248 224.591 152.62 222.463L152.622 222.455L152.624 222.446C153.054 220.244 153.322 218.014 153.43 215.758C153.539 213.457 153.648 211.239 153.758 209.103L153.804 208.207L154.7 208.268C155.872 208.349 157.169 208.4 158.593 208.421L160.059 208.43C162.074 208.376 163.953 208.322 165.696 208.267L165.701 208.266C167.781 208.212 169.834 208.157 171.859 208.102L172.765 208.078V208.984C172.765 212.77 172.682 216.61 172.518 220.504L172.519 220.505C172.41 224.362 172.464 228.193 172.681 231.995L172.795 233.415C173.091 236.72 173.593 240.005 174.302 243.269L174.469 243.95C175.278 247.118 176.519 250.21 178.193 253.224L178.559 253.869L178.572 253.892L178.584 253.916C178.854 254.457 178.515 254.894 178.417 255.002C178.291 255.141 178.139 255.238 178.034 255.299C177.806 255.432 177.491 255.568 177.126 255.709L177.089 255.722C176.42 255.945 175.534 256.222 174.436 256.552L174.416 256.557L174.396 256.562C173.3 256.836 172.068 257.136 170.7 257.465L170.701 257.466C169.376 257.797 168.051 258.101 166.726 258.377L166.725 258.376C165.455 258.652 164.264 258.874 163.151 259.041C162.1 259.207 161.251 259.299 160.633 259.299H159.997L159.797 258.695C159.527 257.885 159.258 257.131 158.989 256.433L158.978 256.406L158.969 256.377C158.748 255.659 158.527 254.914 158.307 254.142L158.305 254.135L158.303 254.128C158.086 253.315 157.842 252.446 157.57 251.521L157.562 251.493L157.555 251.464C157.446 250.972 157.337 250.443 157.229 249.875C155.553 251.809 153.678 253.478 151.602 254.878C148.999 256.631 146.269 257.829 143.415 258.457C140.553 259.086 137.686 259.086 134.824 258.457L134.814 258.455L134.805 258.452C131.952 257.753 129.327 256.243 126.934 253.964L126.932 253.963C124.324 251.468 122.286 248.494 120.818 245.05L120.814 245.042L120.812 245.033C119.413 241.566 118.465 237.879 117.963 233.977C117.463 230.091 117.325 226.15 117.547 222.156V222.144C117.823 218.106 118.377 214.256 119.209 210.595C120.039 206.942 121.066 203.636 122.293 200.681L122.296 200.674C123.577 197.666 124.989 195.25 126.548 193.461L126.922 193.031L127.467 193.195Z" fill="#F3D038" stroke="black" stroke-width="1.76427"/>
<path d="M90.8633 206.198C93.9027 206.02 96.9765 206.445 100.079 207.465L100.083 207.466C100.426 207.58 100.612 207.843 100.695 208.052C100.771 208.24 100.783 208.423 100.783 208.545C100.783 208.795 100.729 209.078 100.66 209.355L100.657 209.363L100.655 209.373C100.518 209.875 100.318 210.474 100.06 211.164C99.8419 211.859 99.5826 212.592 99.2832 213.363L98.9307 214.372C98.9272 214.382 98.9234 214.392 98.9199 214.402C101.059 215.212 103.141 216.28 105.166 217.603L105.608 217.887C107.79 219.331 109.527 221.141 110.807 223.315H110.806C112.06 225.423 112.892 227.689 113.297 230.108L113.376 230.56C113.75 232.821 113.791 235.103 113.498 237.401C113.188 239.839 112.567 242.21 111.637 244.513C110.706 246.818 109.484 248.927 107.975 250.838L107.976 250.839C106.505 252.755 104.787 254.406 102.824 255.789L102.821 255.792C100.879 257.147 98.7327 258.072 96.3896 258.569C92.8428 259.367 89.3109 259.458 85.8008 258.836L85.7988 258.835C82.3411 258.214 79.1628 256.993 76.2725 255.17L76.2676 255.167C73.413 253.338 71.0278 250.974 69.1152 248.083C67.1833 245.163 66.024 241.804 65.624 238.027V238.026C65.2714 234.676 65.4249 231.448 66.0898 228.345L66.0928 228.333C66.7984 225.246 67.9029 222.393 69.4092 219.779L69.4141 219.77C70.9596 217.164 72.8177 214.864 74.9873 212.871L74.9941 212.865C77.2127 210.869 79.6584 209.311 82.3301 208.197C85.0419 207.042 87.8877 206.376 90.8623 206.198H90.8633ZM89.6426 225.496C88.8886 225.616 88.1424 225.95 87.3936 226.524L87.3896 226.526C86.2577 227.385 85.3309 228.504 84.6133 229.899L84.6084 229.908C83.8948 231.256 83.4766 232.726 83.3564 234.328C83.2409 235.869 83.5659 237.198 84.3086 238.352C85.1301 239.603 86.0971 240.441 87.1982 240.921L87.6465 241.094C88.6852 241.46 89.6862 241.568 90.6602 241.439C91.7739 241.25 92.8053 240.767 93.7617 239.964L93.7676 239.958L93.7744 239.953C94.7256 239.185 95.4076 238.11 95.7959 236.673C96.014 235.832 95.9831 235.12 95.7559 234.503C95.5066 233.826 95.0935 233.21 94.498 232.651L94.4883 232.642L94.4775 232.632C93.9034 232.058 93.2049 231.55 92.373 231.114C91.5156 230.665 90.6395 230.298 89.7451 230.014V230.012C89.5576 229.957 89.3786 229.858 89.2334 229.701C89.0719 229.527 88.9901 229.329 88.9482 229.162C88.8714 228.855 88.9005 228.529 88.9492 228.256L89.0996 227.438C89.1551 227.161 89.216 226.879 89.2822 226.592L89.2891 226.561L89.2988 226.53C89.4123 226.161 89.5269 225.816 89.6426 225.496Z" fill="#F3D038" stroke="black" stroke-width="1.76427"/>
<path d="M58.7393 186.906C60.4019 191.672 61.5914 196.685 62.3105 201.94C63.0293 207.192 63.2788 212.473 63.0576 217.78C62.8363 223.091 62.1162 228.293 60.8984 233.386C59.6795 238.483 57.9613 243.28 55.7412 247.776L55.7393 247.78C54.3226 250.613 52.3973 253.158 49.9736 255.414C47.6139 257.661 44.948 259.57 41.9775 261.139C39.0163 262.704 35.8617 263.903 32.5166 264.741L32.5176 264.742C29.2187 265.637 25.8891 266.113 22.5303 266.169L22.5293 266.168C19.1768 266.278 15.9299 265.972 12.791 265.243V265.242C9.6353 264.564 6.75088 263.406 4.14453 261.762L3.64355 261.447L3.74609 260.865C4.34981 257.407 5.00822 253.949 5.72168 250.492V250.489C6.43724 247.076 7.26349 243.691 8.19922 240.334L8.51953 239.184L9.52441 239.828C12.1467 241.506 15.0297 242.528 18.1836 242.896H18.1826C21.3557 243.212 24.3848 242.946 27.2773 242.104L27.2822 242.103C30.236 241.259 32.8646 239.918 35.1768 238.081C36.6493 236.876 37.847 235.503 38.7773 233.96C36.9735 235 35.0935 235.842 33.1357 236.482C30.2155 237.437 27.2878 237.973 24.3555 238.086H24.3389C21.4595 238.142 18.6604 237.775 15.9453 236.983L15.9375 236.981L15.9297 236.978C13.2074 236.128 10.7841 234.875 8.66895 233.218L8.66309 233.214L8.65723 233.209C6.5339 231.487 4.79108 229.34 3.42578 226.78L3.42188 226.773L3.41895 226.766C2.17632 224.335 1.45176 221.547 1.22656 218.418L1.18848 217.787C0.966089 213.284 1.27165 208.807 2.10547 204.36C2.93562 199.878 4.12585 195.559 5.67676 191.405L5.94238 190.694L6.68457 190.85C9.80584 191.507 12.9002 192.164 15.9668 192.821H15.9658C19.1094 193.483 22.2524 194.282 25.3945 195.219L26.2305 195.469L25.9912 196.307C25.4542 198.187 25.0234 200.15 24.7002 202.197V202.201C24.3788 204.183 24.2188 206.106 24.2188 207.971C24.2188 209.836 24.3788 211.525 24.6924 213.043C25.0555 214.538 25.5596 215.698 26.1787 216.559C26.7537 217.307 27.4858 217.759 28.4092 217.939C29.2759 218.056 30.4579 217.776 32.0156 216.893C33.8427 215.825 35.2269 214.387 36.1865 212.569L36.1914 212.56L36.1963 212.553C37.2339 210.685 37.883 208.66 38.1436 206.471L38.1455 206.463L38.1465 206.454C38.4614 204.197 38.4098 201.853 37.9863 199.419L37.9854 199.41L37.9834 199.4C37.6105 196.95 36.973 194.668 36.0732 192.551L35.6748 191.615L36.6582 191.353C40.1657 190.422 43.6464 189.545 47.0996 188.722L48.4199 188.396C51.5033 187.645 54.6081 186.957 57.7334 186.332L58.4863 186.181L58.7393 186.906Z" fill="#F3D038" stroke="black" stroke-width="1.76427"/>
<path d="M652.092 173.088L653.284 173.108L653.29 173.109C658.08 173.252 662.63 173.93 666.935 175.149C671.263 176.303 675.071 178.076 678.345 180.477H678.344C681.7 182.815 684.33 185.813 686.228 189.461H686.227C688.144 193.077 689.012 197.29 688.867 202.068C688.792 205.271 687.821 208.412 685.993 211.485C684.25 214.463 682.003 217.18 679.258 219.636L679.257 219.637C676.592 222.014 673.64 224.065 670.404 225.791L670.398 225.794C667.76 227.173 665.157 228.159 662.591 228.747C663.449 229.57 664.457 230.285 665.621 230.892C667.392 231.707 669.267 232.355 671.248 232.833C673.3 233.242 675.351 233.445 677.399 233.445C679.457 233.445 681.286 233.24 682.896 232.838C683.872 232.559 684.606 232.349 685.097 232.209C685.374 232.13 685.64 232.073 685.886 232.048C686.084 232.028 686.316 232.025 686.547 232.079C686.828 232.112 687.126 232.242 687.341 232.528C687.559 232.819 687.597 233.149 687.597 233.375V234.751C687.597 238.283 687.525 241.572 687.384 244.616L687.385 244.617C687.314 247.587 687.208 250.803 687.066 254.265L687.051 254.664L686.74 254.915C683.287 257.707 679.501 259.129 675.403 259.133L675.404 259.134C671.449 259.207 667.542 258.326 663.691 256.511V256.512C659.93 254.776 656.43 252.392 653.191 249.369L653.185 249.362C650.895 247.176 648.956 244.888 647.371 242.497V242.548C647.442 243.761 647.478 245.009 647.478 246.29V250.078C647.547 251.252 647.616 252.287 647.685 253.185C647.825 254.165 647.924 254.741 647.98 254.968C648.069 255.324 647.977 255.678 647.752 255.943C647.565 256.164 647.325 256.282 647.15 256.349C646.796 256.485 646.329 256.553 645.821 256.59C644.688 256.736 642.921 256.767 640.562 256.698V256.699C638.224 256.699 635.746 256.664 633.128 256.593H633.127C630.586 256.522 628.116 256.452 625.716 256.381H625.715C623.387 256.31 621.704 256.276 620.66 256.276H619.496C619.224 256.276 618.948 256.183 618.724 255.98C618.518 255.793 618.415 255.564 618.36 255.382C618.256 255.035 618.263 254.628 618.301 254.247L618.302 254.235C618.582 251.782 618.828 248.973 619.039 245.808L619.041 245.79C619.323 242.552 619.569 239.173 619.78 235.652C619.992 232.123 620.203 228.56 620.415 224.961C620.626 221.366 620.802 217.913 620.943 214.602C621.084 211.289 621.19 208.259 621.261 205.513C621.32 203.206 621.352 201.225 621.361 199.569C620.964 199.633 620.518 199.719 620.021 199.829C619.459 199.97 618.896 200.11 618.334 200.251L618.282 200.264L618.229 200.271C617.923 200.309 617.621 200.328 617.36 200.299C617.23 200.284 617.065 200.253 616.901 200.179C616.748 200.109 616.554 199.98 616.418 199.753C616.308 199.588 616.227 199.399 616.167 199.237C616.092 199.035 616.019 198.79 615.944 198.511C615.795 197.952 615.632 197.206 615.454 196.28L615.451 196.264L615.448 196.248C615.166 194.416 614.85 192.407 614.497 190.221L614.494 190.207L614.492 190.193C614.209 187.999 613.961 185.912 613.749 183.929C613.537 181.951 613.398 180.688 613.328 180.133L613.238 179.421L613.918 179.189C619.97 177.124 626.442 175.56 633.334 174.494H633.336C639.862 173.495 646.114 173.025 652.092 173.088ZM654.64 198.207C652.794 197.493 650.414 197.278 647.454 197.631C647.4 199.48 647.371 201.328 647.371 203.177L647.418 204.772C647.449 206.024 647.466 207.276 647.473 208.528C647.85 208.476 648.246 208.422 648.66 208.37C649.218 208.233 649.778 208.128 650.338 208.056C650.881 207.92 651.226 207.825 651.397 207.768L651.436 207.755L651.476 207.746C654.739 206.982 656.706 205.913 657.644 204.683L657.647 204.678C658.71 203.302 658.852 202.165 658.388 201.134C657.887 200.021 656.72 199.013 654.64 198.207Z" fill="#F3D038" stroke="black" stroke-width="1.76427"/>
<path d="M609.766 200.474C610.413 200.421 610.978 200.409 611.392 200.478C611.622 200.491 611.883 200.546 612.123 200.707C612.371 200.872 612.529 201.101 612.617 201.344C612.73 201.564 612.775 201.793 612.793 201.987C612.813 202.209 612.803 202.448 612.775 202.691V204.292C612.775 207.177 612.746 210.263 612.688 213.55V223.036C612.688 223.226 612.671 223.447 612.601 223.66C612.536 223.853 612.399 224.111 612.126 224.285C612.112 224.294 612.098 224.302 612.085 224.31C612.066 224.321 612.048 224.334 612.028 224.343L612.027 224.342C611.921 224.397 611.833 224.421 611.799 224.429C611.71 224.451 611.628 224.458 611.572 224.462C611.457 224.468 611.329 224.464 611.208 224.456C610.959 224.439 610.625 224.399 610.217 224.341V224.342C608.155 224.055 606.006 223.797 603.77 223.568L603.757 223.566L603.744 223.565C601.564 223.278 599.356 223.02 597.118 222.791C594.872 222.56 592.654 222.33 590.465 222.099C588.596 221.903 586.811 221.703 585.109 221.507C585.071 221.987 585.047 222.581 585.047 223.295V225.091H605.493L605.431 226.031C605.373 226.889 605.316 227.891 605.259 229.04C605.201 230.191 605.143 231.371 605.086 232.58C605.029 233.783 604.97 234.987 604.913 236.19C604.913 237.346 604.885 238.393 604.826 239.33L604.78 240.065L604.049 240.151C603.046 240.269 601.616 240.385 599.769 240.501L599.741 240.503C597.907 240.56 595.985 240.646 593.977 240.76C591.962 240.876 590.034 240.99 588.193 241.105L588.166 241.107C586.76 241.151 585.609 241.194 584.714 241.238C584.601 242.523 584.569 243.515 584.613 244.23C584.625 244.422 584.646 244.568 584.671 244.675C588.392 244.277 592.528 243.741 597.079 243.067C601.733 242.378 606.214 241.631 610.521 240.827L611.481 240.647L611.562 241.621C611.619 242.297 611.76 243.688 611.989 245.805L612.422 249.03C612.565 250.135 612.708 251.275 612.852 252.45H612.853C613.199 254.82 613.488 257.076 613.72 259.217C613.95 261.289 614.096 262.683 614.154 263.388L614.226 264.244L613.371 264.339C606.039 265.147 598.707 265.694 591.375 265.983L591.376 265.984C584.109 266.33 576.784 266.532 569.401 266.59H569.395C568.167 266.59 567.089 266.379 566.297 265.825C565.387 265.188 565.034 264.065 564.972 262.814L564.971 262.793V262.77C564.971 255.507 565.057 248.273 565.229 241.068C565.396 234.144 565.534 227.167 565.646 220.136C565.04 220.083 564.483 220.016 563.979 219.932L563.967 219.93C563.344 219.817 562.814 219.733 562.374 219.678C562.124 219.647 561.869 219.601 561.655 219.521C561.551 219.482 561.397 219.413 561.255 219.289C561.101 219.154 560.91 218.904 560.91 218.544C560.91 217.771 560.855 216.616 560.74 215.067L560.739 215.051L560.738 215.035C560.681 213.491 560.596 211.977 560.481 210.492L560.479 210.474V210.457C560.422 208.895 560.393 207.53 560.393 206.364C560.393 205.778 560.414 205.293 560.467 204.938C560.492 204.77 560.534 204.566 560.616 204.383C560.666 204.272 560.893 203.812 561.432 203.759C562.564 203.583 564.334 203.411 566.721 203.24C569.204 203.009 572.002 202.778 575.116 202.548H575.117C578.287 202.317 581.629 202.087 585.144 201.856H585.145C588.717 201.626 592.089 201.424 595.26 201.251C598.485 201.02 601.396 200.848 603.993 200.732C606.575 200.617 608.499 200.532 609.766 200.474Z" fill="#F3D038" stroke="black" stroke-width="1.76427"/>
<path d="M551.843 170.59C552.079 170.585 552.374 170.625 552.647 170.798C553.255 171.132 553.447 171.822 553.521 172.324L553.828 174.419C553.974 175.414 554.135 176.76 554.312 178.451C554.488 180.138 554.639 181.898 554.765 183.731L555.324 189.001C555.499 190.682 555.657 192.001 555.798 192.96C555.882 193.533 555.47 193.87 555.342 193.963C555.167 194.091 554.958 194.182 554.771 194.251C554.384 194.394 553.84 194.53 553.171 194.664L553.148 194.669L542.966 196.162C541.618 196.36 540.495 196.544 539.592 196.715C540.419 200.959 541.307 205.413 542.257 210.076L545.515 224.994L548.998 239.995L550.693 247.178L552.342 254.048L552.346 254.063L552.35 254.079C552.602 255.319 552.826 256.141 553.014 256.596L553.018 256.608L553.023 256.618C553.146 256.942 553.243 257.238 553.304 257.499C553.359 257.735 553.408 258.036 553.356 258.327C553.305 258.678 553.131 258.992 552.842 259.217C552.592 259.414 552.299 259.508 552.03 259.557C551.572 259.699 550.835 259.878 549.847 260.091C549.306 260.246 548.28 260.468 546.809 260.753C545.349 261.038 543.612 261.364 541.597 261.731C539.657 262.158 537.575 262.571 535.351 262.968L535.352 262.969C533.19 263.357 531.091 263.7 529.057 263.999C527.117 264.354 525.411 264.641 523.939 264.857C522.491 265.069 521.382 265.166 520.731 265.079L520.042 264.987L519.97 264.297C519.432 259.17 518.863 253.834 518.264 248.288C517.665 242.745 517.026 237.172 516.347 231.569L516.345 231.558C515.736 225.949 515.063 220.384 514.325 214.865C513.632 209.686 512.935 204.695 512.235 199.894C512.055 199.952 511.848 200.021 511.611 200.103L511.589 200.11L511.567 200.116C510.548 200.407 509.394 200.754 508.103 201.156L508.084 201.163L508.064 201.168C506.816 201.495 505.63 201.777 504.507 202.014C503.942 202.133 503.457 202.21 503.087 202.217C502.912 202.221 502.685 202.212 502.467 202.141C502.259 202.072 501.864 201.867 501.76 201.387C501.373 199.724 500.945 197.784 500.476 195.566L500.473 195.553L500.471 195.538C500.074 193.315 499.692 191.196 499.325 189.183L498.538 183.812C498.429 183.072 498.361 182.486 498.339 182.071C498.329 181.871 498.327 181.666 498.351 181.488C498.362 181.406 498.386 181.264 498.455 181.117C498.515 180.991 498.704 180.676 499.115 180.592L499.114 180.59C502.44 179.888 506.29 179.11 510.661 178.255L510.662 178.254C515.1 177.39 519.608 176.514 524.186 175.629L524.187 175.628C528.833 174.733 533.381 173.889 537.829 173.094C542.272 172.228 546.205 171.508 549.626 170.934L551.153 170.71C551.378 170.643 551.612 170.594 551.843 170.59Z" fill="#F3D038" stroke="black" stroke-width="1.76427"/>
<path d="M457.946 208.37C458.984 208.417 460.391 208.51 462.163 208.65L462.162 208.651C463.981 208.791 465.823 208.954 467.688 209.14C469.6 209.28 471.375 209.443 473.013 209.63C474.644 209.817 475.863 210.008 476.629 210.212L477.412 210.421L477.271 211.219C476.762 214.084 476.322 217.018 475.952 220.023C475.664 222.7 475.525 225.34 475.531 227.94C477.304 227.861 479.044 227.782 480.749 227.703C482.549 227.58 484.365 227.582 486.197 227.706C486.36 225.591 486.526 223.351 486.689 220.985C486.876 218.233 487.086 215.665 487.319 213.283L487.406 212.396L488.291 212.492C489.577 212.629 491.006 212.744 492.576 212.836H492.575C494.204 212.929 495.81 213.023 497.393 213.116H497.392C499.03 213.209 500.555 213.327 501.965 213.468C503.377 213.609 504.533 213.776 505.419 213.973L506.251 214.158L506.095 214.996C505.449 218.454 504.964 222.078 504.641 225.867C504.357 229.192 504.144 232.554 504.002 235.952L503.945 237.41C503.806 241.261 503.736 245.113 503.736 248.964V260.778L502.955 260.868C500.517 261.149 498.01 261.36 495.435 261.5C492.896 261.639 490.38 261.846 487.888 262.123C487.289 262.214 486.799 262.27 486.452 262.27C486.076 262.27 485.502 262.181 485.16 261.667L485.075 261.54L485.038 261.392C484.951 261.043 484.968 260.655 485.021 260.286C485.059 259.967 485.082 259.502 485.082 258.875V258.856L485.083 258.836C485.129 257.77 485.175 256.54 485.222 255.147L485.361 250.751V250.738L485.362 250.724C485.455 249.243 485.524 247.809 485.57 246.422L485.572 246.395C485.642 245.32 485.694 244.35 485.737 243.486C484.083 243.339 482.446 243.224 480.826 243.145C479.251 243.068 477.659 243.056 476.051 243.108C476.302 245.544 476.57 248.016 476.857 250.525L477 251.569C477.29 253.633 477.618 255.551 477.984 257.323L478.171 258.197L478.174 258.21L478.176 258.224C478.311 258.944 478.374 259.631 478.243 260.164C478.093 261.029 477.299 261.392 476.686 261.545L476.658 261.552L476.63 261.558C476.073 261.659 475.223 261.755 474.103 261.848L474.065 261.85C472.992 261.895 471.49 262.053 469.547 262.331C468.888 262.425 467.998 262.542 466.88 262.682L466.879 262.681C465.784 262.824 464.666 262.92 463.526 262.967L463.525 262.966C462.438 263.059 461.433 263.085 460.512 263.037H460.51C460.051 263.011 459.615 262.945 459.254 262.8C458.896 262.657 458.472 262.376 458.317 261.85C457.649 259.699 457.106 257.117 456.684 254.112C456.262 251.111 455.934 247.903 455.7 244.488L455.699 244.476C455.512 241.063 455.419 237.58 455.419 234.028C455.419 230.484 455.465 227.125 455.559 223.952V223.939C455.699 220.718 455.886 217.819 456.12 215.243L456.122 215.229C456.403 212.611 456.709 210.548 457.046 209.056L457.208 208.335L457.946 208.37Z" fill="#F3D038" stroke="black" stroke-width="1.76427"/>
<path d="M415.183 206.485C418.3 205.758 421.494 205.551 424.76 205.862L424.759 205.863C428.021 206.123 431.086 206.875 433.948 208.124H433.947C436.82 209.327 439.309 211.029 441.407 213.229L441.808 213.652C443.772 215.796 445.171 218.356 446.009 221.315L446.176 221.905L445.681 222.267C444.375 223.221 443.274 224.047 442.376 224.746L442.363 224.755L442.351 224.764C441.433 225.427 440.513 226.04 439.592 226.603L439.593 226.604C438.723 227.167 437.803 227.729 436.834 228.29C435.852 228.858 434.672 229.474 433.298 230.135L432.636 230.454L432.203 229.861C431.33 228.666 430.261 227.782 428.991 227.193C427.697 226.592 426.338 226.293 424.903 226.293C423.522 226.293 422.101 226.591 420.634 227.206C419.248 227.807 417.99 228.712 416.86 229.935L416.861 229.936C415.355 231.584 414.49 233.334 414.214 235.195L414.174 235.548C413.999 237.313 414.178 239.005 414.706 240.633C415.273 242.381 416.143 243.934 417.317 245.3C418.553 246.629 419.83 247.549 421.144 248.095C422.419 248.577 423.641 248.616 424.842 248.234C425.695 247.926 426.503 247.221 427.227 245.987C426.877 245.978 426.504 245.986 426.104 246.017L426.07 246.02H423.721L423.672 246.015C423.251 245.968 422.829 245.945 422.408 245.945H422.354L422.299 245.938C421.904 245.889 421.646 245.869 421.502 245.869H420.619V244.987C420.619 244.81 420.596 244.154 420.545 242.984L420.544 242.965V242.946C420.544 241.8 420.519 240.576 420.469 239.276L420.468 239.259V235.594L420.469 235.574C420.494 235.013 420.528 234.565 420.571 234.248C420.592 234.096 420.62 233.931 420.666 233.788C420.687 233.722 420.729 233.601 420.812 233.48C420.87 233.394 421.068 233.138 421.43 233.081C422.221 232.916 423.61 232.791 425.538 232.692C427.019 232.616 428.585 232.555 430.234 232.507L431.913 232.464C434.243 232.364 436.499 232.338 438.681 232.389H438.68C440.841 232.389 442.512 232.414 443.687 232.465H443.697L443.707 232.466C444.673 232.531 445.505 232.945 445.935 233.832L446.068 234.097C446.361 234.73 446.52 235.452 446.569 236.24C446.623 237.103 446.596 238.036 446.491 239.033L446.49 239.038C446.392 239.919 446.345 240.717 446.345 241.434V241.446C446.293 245.294 445.485 248.803 443.908 251.958C442.347 255.079 440.287 257.741 437.728 259.936L437.729 259.937C435.221 262.131 432.349 263.773 429.119 264.868L429.12 264.869C425.943 265.962 422.708 266.433 419.419 266.276C416.119 266.119 412.926 265.28 409.85 263.768L409.839 263.763C406.728 262.182 404.032 259.816 401.743 256.696V256.697C399.575 253.754 397.896 250.577 396.708 247.167C395.524 243.769 394.826 240.364 394.619 236.953V236.952C394.413 233.497 394.671 230.139 395.395 226.881L395.396 226.872C396.173 223.557 397.419 220.542 399.139 217.833C400.86 215.069 403.051 212.697 405.706 210.719C408.386 208.722 411.551 207.315 415.183 206.485Z" fill="#F3D038" stroke="black" stroke-width="1.76427"/>
<path d="M391.304 209.384C390.641 213.72 390.104 218.313 389.695 223.165C389.286 228.027 388.954 232.812 388.698 237.519C388.442 242.23 388.237 246.711 388.083 250.959V250.96C387.929 255.163 387.802 258.802 387.699 261.876L387.696 261.875C387.685 262.256 387.451 262.483 387.384 262.543C387.287 262.631 387.188 262.687 387.126 262.719C386.995 262.788 386.84 262.846 386.692 262.895C386.385 262.997 385.952 263.114 385.407 263.244L385.406 263.243C384.349 263.506 383.018 263.767 381.421 264.025L381.42 264.024C379.865 264.283 378.159 264.517 376.303 264.723L376.302 264.722C374.488 264.929 372.774 265.061 371.159 265.113H371.131C370.547 265.113 370.158 264.712 369.949 264.44C369.714 264.132 369.506 263.723 369.315 263.259L369.307 263.239L369.299 263.217C368.981 262.317 368.666 261.267 368.354 260.071L368.345 260.028C368.089 258.8 367.833 257.598 367.577 256.421L367.569 256.378C367.364 255.148 367.21 254.226 367.107 253.611V253.61C366.896 252.394 366.69 250.624 366.484 248.315V248.313C366.279 245.956 366.048 243.341 365.792 240.471L365.791 240.463V240.456C365.586 237.583 365.381 234.609 365.176 231.532V231.531C364.97 228.397 364.816 225.493 364.713 222.818C364.61 220.145 364.559 217.826 364.559 215.864C364.559 214.877 364.584 214.043 364.638 213.371C364.69 212.714 364.774 212.152 364.911 211.74L365.085 211.218L365.629 211.145C369.784 210.581 373.888 210.042 377.94 209.529H377.941C382.061 209.014 386.206 208.627 390.377 208.37L391.469 208.302L391.304 209.384Z" fill="#F3D038" stroke="black" stroke-width="1.76427"/>
<path d="M311.861 182.403C312.575 182.146 313.403 182.08 314.308 182.154L314.309 182.153C315.196 182.222 316.301 182.257 317.629 182.257C324.903 182.257 332.354 182.328 339.98 182.469L339.979 182.47C346.656 182.532 352.901 182.701 358.717 182.98L361.184 183.106L361.208 183.107L361.233 183.109C361.617 183.152 362.062 183.261 362.404 183.561C362.786 183.895 362.911 184.347 362.862 184.782C362.852 185.325 362.69 186.279 362.422 187.555L362.42 187.565C362.145 188.803 361.831 190.613 361.479 193.006C361.136 195.344 360.959 198.507 360.959 202.511C360.959 204.195 360.995 205.55 361.063 206.581H361.062C361.134 207.581 361.141 208.398 361.057 208.987C361.005 209.349 360.876 209.72 360.608 210.025C360.331 210.342 359.969 210.515 359.587 210.579C358.948 210.686 358.112 210.522 357.197 210.242L354.485 209.51C351.753 208.784 348.961 208.077 346.109 207.391C342.709 206.572 339.474 205.696 336.405 204.765C336.416 206.501 336.448 208.308 336.505 210.184L336.879 216.357C339.299 216.4 341.703 216.431 344.091 216.442L346.739 216.448C350.255 216.378 353.701 216.273 357.076 216.132L357.941 216.096L357.993 216.96C358.137 219.326 358.137 221.795 357.994 224.366C357.925 226.879 357.925 229.356 357.994 231.798C358.065 232.682 358.064 233.692 357.994 234.823C357.993 235.383 357.947 235.889 357.834 236.318C357.722 236.745 357.519 237.19 357.135 237.497L357.124 237.506L357.113 237.514C356.828 237.728 356.467 237.851 356.124 237.932C355.764 238.016 355.336 238.074 354.852 238.111C353.907 238.184 352.861 238.22 351.715 238.22H348.613L348.582 238.218C347.591 238.147 346.951 238.114 346.634 238.114H339.067C339.736 243.114 340.465 247.958 341.258 252.646C342.102 257.639 343.015 262.134 343.997 266.132L344.199 266.955L343.384 267.19C338.674 268.546 333.822 269.474 328.831 269.973C323.821 270.474 318.844 270.366 313.903 269.65L313.412 269.579L313.218 269.122C311.769 265.716 310.589 261.23 309.666 255.69C308.781 250.382 308.096 244.558 307.604 238.22H302.809C302.132 238.22 301.751 237.722 301.57 237.361C301.383 236.987 301.269 236.505 301.194 235.981L301.189 235.947L301.188 235.914C301.115 234.833 301.08 233.648 301.08 232.362C301.08 230.306 301.116 228.249 301.187 226.192C301.257 224.083 301.291 222.188 301.291 220.507V218.138L301.295 218.098C301.337 217.64 301.448 217.165 301.725 216.785C302.037 216.355 302.501 216.131 303.021 216.131H306.81C306.887 210.927 307.059 205.912 307.327 201.086V201.074C307.682 195.896 308.25 191.204 309.034 187C309.246 185.733 309.544 184.695 309.978 183.982H309.977C310.408 183.205 311.028 182.628 311.861 182.403Z" fill="#F3D038" stroke="black" stroke-width="1.76427"/>
</svg>
