<svg width="198" height="233" viewBox="0 0 198 233" fill="none" xmlns="http://www.w3.org/2000/svg">
<mask id="path-1-inside-1_375_533" fill="white">
<path d="M49.9903 205.528L49.8174 205.392L43.1467 169.675L6.87072 171.74L6.69776 171.605L60.3574 103.124L103.65 137.047L49.9903 205.528Z"/>
</mask>
<path d="M49.9903 205.528L49.8174 205.392L43.1467 169.675L6.87072 171.74L6.69776 171.605L60.3574 103.124L103.65 137.047L49.9903 205.528Z" fill="#0212EE"/>
<path d="M49.9903 205.528L49.3735 206.315L50.1607 206.931L50.7775 206.144L49.9903 205.528ZM49.8174 205.392L48.8344 205.576L48.9036 205.946L49.2006 206.179L49.8174 205.392ZM43.1467 169.675L44.1297 169.491L43.9682 168.626L43.0899 168.676L43.1467 169.675ZM6.87072 171.74L6.25394 172.527L6.5509 172.76L6.92756 172.739L6.87072 171.74ZM6.69776 171.605L5.91062 170.988L5.29385 171.775L6.08098 172.392L6.69776 171.605ZM60.3574 103.124L60.9742 102.337L60.1871 101.72L59.5703 102.507L60.3574 103.124ZM103.65 137.047L104.437 137.663L105.054 136.876L104.267 136.259L103.65 137.047ZM49.9903 205.528L50.6071 204.74L50.4341 204.605L49.8174 205.392L49.2006 206.179L49.3735 206.315L49.9903 205.528ZM49.8174 205.392L50.8004 205.208L44.1297 169.491L43.1467 169.675L42.1637 169.858L48.8344 205.576L49.8174 205.392ZM43.1467 169.675L43.0899 168.676L6.81387 170.742L6.87072 171.74L6.92756 172.739L43.2035 170.673L43.1467 169.675ZM6.87072 171.74L7.48749 170.953L7.31454 170.818L6.69776 171.605L6.08098 172.392L6.25394 172.527L6.87072 171.74ZM6.69776 171.605L7.4849 172.222L61.1446 103.741L60.3574 103.124L59.5703 102.507L5.91062 170.988L6.69776 171.605ZM60.3574 103.124L59.7406 103.911L103.033 137.834L103.65 137.047L104.267 136.259L60.9742 102.337L60.3574 103.124ZM103.65 137.047L102.863 136.43L49.2032 204.911L49.9903 205.528L50.7775 206.144L104.437 137.663L103.65 137.047Z" fill="black" mask="url(#path-1-inside-1_375_533)"/>
<mask id="path-3-inside-2_375_533" fill="white">
<path d="M92.4353 217.934L92.6541 217.913L117.511 191.411L146.964 212.689L147.183 212.668L138.852 126.067L84.1048 131.334L92.4353 217.934Z"/>
</mask>
<path d="M92.4353 217.934L92.6541 217.913L117.511 191.411L146.964 212.689L147.183 212.668L138.852 126.067L84.1048 131.334L92.4353 217.934Z" fill="#0212EE"/>
<path d="M92.4353 217.934L92.5311 218.929L91.5357 219.025L91.4399 218.03L92.4353 217.934ZM92.6541 217.913L93.3834 218.597L93.1254 218.872L92.7498 218.908L92.6541 217.913ZM117.511 191.411L116.782 190.727L117.383 190.085L118.096 190.601L117.511 191.411ZM146.964 212.689L147.06 213.684L146.684 213.72L146.378 213.499L146.964 212.689ZM147.183 212.668L148.178 212.572L148.274 213.567L147.278 213.663L147.183 212.668ZM138.852 126.067L138.756 125.072L139.752 124.976L139.847 125.972L138.852 126.067ZM84.1048 131.334L83.1094 131.43L83.0136 130.434L84.009 130.338L84.1048 131.334ZM92.4353 217.934L92.3396 216.939L92.5583 216.918L92.6541 217.913L92.7498 218.908L92.5311 218.929L92.4353 217.934ZM92.6541 217.913L91.9247 217.229L116.782 190.727L117.511 191.411L118.24 192.095L93.3834 218.597L92.6541 217.913ZM117.511 191.411L118.096 190.601L147.55 211.878L146.964 212.689L146.378 213.499L116.925 192.222L117.511 191.411ZM146.964 212.689L146.868 211.693L147.087 211.672L147.183 212.668L147.278 213.663L147.06 213.684L146.964 212.689ZM147.183 212.668L146.187 212.763L137.857 126.163L138.852 126.067L139.847 125.972L148.178 212.572L147.183 212.668ZM138.852 126.067L138.948 127.063L84.2005 132.329L84.1048 131.334L84.009 130.338L138.756 125.072L138.852 126.067ZM84.1048 131.334L85.1002 131.238L93.4307 217.838L92.4353 217.934L91.4399 218.03L83.1094 131.43L84.1048 131.334Z" fill="black" mask="url(#path-3-inside-2_375_533)"/>
<circle cx="109.25" cy="80.9504" r="62.5" transform="rotate(16.2933 109.25 80.9504)" fill="#F3D038" stroke="black"/>
<g filter="url(#filter0_i_375_533)">
<circle cx="108.91" cy="80.3302" r="39.5" transform="rotate(16.2933 108.91 80.3302)" fill="#F3D038"/>
</g>
<mask id="path-7-outside-3_375_533" maskUnits="userSpaceOnUse" x="84.6783" y="50.9445" width="40.5044" height="57.4865" fill="black">
<rect fill="white" x="84.6783" y="50.9445" width="40.5044" height="57.4865"/>
<path d="M93.4174 102.369C92.98 102.241 92.6416 102.006 92.4022 101.665C92.2435 101.279 92.2282 100.868 92.356 100.431L102 67.4361C102.11 67.0612 102.054 66.6718 101.833 66.268C101.612 65.8643 101.314 65.6076 100.939 65.498L97.9392 64.6213C97.5017 64.4934 97.1633 64.2588 96.9239 63.9176C96.7653 63.5321 96.7499 63.1206 96.8778 62.6832L99.508 53.6847C99.6176 53.3097 99.843 53.0026 100.184 52.7632C100.588 52.5421 101.009 52.4954 101.446 52.6233L122.443 58.7604C122.817 58.87 123.116 59.1267 123.337 59.5305C123.558 59.9342 123.614 60.3236 123.504 60.6985L110.353 105.691C110.225 106.128 109.959 106.458 109.556 106.679C109.17 106.837 108.79 106.862 108.415 106.752L93.4174 102.369Z"/>
</mask>
<path d="M93.4174 102.369C92.98 102.241 92.6416 102.006 92.4022 101.665C92.2435 101.279 92.2282 100.868 92.356 100.431L102 67.4361C102.11 67.0612 102.054 66.6718 101.833 66.268C101.612 65.8643 101.314 65.6076 100.939 65.498L97.9392 64.6213C97.5017 64.4934 97.1633 64.2588 96.9239 63.9176C96.7653 63.5321 96.7499 63.1206 96.8778 62.6832L99.508 53.6847C99.6176 53.3097 99.843 53.0026 100.184 52.7632C100.588 52.5421 101.009 52.4954 101.446 52.6233L122.443 58.7604C122.817 58.87 123.116 59.1267 123.337 59.5305C123.558 59.9342 123.614 60.3236 123.504 60.6985L110.353 105.691C110.225 106.128 109.959 106.458 109.556 106.679C109.17 106.837 108.79 106.862 108.415 106.752L93.4174 102.369Z" fill="#D20001"/>
<path d="M92.4022 101.665L91.4774 102.045L91.5197 102.148L91.5835 102.239L92.4022 101.665ZM96.9239 63.9176L95.9992 64.2981L96.0415 64.4008L96.1053 64.4918L96.9239 63.9176ZM100.184 52.7632L99.704 51.8861L99.6554 51.9127L99.61 51.9445L100.184 52.7632ZM109.556 106.679L109.936 107.604L109.987 107.582L110.036 107.556L109.556 106.679ZM93.4174 102.369L93.6979 101.409C93.4568 101.338 93.3175 101.228 93.2209 101.091L92.4022 101.665L91.5835 102.239C91.9657 102.784 92.5031 103.143 93.1368 103.329L93.4174 102.369ZM92.4022 101.665L93.3269 101.284C93.2629 101.129 93.2454 100.952 93.3158 100.711L92.356 100.431L91.3962 100.15C91.2109 100.784 91.2242 101.43 91.4774 102.045L92.4022 101.665ZM92.356 100.431L93.3158 100.711L102.96 67.7167L102 67.4361L101.04 67.1556L91.3962 100.15L92.356 100.431ZM102 67.4361L102.96 67.7167C103.157 67.0421 103.034 66.3794 102.71 65.7877L101.833 66.268L100.956 66.7484C101.074 66.9642 101.062 67.0803 101.04 67.1556L102 67.4361ZM101.833 66.268L102.71 65.7877C102.386 65.196 101.894 64.7353 101.219 64.5382L100.939 65.498L100.658 66.4578C100.733 66.4799 100.837 66.5325 100.956 66.7484L101.833 66.268ZM100.939 65.498L101.219 64.5382L98.2197 63.6614L97.9392 64.6213L97.6586 65.5811L100.658 66.4578L100.939 65.498ZM97.9392 64.6213L98.2197 63.6614C97.9786 63.591 97.8392 63.481 97.7426 63.3433L96.9239 63.9176L96.1053 64.4918C96.4874 65.0367 97.0249 65.3959 97.6586 65.5811L97.9392 64.6213ZM96.9239 63.9176L97.8487 63.537C97.7847 63.3815 97.7671 63.2048 97.8376 62.9637L96.8778 62.6832L95.9179 62.4026C95.7327 63.0363 95.7459 63.6826 95.9992 64.2981L96.9239 63.9176ZM96.8778 62.6832L97.8376 62.9637L100.468 53.9652L99.508 53.6847L98.5481 53.4041L95.9179 62.4026L96.8778 62.6832ZM99.508 53.6847L100.468 53.9652C100.509 53.8235 100.59 53.7003 100.759 53.5819L100.184 52.7632L99.61 51.9445C99.0963 52.3049 98.7259 52.796 98.5481 53.4041L99.508 53.6847ZM100.184 52.7632L100.665 53.6403C100.838 53.5451 100.986 53.5305 101.166 53.5831L101.446 52.6233L101.727 51.6635C101.032 51.4603 100.338 51.539 99.704 51.8861L100.184 52.7632ZM101.446 52.6233L101.166 53.5831L122.162 59.7202L122.443 58.7604L122.723 57.8006L101.727 51.6635L101.446 52.6233ZM122.443 58.7604L122.162 59.7202C122.237 59.7423 122.341 59.7949 122.46 60.0108L123.337 59.5305L124.214 59.0501C123.89 58.4584 123.398 57.9977 122.723 57.8006L122.443 58.7604ZM123.337 59.5305L122.46 60.0108C122.578 60.2266 122.566 60.3427 122.544 60.418L123.504 60.6985L124.464 60.9791C124.661 60.3045 124.538 59.6418 124.214 59.0501L123.337 59.5305ZM123.504 60.6985L122.544 60.418L109.393 105.41L110.353 105.691L111.313 105.971L124.464 60.9791L123.504 60.6985ZM110.353 105.691L109.393 105.41C109.341 105.59 109.249 105.706 109.075 105.802L109.556 106.679L110.036 107.556C110.67 107.209 111.11 106.666 111.313 105.971L110.353 105.691ZM109.556 106.679L109.175 105.754C108.984 105.832 108.837 105.834 108.695 105.792L108.415 106.752L108.134 107.712C108.742 107.89 109.356 107.842 109.936 107.604L109.556 106.679ZM108.415 106.752L108.695 105.792L93.6979 101.409L93.4174 102.369L93.1368 103.329L108.134 107.712L108.415 106.752Z" fill="black" mask="url(#path-7-outside-3_375_533)"/>
<defs>
<filter id="filter0_i_375_533" x="69.3999" y="40.8198" width="79.0205" height="79.0208" filterUnits="userSpaceOnUse" color-interpolation-filters="sRGB">
<feFlood flood-opacity="0" result="BackgroundImageFix"/>
<feBlend mode="normal" in="SourceGraphic" in2="BackgroundImageFix" result="shape"/>
<feColorMatrix in="SourceAlpha" type="matrix" values="0 0 0 0 0 0 0 0 0 0 0 0 0 0 0 0 0 0 127 0" result="hardAlpha"/>
<feOffset/>
<feGaussianBlur stdDeviation="2"/>
<feComposite in2="hardAlpha" operator="arithmetic" k2="-1" k3="1"/>
<feColorMatrix type="matrix" values="0 0 0 0 0 0 0 0 0 0 0 0 0 0 0 0 0 0 0.25 0"/>
<feBlend mode="normal" in2="shape" result="effect1_innerShadow_375_533"/>
</filter>
</defs>
</svg>
