<svg width="198" height="233" viewBox="0 0 198 233" fill="none" xmlns="http://www.w3.org/2000/svg">
<mask id="path-1-inside-1_375_543" fill="white">
<path d="M49.9981 205.528L49.8252 205.392L43.1545 169.675L6.87853 171.74L6.70557 171.605L60.3652 103.124L103.658 137.047L49.9981 205.528Z"/>
</mask>
<path d="M49.9981 205.528L49.8252 205.392L43.1545 169.675L6.87853 171.74L6.70557 171.605L60.3652 103.124L103.658 137.047L49.9981 205.528Z" fill="#0212EE"/>
<path d="M49.9981 205.528L49.3814 206.315L50.1685 206.931L50.7853 206.144L49.9981 205.528ZM49.8252 205.392L48.8422 205.576L48.9114 205.946L49.2084 206.179L49.8252 205.392ZM43.1545 169.675L44.1375 169.491L43.976 168.626L43.0977 168.676L43.1545 169.675ZM6.87853 171.74L6.26175 172.527L6.55871 172.76L6.93537 172.739L6.87853 171.74ZM6.70557 171.605L5.91844 170.988L5.30166 171.775L6.0888 172.392L6.70557 171.605ZM60.3652 103.124L60.982 102.337L60.1949 101.72L59.5781 102.507L60.3652 103.124ZM103.658 137.047L104.445 137.663L105.062 136.876L104.275 136.259L103.658 137.047ZM49.9981 205.528L50.6149 204.74L50.442 204.605L49.8252 205.392L49.2084 206.179L49.3814 206.315L49.9981 205.528ZM49.8252 205.392L50.8082 205.208L44.1375 169.491L43.1545 169.675L42.1715 169.858L48.8422 205.576L49.8252 205.392ZM43.1545 169.675L43.0977 168.676L6.82168 170.742L6.87853 171.74L6.93537 172.739L43.2114 170.673L43.1545 169.675ZM6.87853 171.74L7.49531 170.953L7.32235 170.818L6.70557 171.605L6.0888 172.392L6.26175 172.527L6.87853 171.74ZM6.70557 171.605L7.49271 172.222L61.1524 103.741L60.3652 103.124L59.5781 102.507L5.91844 170.988L6.70557 171.605ZM60.3652 103.124L59.7485 103.911L103.041 137.834L103.658 137.047L104.275 136.259L60.982 102.337L60.3652 103.124ZM103.658 137.047L102.871 136.43L49.211 204.911L49.9981 205.528L50.7853 206.144L104.445 137.663L103.658 137.047Z" fill="black" mask="url(#path-1-inside-1_375_543)"/>
<mask id="path-3-inside-2_375_543" fill="white">
<path d="M92.4432 217.934L92.6619 217.913L117.519 191.411L146.972 212.689L147.19 212.668L138.86 126.067L84.1126 131.334L92.4432 217.934Z"/>
</mask>
<path d="M92.4432 217.934L92.6619 217.913L117.519 191.411L146.972 212.689L147.19 212.668L138.86 126.067L84.1126 131.334L92.4432 217.934Z" fill="#0212EE"/>
<path d="M92.4432 217.934L92.5389 218.929L91.5435 219.025L91.4478 218.03L92.4432 217.934ZM92.6619 217.913L93.3913 218.597L93.1332 218.872L92.7576 218.908L92.6619 217.913ZM117.519 191.411L116.789 190.727L117.391 190.085L118.104 190.601L117.519 191.411ZM146.972 212.689L147.067 213.684L146.692 213.72L146.386 213.499L146.972 212.689ZM147.19 212.668L148.186 212.572L148.282 213.567L147.286 213.663L147.19 212.668ZM138.86 126.067L138.764 125.072L139.76 124.976L139.855 125.972L138.86 126.067ZM84.1126 131.334L83.1172 131.43L83.0214 130.434L84.0168 130.338L84.1126 131.334ZM92.4432 217.934L92.3474 216.939L92.5661 216.918L92.6619 217.913L92.7576 218.908L92.5389 218.929L92.4432 217.934ZM92.6619 217.913L91.9325 217.229L116.789 190.727L117.519 191.411L118.248 192.095L93.3913 218.597L92.6619 217.913ZM117.519 191.411L118.104 190.601L147.557 211.878L146.972 212.689L146.386 213.499L116.933 192.222L117.519 191.411ZM146.972 212.689L146.876 211.693L147.095 211.672L147.19 212.668L147.286 213.663L147.067 213.684L146.972 212.689ZM147.19 212.668L146.195 212.763L137.864 126.163L138.86 126.067L139.855 125.972L148.186 212.572L147.19 212.668ZM138.86 126.067L138.956 127.063L84.2083 132.329L84.1126 131.334L84.0168 130.338L138.764 125.072L138.86 126.067ZM84.1126 131.334L85.108 131.238L93.4386 217.838L92.4432 217.934L91.4478 218.03L83.1172 131.43L84.1126 131.334Z" fill="black" mask="url(#path-3-inside-2_375_543)"/>
<circle cx="109.257" cy="80.9504" r="62.5" transform="rotate(16.2933 109.257 80.9504)" fill="#F3D038" stroke="black"/>
<g filter="url(#filter0_i_375_543)">
<circle cx="108.918" cy="80.3302" r="39.5" transform="rotate(16.2933 108.918 80.3302)" fill="#F3D038"/>
</g>
<mask id="path-7-outside-3_375_543" maskUnits="userSpaceOnUse" x="84.6861" y="50.9445" width="47.2233" height="59.4504" fill="black">
<rect fill="white" x="84.6861" y="50.9445" width="47.2233" height="59.4504"/>
<path d="M85.9265 100.177L88.995 89.6786C89.1046 89.3037 89.33 88.9965 89.6713 88.7571C90.0751 88.536 90.4957 88.4894 90.9331 88.6172L99.9316 91.2474C100.307 91.357 100.687 91.3325 101.072 91.1739C101.476 90.9527 101.742 90.6235 101.87 90.186L103.623 84.187C103.733 83.8121 103.677 83.4228 103.456 83.019C103.235 82.6152 102.937 82.3585 102.562 82.2489L93.5633 79.6187C93.1259 79.4909 92.7875 79.2563 92.5481 78.915C92.3895 78.5295 92.3741 78.1181 92.5019 77.6806L93.3787 74.6811C93.4883 74.3062 93.7137 73.999 94.055 73.7597C94.4588 73.5385 94.8794 73.4919 95.3168 73.6198L104.315 76.2499C104.69 76.3595 105.07 76.335 105.456 76.1764C105.86 75.9553 106.126 75.626 106.253 75.1886L108.007 69.1896C108.116 68.8146 108.061 68.4253 107.84 68.0215C107.618 67.6177 107.32 67.3611 106.945 67.2515L97.947 64.6213C97.5095 64.4934 97.1711 64.2588 96.9318 63.9176C96.7731 63.5321 96.7577 63.1206 96.8856 62.6832L99.5158 53.6847C99.6254 53.3097 99.8508 53.0026 100.192 52.7632C100.596 52.5421 101.016 52.4954 101.454 52.6233L128.449 60.5139C128.824 60.6235 129.122 60.8801 129.343 61.2839C129.565 61.6877 129.62 62.077 129.511 62.452L116.36 107.444C116.232 107.882 115.966 108.211 115.562 108.432C115.177 108.591 114.797 108.615 114.422 108.506L85.9265 100.177Z"/>
</mask>
<path d="M85.9265 100.177L88.995 89.6786C89.1046 89.3037 89.33 88.9965 89.6713 88.7571C90.0751 88.536 90.4957 88.4894 90.9331 88.6172L99.9316 91.2474C100.307 91.357 100.687 91.3325 101.072 91.1739C101.476 90.9527 101.742 90.6235 101.87 90.186L103.623 84.187C103.733 83.8121 103.677 83.4228 103.456 83.019C103.235 82.6152 102.937 82.3585 102.562 82.2489L93.5633 79.6187C93.1259 79.4909 92.7875 79.2563 92.5481 78.915C92.3895 78.5295 92.3741 78.1181 92.5019 77.6806L93.3787 74.6811C93.4883 74.3062 93.7137 73.999 94.055 73.7597C94.4588 73.5385 94.8794 73.4919 95.3168 73.6198L104.315 76.2499C104.69 76.3595 105.07 76.335 105.456 76.1764C105.86 75.9553 106.126 75.626 106.253 75.1886L108.007 69.1896C108.116 68.8146 108.061 68.4253 107.84 68.0215C107.618 67.6177 107.32 67.3611 106.945 67.2515L97.947 64.6213C97.5095 64.4934 97.1711 64.2588 96.9318 63.9176C96.7731 63.5321 96.7577 63.1206 96.8856 62.6832L99.5158 53.6847C99.6254 53.3097 99.8508 53.0026 100.192 52.7632C100.596 52.5421 101.016 52.4954 101.454 52.6233L128.449 60.5139C128.824 60.6235 129.122 60.8801 129.343 61.2839C129.565 61.6877 129.62 62.077 129.511 62.452L116.36 107.444C116.232 107.882 115.966 108.211 115.562 108.432C115.177 108.591 114.797 108.615 114.422 108.506L85.9265 100.177Z" fill="#D20001"/>
<path d="M85.9265 100.177L84.9666 99.8963L84.6861 100.856L85.6459 101.137L85.9265 100.177ZM89.6713 88.7571L89.191 87.88L89.1424 87.9066L89.0971 87.9384L89.6713 88.7571ZM101.072 91.1739L101.453 92.0986L101.504 92.0776L101.553 92.0509L101.072 91.1739ZM92.5481 78.915L91.6233 79.2956L91.6656 79.3983L91.7294 79.4893L92.5481 78.915ZM94.055 73.7597L93.5747 72.8826L93.5261 72.9092L93.4807 72.941L94.055 73.7597ZM105.456 76.1764L105.836 77.1012L105.888 77.0801L105.936 77.0535L105.456 76.1764ZM96.9318 63.9176L96.007 64.2981L96.0493 64.4008L96.1131 64.4918L96.9318 63.9176ZM100.192 52.7632L99.7118 51.8861L99.6632 51.9127L99.6178 51.9445L100.192 52.7632ZM115.562 108.432L115.943 109.357L115.994 109.336L116.043 109.309L115.562 108.432ZM85.9265 100.177L86.8863 100.457L89.9549 89.9592L88.995 89.6786L88.0352 89.3981L84.9666 99.8963L85.9265 100.177ZM88.995 89.6786L89.9549 89.9592C89.9963 89.8174 90.0768 89.6942 90.2456 89.5758L89.6713 88.7571L89.0971 87.9384C88.5833 88.2988 88.2129 88.79 88.0352 89.3981L88.995 89.6786ZM89.6713 88.7571L90.1517 89.6342C90.3255 89.539 90.4726 89.5245 90.6526 89.5771L90.9331 88.6172L91.2137 87.6574C90.5188 87.4543 89.8247 87.533 89.191 87.88L89.6713 88.7571ZM90.9331 88.6172L90.6526 89.5771L99.6511 92.2073L99.9316 91.2474L100.212 90.2876L91.2137 87.6574L90.9331 88.6172ZM99.9316 91.2474L99.6511 92.2073C100.259 92.385 100.872 92.3374 101.453 92.0986L101.072 91.1739L100.692 90.2491C100.501 90.3275 100.354 90.329 100.212 90.2876L99.9316 91.2474ZM101.072 91.1739L101.553 92.0509C102.186 91.7039 102.626 91.1615 102.83 90.4666L101.87 90.186L100.91 89.9055C100.857 90.0855 100.766 90.2016 100.592 90.2968L101.072 91.1739ZM101.87 90.186L102.83 90.4666L104.583 84.4676L103.623 84.187L102.663 83.9065L100.91 89.9055L101.87 90.186ZM103.623 84.187L104.583 84.4676C104.78 83.793 104.657 83.1304 104.333 82.5387L103.456 83.019L102.579 83.4993C102.697 83.7152 102.685 83.8312 102.663 83.9065L103.623 84.187ZM103.456 83.019L104.333 82.5387C104.009 81.947 103.517 81.4863 102.842 81.2891L102.562 82.2489L102.281 83.2088C102.357 83.2308 102.461 83.2835 102.579 83.4993L103.456 83.019ZM102.562 82.2489L102.842 81.2891L93.8439 78.6589L93.5633 79.6187L93.2828 80.5786L102.281 83.2088L102.562 82.2489ZM93.5633 79.6187L93.8439 78.6589C93.6027 78.5884 93.4634 78.4785 93.3668 78.3408L92.5481 78.915L91.7294 79.4893C92.1116 80.0341 92.649 80.3934 93.2828 80.5786L93.5633 79.6187ZM92.5481 78.915L93.4729 78.5345C93.4089 78.3789 93.3913 78.2023 93.4618 77.9612L92.5019 77.6806L91.5421 77.4001C91.3569 78.0338 91.3701 78.6801 91.6233 79.2956L92.5481 78.915ZM92.5019 77.6806L93.4618 77.9612L94.3385 74.9617L93.3787 74.6811L92.4188 74.4006L91.5421 77.4001L92.5019 77.6806ZM93.3787 74.6811L94.3385 74.9617C94.3799 74.8199 94.4604 74.6967 94.6292 74.5783L94.055 73.7597L93.4807 72.941C92.967 73.3014 92.5966 73.7925 92.4188 74.4006L93.3787 74.6811ZM94.055 73.7597L94.5353 74.6367C94.7091 74.5416 94.8563 74.527 95.0362 74.5796L95.3168 73.6198L95.5973 72.6599C94.9025 72.4568 94.2084 72.5355 93.5747 72.8826L94.055 73.7597ZM95.3168 73.6198L95.0362 74.5796L104.035 77.2098L104.315 76.2499L104.596 75.2901L95.5973 72.6599L95.3168 73.6198ZM104.315 76.2499L104.035 77.2098C104.643 77.3875 105.256 77.34 105.836 77.1012L105.456 76.1764L105.075 75.2516C104.885 75.3301 104.738 75.3315 104.596 75.2901L104.315 76.2499ZM105.456 76.1764L105.936 77.0535C106.57 76.7064 107.01 76.164 107.213 75.4691L106.253 75.1886L105.294 74.908C105.241 75.088 105.149 75.2041 104.976 75.2993L105.456 76.1764ZM106.253 75.1886L107.213 75.4691L108.967 69.4701L108.007 69.1896L107.047 68.909L105.294 74.908L106.253 75.1886ZM108.007 69.1896L108.967 69.4701C109.164 68.7956 109.041 68.1329 108.717 67.5412L107.84 68.0215L106.962 68.5018C107.081 68.7177 107.069 68.8337 107.047 68.909L108.007 69.1896ZM107.84 68.0215L108.717 67.5412C108.393 66.9495 107.901 66.4888 107.226 66.2916L106.945 67.2515L106.665 68.2113C106.74 68.2333 106.844 68.286 106.962 68.5018L107.84 68.0215ZM106.945 67.2515L107.226 66.2916L98.2275 63.6614L97.947 64.6213L97.6664 65.5811L106.665 68.2113L106.945 67.2515ZM97.947 64.6213L98.2275 63.6614C97.9864 63.591 97.847 63.481 97.7504 63.3433L96.9318 63.9176L96.1131 64.4918C96.4952 65.0367 97.0327 65.3959 97.6664 65.5811L97.947 64.6213ZM96.9318 63.9176L97.8565 63.537C97.7925 63.3815 97.775 63.2048 97.8454 62.9637L96.8856 62.6832L95.9258 62.4026C95.7405 63.0363 95.7537 63.6826 96.007 64.2981L96.9318 63.9176ZM96.8856 62.6832L97.8454 62.9637L100.476 53.9652L99.5158 53.6847L98.5559 53.4041L95.9258 62.4026L96.8856 62.6832ZM99.5158 53.6847L100.476 53.9652C100.517 53.8235 100.598 53.7003 100.766 53.5819L100.192 52.7632L99.6178 51.9445C99.1041 52.3049 98.7337 52.796 98.5559 53.4041L99.5158 53.6847ZM100.192 52.7632L100.672 53.6403C100.846 53.5451 100.993 53.5305 101.173 53.5831L101.454 52.6233L101.734 51.6635C101.04 51.4603 100.346 51.539 99.7118 51.8861L100.192 52.7632ZM101.454 52.6233L101.173 53.5831L128.169 61.4737L128.449 60.5139L128.73 59.554L101.734 51.6635L101.454 52.6233ZM128.449 60.5139L128.169 61.4737C128.244 61.4957 128.348 61.5484 128.466 61.7642L129.343 61.2839L130.221 60.8036C129.896 60.2119 129.404 59.7512 128.73 59.554L128.449 60.5139ZM129.343 61.2839L128.466 61.7642C128.585 61.9801 128.573 62.0961 128.551 62.1714L129.511 62.452L130.471 62.7325C130.668 62.058 130.545 61.3953 130.221 60.8036L129.343 61.2839ZM129.511 62.452L128.551 62.1714L115.4 107.164L116.36 107.444L117.32 107.725L130.471 62.7325L129.511 62.452ZM116.36 107.444L115.4 107.164C115.347 107.344 115.256 107.46 115.082 107.555L115.562 108.432L116.043 109.309C116.676 108.962 117.117 108.42 117.32 107.725L116.36 107.444ZM115.562 108.432L115.182 107.507C114.991 107.586 114.844 107.587 114.702 107.546L114.422 108.506L114.141 109.466C114.749 109.643 115.363 109.596 115.943 109.357L115.562 108.432ZM114.422 108.506L114.702 107.546L86.207 99.217L85.9265 100.177L85.6459 101.137L114.141 109.466L114.422 108.506Z" fill="black" mask="url(#path-7-outside-3_375_543)"/>
<defs>
<filter id="filter0_i_375_543" x="69.4077" y="40.8198" width="79.0205" height="79.0208" filterUnits="userSpaceOnUse" color-interpolation-filters="sRGB">
<feFlood flood-opacity="0" result="BackgroundImageFix"/>
<feBlend mode="normal" in="SourceGraphic" in2="BackgroundImageFix" result="shape"/>
<feColorMatrix in="SourceAlpha" type="matrix" values="0 0 0 0 0 0 0 0 0 0 0 0 0 0 0 0 0 0 127 0" result="hardAlpha"/>
<feOffset/>
<feGaussianBlur stdDeviation="2"/>
<feComposite in2="hardAlpha" operator="arithmetic" k2="-1" k3="1"/>
<feColorMatrix type="matrix" values="0 0 0 0 0 0 0 0 0 0 0 0 0 0 0 0 0 0 0.25 0"/>
<feBlend mode="normal" in2="shape" result="effect1_innerShadow_375_543"/>
</filter>
</defs>
</svg>
