<svg width="197" height="233" viewBox="0 0 197 233" fill="none" xmlns="http://www.w3.org/2000/svg">
<mask id="path-1-inside-1_375_523" fill="white">
<path d="M49.0201 205.528L48.8471 205.392L42.1765 169.675L5.9005 171.74L5.72755 171.605L59.3872 103.124L102.68 137.047L49.0201 205.528Z"/>
</mask>
<path d="M49.0201 205.528L48.8471 205.392L42.1765 169.675L5.9005 171.74L5.72755 171.605L59.3872 103.124L102.68 137.047L49.0201 205.528Z" fill="#0212EE"/>
<path d="M49.0201 205.528L48.4033 206.315L49.1905 206.931L49.8072 206.144L49.0201 205.528ZM48.8471 205.392L47.8641 205.576L47.9334 205.946L48.2304 206.179L48.8471 205.392ZM42.1765 169.675L43.1595 169.491L42.998 168.626L42.1196 168.676L42.1765 169.675ZM5.9005 171.74L5.28372 172.527L5.58069 172.76L5.95735 172.739L5.9005 171.74ZM5.72755 171.605L4.94041 170.988L4.32363 171.775L5.11077 172.392L5.72755 171.605ZM59.3872 103.124L60.004 102.337L59.2168 101.72L58.6001 102.507L59.3872 103.124ZM102.68 137.047L103.467 137.663L104.084 136.876L103.297 136.259L102.68 137.047ZM49.0201 205.528L49.6369 204.74L49.4639 204.605L48.8471 205.392L48.2304 206.179L48.4033 206.315L49.0201 205.528ZM48.8471 205.392L49.8301 205.208L43.1595 169.491L42.1765 169.675L41.1935 169.858L47.8641 205.576L48.8471 205.392ZM42.1765 169.675L42.1196 168.676L5.84365 170.742L5.9005 171.74L5.95735 172.739L42.2333 170.673L42.1765 169.675ZM5.9005 171.74L6.51728 170.953L6.34432 170.818L5.72755 171.605L5.11077 172.392L5.28372 172.527L5.9005 171.74ZM5.72755 171.605L6.51468 172.222L60.1743 103.741L59.3872 103.124L58.6001 102.507L4.94041 170.988L5.72755 171.605ZM59.3872 103.124L58.7704 103.911L102.063 137.834L102.68 137.047L103.297 136.259L60.004 102.337L59.3872 103.124ZM102.68 137.047L101.893 136.43L48.233 204.911L49.0201 205.528L49.8072 206.144L103.467 137.663L102.68 137.047Z" fill="black" mask="url(#path-1-inside-1_375_523)"/>
<mask id="path-3-inside-2_375_523" fill="white">
<path d="M91.4651 217.934L91.6838 217.913L116.541 191.411L145.994 212.689L146.212 212.668L137.882 126.067L83.1346 131.334L91.4651 217.934Z"/>
</mask>
<path d="M91.4651 217.934L91.6838 217.913L116.541 191.411L145.994 212.689L146.212 212.668L137.882 126.067L83.1346 131.334L91.4651 217.934Z" fill="#0212EE"/>
<path d="M91.4651 217.934L91.5609 218.929L90.5655 219.025L90.4697 218.03L91.4651 217.934ZM91.6838 217.913L92.4132 218.597L92.1551 218.872L91.7796 218.908L91.6838 217.913ZM116.541 191.411L115.811 190.727L116.413 190.085L117.126 190.601L116.541 191.411ZM145.994 212.689L146.089 213.684L145.714 213.72L145.408 213.499L145.994 212.689ZM146.212 212.668L147.208 212.572L147.304 213.567L146.308 213.663L146.212 212.668ZM137.882 126.067L137.786 125.072L138.781 124.976L138.877 125.972L137.882 126.067ZM83.1346 131.334L82.1392 131.43L82.0434 130.434L83.0388 130.338L83.1346 131.334ZM91.4651 217.934L91.3694 216.939L91.5881 216.918L91.6838 217.913L91.7796 218.908L91.5609 218.929L91.4651 217.934ZM91.6838 217.913L90.9545 217.229L115.811 190.727L116.541 191.411L117.27 192.095L92.4132 218.597L91.6838 217.913ZM116.541 191.411L117.126 190.601L146.579 211.878L145.994 212.689L145.408 213.499L115.955 192.222L116.541 191.411ZM145.994 212.689L145.898 211.693L146.117 211.672L146.212 212.668L146.308 213.663L146.089 213.684L145.994 212.689ZM146.212 212.668L145.217 212.763L136.886 126.163L137.882 126.067L138.877 125.972L147.208 212.572L146.212 212.668ZM137.882 126.067L137.978 127.063L83.2303 132.329L83.1346 131.334L83.0388 130.338L137.786 125.072L137.882 126.067ZM83.1346 131.334L84.13 131.238L92.4605 217.838L91.4651 217.934L90.4697 218.03L82.1392 131.43L83.1346 131.334Z" fill="black" mask="url(#path-3-inside-2_375_523)"/>
<circle cx="108.279" cy="80.9504" r="62.5" transform="rotate(16.2933 108.279 80.9504)" fill="#F3D038" stroke="black"/>
<g filter="url(#filter0_i_375_523)">
<circle cx="107.94" cy="80.3302" r="39.5" transform="rotate(16.2933 107.94 80.3302)" fill="#F3D038"/>
</g>
<mask id="path-7-outside-3_375_523" maskUnits="userSpaceOnUse" x="83.708" y="50.9445" width="47.2233" height="59.4504" fill="black">
<rect fill="white" x="83.708" y="50.9445" width="47.2233" height="59.4504"/>
<path d="M86.4482 100.615C86.0108 100.487 85.6724 100.253 85.433 99.9115C85.2743 99.526 85.2589 99.1145 85.3868 98.6771L91.5239 77.6806C91.6335 77.3057 91.8589 76.9985 92.2002 76.7591C92.604 76.538 93.0246 76.4914 93.462 76.6192L102.461 79.2494C102.835 79.359 103.216 79.3345 103.601 79.1759C104.005 78.9548 104.271 78.6255 104.399 78.1881L107.029 69.1896C107.138 68.8146 107.083 68.4253 106.862 68.0215C106.64 67.6177 106.342 67.3611 105.967 67.2515L96.9689 64.6213C96.5315 64.4934 96.1931 64.2588 95.9537 63.9176C95.7951 63.5321 95.7797 63.1206 95.9076 62.6832L98.5378 53.6847C98.6473 53.3097 98.8728 53.0026 99.2141 52.7632C99.6178 52.5421 100.038 52.4954 100.476 52.6233L127.471 60.5139C127.846 60.6235 128.144 60.8801 128.365 61.2839C128.587 61.6877 128.642 62.077 128.533 62.452L120.642 89.4474C120.514 89.8849 120.248 90.2141 119.845 90.4353C119.459 90.5939 119.079 90.6184 118.704 90.5088L109.706 87.8786C109.268 87.7508 108.848 87.7974 108.444 88.0185C108.102 88.2579 107.877 88.5651 107.767 88.94L106.891 91.9395C106.763 92.3769 106.778 92.7884 106.937 93.1739C107.176 93.5152 107.515 93.7498 107.952 93.8776L116.951 96.5078C117.325 96.6174 117.624 96.8741 117.845 97.2778C118.066 97.6816 118.122 98.071 118.012 98.4459L115.382 107.444C115.254 107.882 114.988 108.211 114.584 108.432C114.199 108.591 113.819 108.615 113.444 108.506L86.4482 100.615Z"/>
</mask>
<path d="M86.4482 100.615C86.0108 100.487 85.6724 100.253 85.433 99.9115C85.2743 99.526 85.2589 99.1145 85.3868 98.6771L91.5239 77.6806C91.6335 77.3057 91.8589 76.9985 92.2002 76.7591C92.604 76.538 93.0246 76.4914 93.462 76.6192L102.461 79.2494C102.835 79.359 103.216 79.3345 103.601 79.1759C104.005 78.9548 104.271 78.6255 104.399 78.1881L107.029 69.1896C107.138 68.8146 107.083 68.4253 106.862 68.0215C106.64 67.6177 106.342 67.3611 105.967 67.2515L96.9689 64.6213C96.5315 64.4934 96.1931 64.2588 95.9537 63.9176C95.7951 63.5321 95.7797 63.1206 95.9076 62.6832L98.5378 53.6847C98.6473 53.3097 98.8728 53.0026 99.2141 52.7632C99.6178 52.5421 100.038 52.4954 100.476 52.6233L127.471 60.5139C127.846 60.6235 128.144 60.8801 128.365 61.2839C128.587 61.6877 128.642 62.077 128.533 62.452L120.642 89.4474C120.514 89.8849 120.248 90.2141 119.845 90.4353C119.459 90.5939 119.079 90.6184 118.704 90.5088L109.706 87.8786C109.268 87.7508 108.848 87.7974 108.444 88.0185C108.102 88.2579 107.877 88.5651 107.767 88.94L106.891 91.9395C106.763 92.3769 106.778 92.7884 106.937 93.1739C107.176 93.5152 107.515 93.7498 107.952 93.8776L116.951 96.5078C117.325 96.6174 117.624 96.8741 117.845 97.2778C118.066 97.6816 118.122 98.071 118.012 98.4459L115.382 107.444C115.254 107.882 114.988 108.211 114.584 108.432C114.199 108.591 113.819 108.615 113.444 108.506L86.4482 100.615Z" fill="#D20001"/>
<path d="M85.433 99.9115L84.5082 100.292L84.5505 100.395L84.6143 100.486L85.433 99.9115ZM92.2002 76.7591L91.7199 75.8821L91.6713 75.9087L91.626 75.9405L92.2002 76.7591ZM103.601 79.1759L103.982 80.1006L104.033 80.0796L104.082 80.053L103.601 79.1759ZM95.9537 63.9176L95.029 64.2981L95.0712 64.4008L95.135 64.4918L95.9537 63.9176ZM99.2141 52.7632L98.7337 51.8861L98.6852 51.9127L98.6398 51.9445L99.2141 52.7632ZM119.845 90.4353L120.225 91.36L120.276 91.3389L120.325 91.3123L119.845 90.4353ZM108.444 88.0185L107.963 87.1414L107.915 87.168L107.869 87.1998L108.444 88.0185ZM106.937 93.1739L106.012 93.5544L106.054 93.6572L106.118 93.7481L106.937 93.1739ZM114.584 108.432L114.965 109.357L115.016 109.336L115.065 109.309L114.584 108.432ZM86.4482 100.615L86.7287 99.6554C86.4876 99.5849 86.3482 99.475 86.2516 99.3373L85.433 99.9115L84.6143 100.486C84.9965 101.031 85.5339 101.39 86.1676 101.575L86.4482 100.615ZM85.433 99.9115L86.3577 99.531C86.2937 99.3754 86.2762 99.1988 86.3466 98.9576L85.3868 98.6771L84.427 98.3965C84.2417 99.0303 84.2549 99.6766 84.5082 100.292L85.433 99.9115ZM85.3868 98.6771L86.3466 98.9576L92.4838 77.9612L91.5239 77.6806L90.5641 77.4001L84.427 98.3965L85.3868 98.6771ZM91.5239 77.6806L92.4838 77.9612C92.5252 77.8194 92.6057 77.6962 92.7745 77.5778L92.2002 76.7591L91.626 75.9405C91.1122 76.3008 90.7418 76.792 90.5641 77.4001L91.5239 77.6806ZM92.2002 76.7591L92.6806 77.6362C92.8544 77.5411 93.0015 77.5265 93.1815 77.5791L93.462 76.6192L93.7426 75.6594C93.0477 75.4563 92.3536 75.535 91.7199 75.8821L92.2002 76.7591ZM93.462 76.6192L93.1815 77.5791L102.18 80.2093L102.461 79.2494L102.741 78.2896L93.7426 75.6594L93.462 76.6192ZM102.461 79.2494L102.18 80.2093C102.788 80.387 103.401 80.3395 103.982 80.1006L103.601 79.1759L103.221 78.2511C103.03 78.3296 102.883 78.331 102.741 78.2896L102.461 79.2494ZM103.601 79.1759L104.082 80.053C104.715 79.7059 105.155 79.1635 105.358 78.4686L104.399 78.1881L103.439 77.9075C103.386 78.0875 103.295 78.2036 103.121 78.2988L103.601 79.1759ZM104.399 78.1881L105.358 78.4686L107.989 69.4701L107.029 69.1896L106.069 68.909L103.439 77.9075L104.399 78.1881ZM107.029 69.1896L107.989 69.4701C108.186 68.7956 108.063 68.1329 107.739 67.5412L106.862 68.0215L105.984 68.5018C106.103 68.7177 106.091 68.8337 106.069 68.909L107.029 69.1896ZM106.862 68.0215L107.739 67.5412C107.415 66.9495 106.923 66.4888 106.248 66.2916L105.967 67.2515L105.687 68.2113C105.762 68.2333 105.866 68.286 105.984 68.5018L106.862 68.0215ZM105.967 67.2515L106.248 66.2916L97.2495 63.6614L96.9689 64.6213L96.6884 65.5811L105.687 68.2113L105.967 67.2515ZM96.9689 64.6213L97.2495 63.6614C97.0084 63.591 96.869 63.481 96.7724 63.3433L95.9537 63.9176L95.135 64.4918C95.5172 65.0367 96.0547 65.3959 96.6884 65.5811L96.9689 64.6213ZM95.9537 63.9176L96.8785 63.537C96.8145 63.3815 96.7969 63.2048 96.8674 62.9637L95.9076 62.6832L94.9477 62.4026C94.7625 63.0363 94.7757 63.6826 95.029 64.2981L95.9537 63.9176ZM95.9076 62.6832L96.8674 62.9637L99.4976 53.9652L98.5378 53.6847L97.5779 53.4041L94.9477 62.4026L95.9076 62.6832ZM98.5378 53.6847L99.4976 53.9652C99.539 53.8235 99.6195 53.7003 99.7883 53.5819L99.2141 52.7632L98.6398 51.9445C98.126 52.3049 97.7557 52.796 97.5779 53.4041L98.5378 53.6847ZM99.2141 52.7632L99.6944 53.6403C99.8682 53.5451 100.015 53.5305 100.195 53.5831L100.476 52.6233L100.756 51.6635C100.062 51.4603 99.3675 51.539 98.7337 51.8861L99.2141 52.7632ZM100.476 52.6233L100.195 53.5831L127.191 61.4737L127.471 60.5139L127.752 59.554L100.756 51.6635L100.476 52.6233ZM127.471 60.5139L127.191 61.4737C127.266 61.4957 127.37 61.5484 127.488 61.7642L128.365 61.2839L129.242 60.8036C128.918 60.2119 128.426 59.7512 127.752 59.554L127.471 60.5139ZM128.365 61.2839L127.488 61.7642C127.607 61.9801 127.595 62.0961 127.573 62.1714L128.533 62.452L129.493 62.7325C129.69 62.058 129.567 61.3953 129.242 60.8036L128.365 61.2839ZM128.533 62.452L127.573 62.1714L119.682 89.1669L120.642 89.4474L121.602 89.728L129.493 62.7325L128.533 62.452ZM120.642 89.4474L119.682 89.1669C119.63 89.3468 119.538 89.463 119.364 89.5582L119.845 90.4353L120.325 91.3123C120.959 90.9653 121.399 90.4229 121.602 89.728L120.642 89.4474ZM119.845 90.4353L119.464 89.5105C119.273 89.5889 119.126 89.5904 118.985 89.549L118.704 90.5088L118.423 91.4686C119.032 91.6464 119.645 91.5988 120.225 91.36L119.845 90.4353ZM118.704 90.5088L118.985 89.549L109.986 86.9188L109.706 87.8786L109.425 88.8385L118.423 91.4686L118.704 90.5088ZM109.706 87.8786L109.986 86.9188C109.291 86.7157 108.597 86.7944 107.963 87.1414L108.444 88.0185L108.924 88.8956C109.098 88.8004 109.245 88.7859 109.425 88.8385L109.706 87.8786ZM108.444 88.0185L107.869 87.1998C107.356 87.5602 106.985 88.0513 106.808 88.6594L107.767 88.94L108.727 89.2206C108.769 89.0788 108.849 88.9556 109.018 88.8372L108.444 88.0185ZM107.767 88.94L106.808 88.6594L105.931 91.6589L106.891 91.9395L107.851 92.2201L108.727 89.2206L107.767 88.94ZM106.891 91.9395L105.931 91.6589C105.746 92.2927 105.759 92.939 106.012 93.5544L106.937 93.1739L107.862 92.7934C107.798 92.6378 107.78 92.4612 107.851 92.2201L106.891 91.9395ZM106.937 93.1739L106.118 93.7481C106.5 94.293 107.038 94.6522 107.672 94.8374L107.952 93.8776L108.233 92.9178C107.991 92.8473 107.852 92.7374 107.756 92.5997L106.937 93.1739ZM107.952 93.8776L107.672 94.8374L116.67 97.4676L116.951 96.5078L117.231 95.548L108.233 92.9178L107.952 93.8776ZM116.951 96.5078L116.67 97.4676C116.745 97.4897 116.849 97.5423 116.968 97.7582L117.845 97.2778L118.722 96.7975C118.398 96.2058 117.906 95.7451 117.231 95.548L116.951 96.5078ZM117.845 97.2778L116.968 97.7582C117.086 97.974 117.074 98.0901 117.052 98.1654L118.012 98.4459L118.972 98.7265C119.169 98.0519 119.046 97.3892 118.722 96.7975L117.845 97.2778ZM118.012 98.4459L117.052 98.1654L114.422 107.164L115.382 107.444L116.342 107.725L118.972 98.7265L118.012 98.4459ZM115.382 107.444L114.422 107.164C114.369 107.344 114.278 107.46 114.104 107.555L114.584 108.432L115.065 109.309C115.698 108.962 116.138 108.42 116.342 107.725L115.382 107.444ZM114.584 108.432L114.204 107.507C114.013 107.586 113.866 107.587 113.724 107.546L113.444 108.506L113.163 109.466C113.771 109.643 114.384 109.596 114.965 109.357L114.584 108.432ZM113.444 108.506L113.724 107.546L86.7287 99.6554L86.4482 100.615L86.1676 101.575L113.163 109.466L113.444 108.506Z" fill="black" mask="url(#path-7-outside-3_375_523)"/>
<defs>
<filter id="filter0_i_375_523" x="68.4297" y="40.8198" width="79.0205" height="79.0208" filterUnits="userSpaceOnUse" color-interpolation-filters="sRGB">
<feFlood flood-opacity="0" result="BackgroundImageFix"/>
<feBlend mode="normal" in="SourceGraphic" in2="BackgroundImageFix" result="shape"/>
<feColorMatrix in="SourceAlpha" type="matrix" values="0 0 0 0 0 0 0 0 0 0 0 0 0 0 0 0 0 0 127 0" result="hardAlpha"/>
<feOffset/>
<feGaussianBlur stdDeviation="2"/>
<feComposite in2="hardAlpha" operator="arithmetic" k2="-1" k3="1"/>
<feColorMatrix type="matrix" values="0 0 0 0 0 0 0 0 0 0 0 0 0 0 0 0 0 0 0.25 0"/>
<feBlend mode="normal" in2="shape" result="effect1_innerShadow_375_523"/>
</filter>
</defs>
</svg>
