<svg width="537" height="194" viewBox="0 0 537 194" fill="none" xmlns="http://www.w3.org/2000/svg">
<path d="M478.148 34.5282C480.464 34.6184 482.783 34.9575 485.103 35.5452L485.11 35.5473C486.012 35.783 486.8 36.3013 487.11 37.2408C487.341 37.9394 487.366 38.7157 487.246 39.5316C487.137 40.2803 486.981 41.0591 486.779 41.8675C486.591 42.6189 486.448 43.3326 486.35 44.0086C485.898 47.6544 485.447 51.3004 484.995 54.9462C484.618 57.9845 484.237 61.0502 483.853 64.1433C485.367 63.3413 486.986 62.4274 488.71 61.3975L488.725 61.3879C491.184 59.9767 493.61 58.5203 496.002 57.0189C498.491 55.4461 500.895 53.902 503.213 52.3856L503.222 52.38L503.23 52.3752C505.627 50.8708 507.76 49.4912 509.632 48.2367L509.642 48.2302L509.652 48.2247C511.614 46.9749 513.219 45.9548 514.467 45.1659L514.482 45.1572L514.496 45.1485C515.168 44.7548 515.739 44.439 516.202 44.2064C516.592 44.0106 516.96 43.8477 517.268 43.7572C517.526 43.6589 517.77 43.691 517.912 43.7308C518.085 43.7794 518.208 43.8622 518.262 43.9013C518.379 43.9859 518.471 44.0851 518.525 44.1461C518.647 44.2832 518.786 44.4688 518.933 44.6784C519.234 45.1079 519.65 45.7529 520.176 46.6009C521.228 48.299 522.463 50.3845 523.88 52.8543C525.317 55.2587 526.77 57.8264 528.238 60.5562C529.783 63.1962 531.105 65.4413 532.203 67.2919L532.68 68.0939L531.912 68.6251C529.275 70.4473 526.535 72.1314 523.694 73.6779L523.685 73.6825L523.676 73.6871C520.865 75.1434 517.982 76.5478 515.026 77.9011C512.156 79.263 509.246 80.6198 506.296 81.97L506.289 81.973C503.688 83.1398 501.105 84.4114 498.54 85.7874C499.289 88.628 500.529 91.559 502.272 94.5814C504.167 97.8648 506.42 100.843 509.033 103.518C511.643 106.188 514.474 108.371 517.524 110.074C520.531 111.752 523.551 112.568 526.597 112.557L528.521 112.549L527.42 114.129C526.918 114.849 525.942 116.312 524.486 118.526L524.479 118.538C523.03 120.68 521.439 122.961 519.708 125.383C518.06 127.809 516.474 130.084 514.95 132.208C513.521 134.32 512.478 135.759 511.847 136.46L511.425 136.928L510.821 136.75C506.364 135.435 502.375 133.397 498.862 130.634L498.855 130.628C495.459 127.905 492.451 124.786 489.832 121.271C487.218 117.763 485.015 113.986 483.221 109.942C482.174 107.581 481.24 105.234 480.413 102.902C480.327 104.316 480.223 105.863 480.099 107.541C479.933 109.783 479.75 112.143 479.549 114.622C479.428 117.107 479.287 119.469 479.121 121.708C478.956 123.94 478.786 125.934 478.611 127.69C478.515 129.448 478.455 130.679 478.43 131.391L478.397 132.368L477.42 132.357L461.196 132.17C455.738 132.107 450.259 131.633 444.761 130.748L443.828 130.598L443.926 129.657C445.535 114.216 446.97 98.5868 448.229 82.7709L448.229 82.766C449.582 66.855 451.376 51.25 453.611 35.9516C453.705 35.3055 453.99 34.7338 454.475 34.2885C454.935 33.865 455.523 33.6053 456.164 33.4557C457.466 33.1096 458.965 32.9865 460.642 33.0626C462.281 33.137 464.06 33.3148 465.977 33.5942C467.867 33.79 469.642 33.9296 471.302 34.0129L471.328 34.0146C473.64 34.1911 475.914 34.3631 478.148 34.5282Z" fill="#F3D038" stroke="black" stroke-width="2"/>
<path d="M346.659 2.55273C350.58 10.3929 354.137 18.3789 357.332 26.5098C360.516 34.6126 363.627 42.7154 366.666 50.8184C369.848 58.9167 373.03 67.0874 376.212 75.3301L377.468 78.3555C379.823 83.9732 382.287 89.5193 384.854 94.9961C384.722 82.3768 385.106 69.4141 386.011 56.1084C387.025 41.1797 388.548 27.1155 390.579 13.917L390.712 13.0527L391.586 13.0693C399.28 13.2145 407.549 13.6501 416.395 14.375H416.394C425.342 14.9519 433.636 15.2402 441.276 15.2402C441.631 15.2402 441.962 15.3663 442.226 15.6006C442.469 15.8167 442.612 16.0862 442.701 16.3232C442.868 16.7694 442.922 17.3269 442.926 17.918C443.075 19.1894 442.99 20.7797 442.703 22.6572C442.554 24.4278 442.26 26.4756 441.825 28.7959C441.395 31.0911 441.036 33.386 440.749 35.6807L440.748 35.6914L440.746 35.7021C437.707 56.3945 434.668 76.9427 431.629 97.3457C428.594 117.722 426.354 138.315 424.908 159.125L424.849 159.987L423.987 160.054C420.285 160.338 415.701 161.051 410.229 162.203L410.229 162.204C404.835 163.37 399.438 164.173 394.041 164.61C388.768 165.194 383.977 165.124 379.676 164.383C375.212 163.613 372.121 161.406 370.665 157.685L370.661 157.674L370.658 157.664C365.888 144.657 360.829 131.867 355.481 119.294C350.599 107.815 345.232 96.4562 339.384 85.2168C338.848 94.2581 338.397 103.256 338.034 112.211L337.864 116.553C337.43 127.983 336.997 139.559 336.562 151.279L336.544 151.771L336.144 152.057C334.954 152.906 332.972 153.59 330.353 154.172C327.736 154.753 324.905 155.335 321.857 155.915L321.818 155.921C318.927 156.355 316.107 156.789 313.36 157.223L313.338 157.226L313.314 157.229C310.71 157.518 308.835 157.734 307.685 157.878L307.673 157.88L307.66 157.881C306.266 158.02 304.645 158.301 302.793 158.729C300.87 159.172 299.014 159.469 297.225 159.618C295.407 159.77 293.654 159.695 291.97 159.389L291.915 159.379L291.861 159.363C290.16 158.853 288.91 157.8 288.203 156.223C287.139 153.943 286.18 150.594 285.307 146.229C284.435 141.873 283.565 136.939 282.695 131.431C281.825 125.918 281.027 120.117 280.302 114.028L280.301 114.018L280.3 114.006C279.721 107.932 279.143 102.146 278.564 96.6514L278.563 96.6494C277.984 91.0049 277.478 85.9381 277.044 81.4502L277.042 81.4336L277.041 81.418C276.753 76.9505 276.536 73.5587 276.392 71.2432L275.74 64.0801L275.738 64.0566L275.737 64.0332C275.593 60.7171 275.377 57.1101 275.088 53.2119C274.797 49.2904 274.58 45.1527 274.435 40.7998C274.29 36.4601 274.146 32.337 274.001 28.4316L274 28.4131V28.3945C274 24.4761 274.072 20.9869 274.218 17.9287C274.363 14.7277 274.656 12.2515 275.12 10.5508L275.295 9.91211L275.951 9.82324C287.676 8.23119 299.256 6.71102 310.691 5.26367H310.692C322.29 3.8141 333.961 2.72672 345.703 2.00195L346.363 1.96094L346.659 2.55273Z" fill="#F3D038" stroke="black" stroke-width="2"/>
<path d="M246.76 13C247.452 13 248.065 13.043 248.585 13.1406C249.044 13.2269 249.498 13.37 249.874 13.6182C250.546 13.9303 251.031 14.4658 251.357 15.1309L251.494 15.4385L251.514 15.4854L251.527 15.5352C251.98 17.1221 252.423 19.298 252.861 22.0439C253.254 24.0123 253.574 25.6778 253.821 27.0391L254.045 28.3027V28.3037C256.76 44.3253 259.036 60.3472 260.875 76.3691L261.587 82.3818C263.224 96.4314 264.694 110.607 265.996 124.908L266.073 125.761L265.243 125.969C263.893 126.307 261.631 126.75 258.483 127.298C255.404 127.849 252.151 128.346 248.725 128.786L248.709 128.788L248.693 128.789C245.284 129.118 242.006 129.447 238.859 129.775L238.844 129.777L238.827 129.778C235.763 129.998 233.508 130.058 232.111 129.941L231.254 129.87L231.196 129.012C230.846 123.745 230.54 118.588 230.277 113.54V113.538C230.033 108.738 229.788 103.937 229.544 99.1367C227.953 99.3015 226.362 99.4309 224.771 99.5215L224.743 99.5234H224.715C222.809 99.5234 220.859 99.5778 218.864 99.6865L218.837 99.6875H218.71C218.464 104.499 218.218 109.165 217.972 113.688C217.797 118.513 217.622 122.956 217.447 127.015L217.407 127.94L216.481 127.972C209.991 128.191 203.588 128.246 197.272 128.136C190.98 128.026 184.556 127.972 178 127.972H176.771L177.021 126.77C178.242 120.864 179.465 114.298 180.688 107.072L180.689 107.062C182.001 99.723 183.268 92.2738 184.492 84.7148C185.716 77.0467 186.852 69.5429 187.901 62.2041L187.903 62.1934C189.041 54.8472 190.091 48.1582 191.054 42.127C192.016 36.095 192.848 31.0472 193.549 26.9854C194.244 22.849 194.871 20.0368 195.454 18.6982L195.669 18.2041L196.2 18.1123C201.91 17.1215 207.708 16.3503 213.592 15.7998C219.46 15.1414 225.285 14.5934 231.066 14.1543L236.705 13.7021C238.365 13.5653 239.806 13.4424 241.028 13.333C243.486 13.113 245.402 13 246.76 13ZM226.413 54.9258C225.662 55.1355 224.863 55.3997 224.017 55.7178C223.187 56.0298 222.401 56.3932 221.658 56.8066L221.629 56.8232L221.598 56.8379C221.337 56.9605 221.184 57.06 221.104 57.125C220.848 59.2854 220.59 62.0367 220.332 65.3828C220.176 68.3154 220.021 71.4665 219.865 74.8359L219.922 74.833C221.495 74.7235 223.024 74.6134 224.51 74.5039H224.515C225.756 74.4174 226.998 74.2944 228.24 74.1387C228.001 70.9351 227.762 67.686 227.523 64.3916L227.522 64.3799L227.521 64.3672C227.365 61.1408 227.139 57.959 226.843 54.8213C226.712 54.8526 226.569 54.8868 226.413 54.9258Z" fill="#F3D038" stroke="black" stroke-width="2"/>
<path d="M45.9238 5.15332C60.9534 2.84631 75.3239 1.80408 89.0332 2.03027L90.3574 2.05566L90.3652 2.05664C101.013 2.37541 111.115 3.88937 120.667 6.60352H120.666C130.225 9.16157 138.613 13.0828 145.816 18.376H145.817C153.207 23.5313 158.994 30.1403 163.17 38.1914L163.557 38.9395C167.485 46.7064 169.276 55.7325 168.966 65.9854C168.802 72.9809 166.692 79.8697 162.673 86.6406L162.672 86.6396C158.83 93.221 153.872 99.2331 147.807 104.676L147.805 104.678C141.906 109.954 135.371 114.509 128.202 118.343L128.195 118.347H128.194C121.769 121.715 115.457 124.018 109.261 125.25C111.503 127.717 114.249 129.807 117.513 131.513C121.548 133.38 125.82 134.859 130.328 135.95C134.987 136.882 139.643 137.349 144.298 137.349C148.962 137.349 153.135 136.88 156.825 135.956C159.023 135.326 160.673 134.854 161.773 134.539C162.36 134.371 162.895 134.257 163.369 134.209C163.778 134.168 164.198 134.17 164.585 134.271C165.013 134.308 165.444 134.493 165.749 134.901C166.054 135.309 166.126 135.8 166.126 136.212V139.298C166.126 147.214 165.967 154.579 165.651 161.395L165.652 161.396C165.494 168.048 165.257 175.253 164.941 183.012L164.924 183.464L164.572 183.748C156.997 189.89 148.732 192.991 139.801 192.991V192.99C131.122 193.148 122.538 191.212 114.057 187.201V187.202C105.748 183.356 98.0072 178.073 90.835 171.359L90.8271 171.352C84.8591 165.639 79.9765 159.623 76.1875 153.306V156.839C76.3451 159.538 76.4238 162.316 76.4238 165.17V173.672C76.5801 176.335 76.7356 178.685 76.8916 180.723C77.2069 182.934 77.4358 184.294 77.5781 184.865C77.6981 185.346 77.5763 185.818 77.2686 186.183C77.0036 186.497 76.6412 186.686 76.3164 186.812C75.6614 187.064 74.7343 187.209 73.6162 187.29C71.1592 187.613 67.2392 187.689 61.9043 187.531V187.53C56.6959 187.53 51.174 187.452 45.3389 187.294H45.3379C39.6571 187.136 34.1339 186.978 28.7686 186.819H28.7676C23.5618 186.661 19.788 186.582 17.4375 186.582H14.834C14.4473 186.582 14.0679 186.453 13.7607 186.173C13.4745 185.912 13.3156 185.58 13.2246 185.275C13.0485 184.686 13.0468 183.933 13.1289 183.109L13.1299 183.096H13.1309C13.7598 177.577 14.3106 171.263 14.7832 164.154V164.144L14.7842 164.134C15.4145 156.864 15.9666 149.278 16.4395 141.374C16.9128 133.463 17.386 125.472 17.8594 117.402C18.3324 109.337 18.7267 101.589 19.042 94.1582C19.3574 86.7258 19.5934 79.9272 19.751 73.7627C19.897 68.051 19.9717 63.2251 19.9824 59.2842C19.8351 59.3007 19.6656 59.322 19.4727 59.3496C18.4034 59.5028 17.1717 59.7331 15.7754 60.0439C14.517 60.3594 13.2584 60.6757 12 60.9912L11.9414 61.0059L11.8818 61.0137C11.2231 61.0962 10.6383 61.1267 10.167 61.0742C9.93149 61.048 9.67435 60.9959 9.43457 60.8867C9.21374 60.7861 8.96024 60.6126 8.78613 60.3252C8.59549 60.0514 8.43873 59.6947 8.30371 59.3271C8.15111 58.9117 7.99397 58.3951 7.83203 57.7861C7.50769 56.5664 7.14822 54.918 6.75195 52.8516L6.74805 52.833L6.74512 52.8145C6.11442 48.7032 5.40479 44.1961 4.61621 39.293L4.61328 39.2773L4.61133 39.2617C3.97937 34.3501 3.42635 29.6748 2.95215 25.2363C2.47855 20.8035 2.1643 17.9645 2.00781 16.709L1.90723 15.9023L2.67676 15.6387C16.1488 11.0293 30.565 7.53502 45.9229 5.15332H45.9238ZM93.7598 56.4434C89.2609 54.697 83.4931 54.2532 76.3984 55.1982C76.2591 59.6542 76.1875 64.1105 76.1875 68.5664C76.3319 72.9199 76.407 77.2734 76.4189 81.627C76.5014 81.6132 76.5885 81.5992 76.6797 81.584L76.6904 81.582L76.7021 81.5801C77.7976 81.4231 78.9694 81.266 80.2168 81.1094C81.474 80.7968 82.7324 80.559 83.9922 80.3984C85.2263 80.0885 86.0418 79.865 86.4678 79.7227L86.5117 79.708L86.5566 79.6973C93.9112 77.971 98.592 75.5078 100.899 72.4707L100.903 72.4658C103.431 69.185 103.904 66.2514 102.677 63.5166C101.409 60.6902 98.5296 58.295 93.7598 56.4434Z" fill="#F3D038" stroke="black" stroke-width="2"/>
</svg>
