<svg width="187" height="355" viewBox="0 0 187 355" fill="none" xmlns="http://www.w3.org/2000/svg">
<path d="M173.51 170.816C173.684 171.047 173.749 171.341 173.689 171.623L160.685 233.117C160.577 233.628 160.094 233.969 159.576 233.901L80.3069 223.523L142.93 261.596L143.024 261.661C143.234 261.825 143.373 262.066 143.404 262.334C143.44 262.639 143.333 262.945 143.114 263.162L99.4739 306.364C99.2849 306.551 99.0287 306.655 98.7628 306.653C98.4969 306.651 98.2426 306.543 98.0564 306.353L44.1163 251.328L68.707 322.78L68.736 322.878C68.79 323.11 68.7593 323.354 68.6484 323.567C68.5216 323.81 68.3005 323.991 68.0366 324.067L15.4392 339.107C15.1627 339.186 14.8653 339.143 14.6234 338.987C14.3816 338.832 14.218 338.579 14.1751 338.295L-13.017 157.871C-13.0622 157.571 -12.968 157.266 -12.7612 157.043C-12.5544 156.82 -12.2578 156.703 -11.9545 156.726L172.785 170.419L172.891 170.433C173.137 170.478 173.359 170.614 173.51 170.816Z" fill="#ADFC03" stroke="black" stroke-width="2" stroke-linejoin="round"/>
<path d="M169.951 146.532C170.075 146.274 170.083 145.974 169.971 145.71L147.284 92.0702C147.081 91.5903 146.544 91.347 146.049 91.5107L70.1503 116.631L124.485 67.4463C124.713 67.2397 124.833 66.9395 124.811 66.6325C124.789 66.3256 124.627 66.0463 124.371 65.8748L73.3766 31.6626C73.1557 31.5145 72.8845 31.4604 72.6237 31.5125C72.3629 31.5646 72.1335 31.7184 71.9864 31.9399L29.373 96.1379L40.0688 21.3339L40.0777 21.232C40.0872 20.9944 40.0119 20.7599 39.8629 20.5717C39.6926 20.3566 39.4413 20.2207 39.1681 20.1962L-15.3206 15.3299C-15.607 15.3043 -15.891 15.4029 -16.0993 15.601C-16.3076 15.7992 -16.4205 16.0779 -16.4092 16.3652L-9.34942 196.469C-9.33742 196.775 -9.1858 197.059 -8.93782 197.239C-8.68973 197.419 -8.37259 197.475 -8.07772 197.392L169.323 147.061C169.598 146.983 169.827 146.79 169.951 146.532Z" fill="#ADFC03" stroke="black" stroke-width="2" stroke-linejoin="round"/>
<path d="M-170.612 203.509C-170.739 203.768 -170.748 204.069 -170.636 204.335L-146.285 262.28C-146.082 262.761 -145.544 263.005 -145.048 262.841L-69.1513 237.722L-123.484 286.906L-123.565 286.988C-123.74 287.188 -123.831 287.451 -123.811 287.72C-123.789 288.027 -123.626 288.307 -123.37 288.478L-72.3757 322.69C-72.1548 322.838 -71.8836 322.892 -71.6228 322.84C-71.362 322.788 -71.1326 322.634 -70.9855 322.412L-28.3721 258.214L-39.0679 333.018L-39.0778 333.12C-39.0873 333.358 -39.011 333.592 -38.862 333.781C-38.6917 333.996 -38.4404 334.132 -38.1672 334.156L16.3215 339.022C16.608 339.048 16.8919 338.949 17.1002 338.751C17.3084 338.553 17.4215 338.274 17.4101 337.987L10.1401 155.671C10.1279 155.367 9.97792 155.085 9.73285 154.905C9.48783 154.725 9.17452 154.667 8.88095 154.746L-169.975 202.982L-170.077 203.016C-170.31 203.106 -170.501 203.282 -170.612 203.509Z" fill="#ADFC03" stroke="black" stroke-width="2" stroke-linejoin="round"/>
<path d="M-171.69 178.989C-171.86 178.758 -171.924 178.466 -171.864 178.185L-159.684 121.233C-159.575 120.724 -159.093 120.383 -158.577 120.451L-79.3051 130.829L-141.93 92.7564C-142.193 92.5965 -142.367 92.3242 -142.403 92.0185C-142.439 91.7129 -142.332 91.4081 -142.114 91.1916L-98.474 47.9886C-98.285 47.8015 -98.0288 47.6974 -97.7628 47.6994C-97.497 47.7014 -97.2427 47.8093 -97.0565 47.9991L-43.1164 103.024L-67.7071 31.5725L-67.7351 31.4741C-67.7891 31.2425 -67.7594 30.9981 -67.6485 30.7851C-67.5217 30.5418 -67.3005 30.3611 -67.0367 30.2856L-14.4393 15.2455C-14.1628 15.1664 -13.8654 15.2098 -13.6235 15.3652C-13.3816 15.5206 -13.2182 15.773 -13.1752 16.0573L13.8067 194.268C13.8525 194.571 13.7571 194.879 13.5475 195.102C13.3377 195.326 13.0368 195.441 12.7315 195.414L-170.973 179.391C-171.258 179.366 -171.519 179.219 -171.69 178.989Z" fill="#ADFC03" stroke="black" stroke-width="2" stroke-linejoin="round"/>
<path d="M-12.0282 157.723L172.711 171.416L159.707 232.91L75.7383 221.917L142.41 262.451L98.7707 305.653L41.7292 247.466L67.7617 323.105L15.1643 338.146L-12.0282 157.723Z" fill="#ADFC03"/>
<path d="M-8.35035 196.43L169.05 146.099L146.364 92.4597L65.9675 119.068L123.814 66.7047L72.8196 32.4932L27.7558 100.38L39.0789 21.1922L-15.4097 16.3258L-8.35035 196.43Z" fill="#ADFC03"/>
<path d="M9.14097 155.711L-169.714 203.948L-145.363 261.893L-64.9668 235.284L-122.813 287.648L-71.8189 321.859L-26.7551 253.972L-38.0782 333.16L16.4105 338.027L9.14097 155.711Z" fill="#ADFC03"/>
<path d="M12.8181 194.418L-170.886 178.394L-158.707 121.442L-74.7382 132.435L-141.41 91.9017L-97.7706 48.6995L-40.7292 106.886L-66.7616 31.2469L-14.1642 16.2068L12.8181 194.418Z" fill="#ADFC03"/>
</svg>
