<svg width="373" height="355" viewBox="0 0 373 355" fill="none" xmlns="http://www.w3.org/2000/svg">
<path d="M359.511 170.816C359.684 171.047 359.749 171.341 359.689 171.623L346.685 233.117C346.577 233.627 346.094 233.969 345.577 233.901L266.307 223.523L328.93 261.596L329.025 261.661C329.235 261.825 329.373 262.066 329.404 262.333C329.44 262.639 329.333 262.945 329.114 263.161L285.474 306.363C285.285 306.55 285.029 306.655 284.763 306.653C284.497 306.651 284.243 306.543 284.057 306.353L230.117 251.328L254.707 322.779L254.736 322.878C254.791 323.109 254.76 323.354 254.649 323.567C254.522 323.81 254.301 323.991 254.037 324.066L201.44 339.107C201.163 339.186 200.866 339.142 200.624 338.987C200.382 338.831 200.219 338.579 200.176 338.295L172.984 157.871C172.938 157.57 173.033 157.266 173.239 157.043C173.446 156.82 173.743 156.703 174.046 156.726L358.785 170.419L358.892 170.432C359.138 170.477 359.359 170.614 359.511 170.816Z" fill="#ADFC03" stroke="black" stroke-width="2" stroke-linejoin="round"/>
<path d="M355.952 146.532C356.076 146.274 356.083 145.974 355.972 145.71L333.285 92.0702C333.082 91.5903 332.545 91.347 332.05 91.5107L256.151 116.631L310.486 67.4463C310.714 67.2397 310.834 66.9395 310.812 66.6325C310.79 66.3256 310.627 66.0463 310.372 65.8748L259.377 31.6626C259.156 31.5145 258.885 31.4604 258.624 31.5125C258.364 31.5646 258.134 31.7184 257.987 31.9399L215.374 96.1379L226.069 21.3339L226.078 21.232C226.088 20.9944 226.013 20.7599 225.864 20.5717C225.693 20.3566 225.442 20.2207 225.169 20.1962L170.68 15.3299C170.394 15.3043 170.11 15.4029 169.901 15.601C169.693 15.7992 169.58 16.0779 169.591 16.3652L176.651 196.469C176.663 196.775 176.815 197.059 177.063 197.239C177.311 197.419 177.628 197.475 177.923 197.392L355.323 147.061C355.599 146.983 355.828 146.79 355.952 146.532Z" fill="#ADFC03" stroke="black" stroke-width="2" stroke-linejoin="round"/>
<path d="M15.3875 203.509C15.2608 203.769 15.2522 204.07 15.364 204.336L39.7153 262.281C39.9175 262.762 40.4561 263.006 40.9516 262.842L116.849 237.722L62.5157 286.906L62.4352 286.989C62.2597 287.189 62.1694 287.452 62.1889 287.72C62.2111 288.027 62.3742 288.307 62.6298 288.479L113.624 322.69C113.845 322.838 114.116 322.892 114.377 322.84C114.638 322.788 114.867 322.634 115.014 322.413L157.628 258.215L146.932 333.019L146.922 333.121C146.913 333.358 146.989 333.593 147.138 333.781C147.308 333.996 147.56 334.132 147.833 334.156L202.322 339.023C202.608 339.048 202.892 338.95 203.1 338.752C203.308 338.553 203.421 338.275 203.41 337.987L196.14 155.671C196.128 155.367 195.978 155.086 195.733 154.906C195.488 154.726 195.175 154.667 194.881 154.746L16.0252 202.983L15.9234 203.016C15.6903 203.107 15.4985 203.282 15.3875 203.509Z" fill="#ADFC03" stroke="black" stroke-width="2" stroke-linejoin="round"/>
<path d="M14.3106 178.989C14.1402 178.758 14.0764 178.466 14.1361 178.185L26.316 121.233C26.425 120.724 26.907 120.383 27.4237 120.451L106.695 130.829L44.0704 92.7564C43.8074 92.5965 43.6331 92.3242 43.5971 92.0185C43.5612 91.7129 43.6678 91.4081 43.8864 91.1916L87.5262 47.9886C87.7153 47.8015 87.9714 47.6974 88.2374 47.6994C88.5033 47.7014 88.7575 47.8093 88.9437 47.9991L142.884 103.024L118.293 31.5725L118.265 31.4741C118.211 31.2425 118.241 30.9981 118.352 30.7851C118.479 30.5418 118.7 30.3611 118.964 30.2856L171.561 15.2455C171.837 15.1664 172.135 15.2098 172.377 15.3652C172.619 15.5206 172.782 15.773 172.825 16.0573L199.807 194.268C199.853 194.571 199.757 194.879 199.548 195.102C199.338 195.326 199.037 195.441 198.732 195.414L15.0276 179.391C14.7421 179.366 14.481 179.219 14.3106 178.989Z" fill="#ADFC03" stroke="black" stroke-width="2" stroke-linejoin="round"/>
<path d="M173.972 157.722L358.711 171.416L345.707 232.91L261.739 221.917L328.411 262.45L284.771 305.653L227.73 247.466L253.762 323.105L201.165 338.145L173.972 157.722Z" fill="#ADFC03"/>
<path d="M177.65 196.43L355.05 146.099L332.364 92.4597L251.968 119.068L309.815 66.7047L258.82 32.4932L213.757 100.38L225.08 21.1922L170.591 16.3258L177.65 196.43Z" fill="#ADFC03"/>
<path d="M195.141 155.711L16.2856 203.948L40.637 261.893L121.033 235.285L63.1867 287.648L114.181 321.86L159.245 253.972L147.922 333.161L202.41 338.027L195.141 155.711Z" fill="#ADFC03"/>
<path d="M198.818 194.418L15.1143 178.394L27.2936 121.442L111.262 132.435L44.5899 91.9017L88.2296 48.6995L145.271 106.886L119.239 31.2469L171.836 16.2068L198.818 194.418Z" fill="#ADFC03"/>
</svg>
