<svg width="624" height="255" viewBox="0 0 624 255" fill="none" xmlns="http://www.w3.org/2000/svg">
<path d="M515.562 12.5527C519.919 21.2665 523.873 30.1419 527.423 39.1787C530.964 48.1923 534.425 57.206 537.805 66.2197H537.804C541.339 75.2197 544.876 84.2996 548.411 93.46L549.808 96.8242C552.494 103.231 555.305 109.555 558.238 115.797C558.076 101.607 558.502 87.0259 559.52 72.0537C560.647 55.4589 562.34 39.8258 564.597 25.1553L564.729 24.291L565.604 24.3066C574.154 24.468 583.345 24.952 593.176 25.7578H593.175C603.125 26.3995 612.348 26.7197 620.845 26.7197C621.211 26.7197 621.553 26.8512 621.826 27.0938C622.078 27.3179 622.229 27.5984 622.324 27.8516C622.504 28.33 622.564 28.9355 622.567 29.5898C622.733 30.9913 622.64 32.7522 622.32 34.8408C622.155 36.8056 621.829 39.0799 621.346 41.6592C620.867 44.2134 620.468 46.7677 620.148 49.3213L620.146 49.3311L620.146 49.3418C616.767 72.3476 613.388 95.1929 610.01 117.877C606.635 140.534 604.145 163.432 602.538 186.572L602.478 187.435L601.617 187.5C597.493 187.817 592.391 188.614 586.302 189.896L586.301 189.895C580.311 191.189 574.319 192.08 568.326 192.566C562.471 193.215 557.154 193.138 552.384 192.315C547.451 191.465 544.055 189.031 542.453 184.938L542.449 184.928L542.445 184.917C537.142 170.454 531.518 156.232 525.572 142.252C520.091 129.364 514.061 116.613 507.486 103.997C506.88 114.186 506.371 124.326 505.962 134.417L505.773 139.244C505.291 151.953 504.808 164.823 504.325 177.854L504.308 178.345L503.907 178.63C502.605 179.56 500.421 180.317 497.51 180.964C494.603 181.61 491.456 182.255 488.069 182.9L488.05 182.904L488.03 182.907C484.815 183.389 481.681 183.872 478.627 184.354L478.604 184.357L478.581 184.36C475.686 184.682 473.601 184.923 472.321 185.083L472.296 185.085C470.74 185.241 468.933 185.554 466.871 186.03C464.738 186.522 462.68 186.852 460.697 187.018C458.686 187.185 456.747 187.102 454.885 186.764L454.83 186.753L454.776 186.737C452.907 186.177 451.541 185.022 450.771 183.29V183.289C449.598 180.767 448.535 177.06 447.567 172.221C446.599 167.378 445.632 161.895 444.665 155.771C443.698 149.645 442.811 143.197 442.005 136.429L442.003 136.405C441.36 129.652 440.716 123.22 440.073 117.11V117.107C439.43 110.832 438.866 105.199 438.383 100.21L438.382 100.194L438.381 100.178C438.06 95.2086 437.819 91.4367 437.658 88.8623C437.497 87.0926 437.256 84.4385 436.935 80.8994L436.933 80.876L436.932 80.8525C436.771 77.1643 436.53 73.1524 436.209 68.8174C435.886 64.4589 435.645 59.8598 435.483 55.0215C435.323 50.1964 435.162 45.6127 435.001 41.2705L435 41.252V41.2334C435 36.8782 435.08 33.0004 435.242 29.6025C435.404 26.0456 435.73 23.3024 436.242 21.4238L436.416 20.7852L437.072 20.6963C450.106 18.9263 462.979 17.2371 475.691 15.6279L475.692 15.627C488.583 14.0156 501.555 12.8076 514.606 12.002L515.267 11.9609L515.562 12.5527Z" fill="#F3D038" stroke="black" stroke-width="2"/>
<path d="M410.688 61.1514C409.1 71.536 407.817 82.5348 406.839 94.1484C405.86 105.773 405.065 117.213 404.453 128.47C403.918 138.323 403.476 147.754 403.128 156.763L402.984 160.598C402.617 170.639 402.31 179.332 402.065 186.679L402.063 186.678C402.051 187.126 401.773 187.4 401.677 187.487C401.546 187.606 401.401 187.691 401.289 187.75C401.056 187.872 400.754 187.987 400.418 188.1C399.732 188.328 398.733 188.596 397.44 188.904L397.439 188.903C394.954 189.524 391.805 190.142 388 190.756L387.999 190.755C384.306 191.37 380.249 191.923 375.829 192.414L375.83 192.415C371.521 192.908 367.452 193.216 363.625 193.34H363.593C362.738 193.34 362.096 192.749 361.65 192.167C361.175 191.545 360.722 190.67 360.28 189.598L360.271 189.574L360.263 189.55C359.516 187.435 358.773 184.958 358.033 182.122L358.021 182.073C357.41 179.137 356.798 176.262 356.187 173.448L356.182 173.425L356.178 173.4C355.689 170.465 355.321 168.264 355.076 166.794C354.579 163.935 354.087 159.738 353.597 154.221L353.596 154.219C353.106 148.586 352.556 142.342 351.943 135.484L351.941 135.467C351.451 128.607 350.962 121.502 350.472 114.153V114.152C349.981 106.675 349.613 99.7465 349.368 93.3682C349.123 86.9919 349 81.4678 349 76.7979C349 74.4566 349.061 72.4987 349.187 70.9316C349.31 69.3829 349.502 68.1508 349.786 67.2969L349.983 66.7061L350.601 66.6221C360.523 65.2746 370.323 63.9887 380 62.7637L380.002 62.7627C389.82 61.5355 399.699 60.6155 409.639 60.002L410.876 59.9258L410.688 61.1514Z" fill="#F3D038" stroke="black" stroke-width="2"/>
<path d="M254.488 50.7852C262.231 49.0619 270.158 48.5879 278.267 49.3584L278.268 49.3574C286.643 50.0222 294.498 51.9509 301.826 55.1484H301.825C309.16 58.2179 315.505 62.5578 320.85 68.167C326.356 73.8076 330.243 80.6527 332.518 88.6797L332.708 89.3486L332.146 89.7598C328.737 92.2503 325.858 94.4104 323.505 96.2402L323.491 96.251L323.477 96.2617C321.094 97.9826 318.709 99.5721 316.323 101.03C314.083 102.479 311.713 103.928 309.214 105.375C306.691 106.835 303.648 108.423 300.088 110.137L299.338 110.498L298.847 109.825C296.448 106.543 293.493 104.095 289.978 102.463C286.434 100.818 282.704 99.9951 278.779 99.9951C274.992 99.9952 271.123 100.814 267.165 102.473L266.456 102.791C262.936 104.432 259.741 106.802 256.868 109.914L256.867 109.913C252.783 114.381 250.394 119.191 249.64 124.347C249.005 129.451 249.453 134.35 250.979 139.057C252.513 143.784 254.873 147.994 258.061 151.695C261.389 155.277 264.876 157.801 268.515 159.31C272.11 160.67 275.606 160.787 279.043 159.688C282.086 158.597 284.748 155.915 286.951 151.399C286.802 151.397 286.638 151.394 286.46 151.394H286.414L286.369 151.389C284.99 151.263 283.471 151.263 281.811 151.391L281.771 151.394H275.771L275.715 151.387C274.57 151.26 273.425 151.196 272.281 151.196H272.219L272.157 151.188C271.116 151.058 270.378 150.999 269.918 150.999H268.918V149.999C268.918 149.501 268.853 147.758 268.722 144.726L268.721 144.704V144.683C268.721 141.677 268.655 138.473 268.524 135.071V125.558L268.525 125.535C268.591 124.084 268.675 122.965 268.779 122.196C268.831 121.82 268.893 121.48 268.978 121.216C269.017 121.09 269.082 120.915 269.193 120.752C269.276 120.63 269.52 120.323 269.954 120.26C271.892 119.852 275.432 119.525 280.501 119.265C285.632 119.002 291.155 118.804 297.071 118.673C303.124 118.41 308.981 118.344 314.644 118.476H314.643C320.281 118.476 324.624 118.542 327.661 118.674H327.672L327.684 118.675C329.888 118.822 331.575 119.735 332.434 121.557C333.308 123.16 333.795 125.083 333.933 127.29C334.068 129.456 333.999 131.81 333.731 134.35V134.355C333.472 136.689 333.344 138.818 333.344 140.744V140.757C333.211 150.607 331.145 159.554 327.133 167.579C323.137 175.571 317.87 182.373 311.332 187.978C304.931 193.577 297.598 197.775 289.341 200.572L289.34 200.571C281.216 203.367 272.951 204.568 264.553 204.168V204.167C256.14 203.766 247.998 201.63 240.135 197.766L240.122 197.76C232.22 193.742 225.344 187.724 219.486 179.736V179.735C213.915 172.173 209.6 164.012 206.548 155.252C203.69 147.052 201.937 138.845 201.291 130.632L201.177 128.988C200.646 120.103 201.309 111.476 203.168 103.11L203.171 103.1C205.164 94.5957 208.357 86.8758 212.753 79.9482C217.152 72.8854 222.75 66.8219 229.541 61.7617C236.36 56.6806 244.433 53.0837 253.739 50.9561L254.488 50.7852Z" fill="#F3D038" stroke="black" stroke-width="2"/>
<path d="M149.734 39.0664C154.832 38.7665 159.994 39.4799 165.212 41.1943L165.217 41.1963C165.624 41.3322 165.848 41.6435 165.952 41.9033C166.047 42.1399 166.064 42.378 166.064 42.5557C166.064 42.9179 165.985 43.3511 165.87 43.8105L165.868 43.8203L165.865 43.8311C165.636 44.6712 165.297 45.6831 164.855 46.8613C164.485 48.0418 164.045 49.2916 163.533 50.6084C163.246 51.4222 162.993 52.1562 162.77 52.8096C166.53 54.1927 170.19 56.0482 173.748 58.373C177.744 60.8608 180.889 64.0386 183.165 67.9053L183.552 68.5723C185.443 71.9193 186.708 75.5002 187.343 79.3096H187.342C188.088 83.3473 188.2 87.4228 187.677 91.5322C187.155 95.6321 186.111 99.6197 184.547 103.493C182.979 107.374 180.925 110.924 178.383 114.139C175.915 117.351 173.035 120.118 169.745 122.437L169.741 122.439C166.492 124.706 162.901 126.256 158.977 127.086L158.976 127.085C153.015 128.424 147.084 128.575 141.189 127.53L141.188 127.529C135.372 126.486 130.033 124.433 125.177 121.37L125.171 121.366C120.38 118.297 116.376 114.329 113.163 109.473C110.029 104.736 108.105 99.3043 107.377 93.1992L107.311 92.6055C106.716 86.9612 106.975 81.5271 108.093 76.3086L108.096 76.2949C109.284 71.0948 111.144 66.294 113.678 61.8975L113.685 61.8867C116.287 57.4996 119.413 53.6276 123.063 50.2754L123.07 50.2686C126.8 46.9116 130.91 44.2952 135.396 42.4258C139.953 40.4847 144.734 39.365 149.733 39.0664H149.734ZM148.383 70.7852C146.725 70.8618 145.105 71.487 143.505 72.7139L143.501 72.7168C141.513 74.2248 139.892 76.1849 138.641 78.6172L138.636 78.6279C137.389 80.9822 136.659 83.5482 136.45 86.3359C136.246 89.055 136.822 91.4229 138.15 93.4844L138.424 93.8887C139.809 95.8685 141.435 97.2348 143.291 98.04C145.4 98.9232 147.44 99.2162 149.427 98.9541C151.42 98.6187 153.259 97.7552 154.952 96.333L154.959 96.3262L154.967 96.3203C156.677 94.9392 157.887 93.0159 158.57 90.4883C158.964 88.9756 158.916 87.6583 158.488 86.4971C158.036 85.2683 157.288 84.1565 156.225 83.1592L156.202 83.1367C155.187 82.1214 153.957 81.23 152.504 80.4688C151.03 79.6969 149.524 79.0657 147.985 78.5742C147.732 78.509 147.494 78.3768 147.302 78.1699C147.099 77.9513 146.991 77.6978 146.935 77.4717C146.828 77.0448 146.867 76.5661 146.948 76.1201C147.097 75.2269 147.283 74.2994 147.505 73.3379L147.514 73.3027L147.524 73.2686C147.808 72.3473 148.094 71.5186 148.383 70.7852Z" fill="#F3D038" stroke="black" stroke-width="2"/>
<path d="M19.6836 2.89062C34.46 0.749148 49.2379 0.427947 64.0156 1.92578L64.0166 1.9248C78.9941 3.20859 93.652 5.88344 107.989 9.94922L108.907 10.209L108.69 11.1387C105.709 23.9154 102.728 37.3324 99.7461 51.3887C96.7679 65.4289 94.1072 79.8955 91.7666 94.7891C89.6382 109.475 87.8298 124.375 86.3398 139.488C85.1052 153.896 84.47 168.104 84.4307 182.111C94.3043 178.873 104.761 176.025 115.801 173.571C127.29 170.805 138.353 167.933 148.989 164.955C150.502 164.523 151.796 164.218 152.863 164.05C153.863 163.892 154.745 163.841 155.441 163.962C156.285 163.985 157.042 164.293 157.607 164.938C158.149 165.557 158.43 166.392 158.555 167.316C159.013 168.983 159.103 171.446 158.892 174.612L158.891 174.617C158.68 177.566 158.574 181.481 158.574 186.371V214.815C158.786 221.603 158.787 226.734 158.573 230.186C158.572 231.913 158.464 233.382 158.236 234.578C158.013 235.749 157.658 236.75 157.095 237.467L157.096 237.468C156.234 238.617 154.654 239.322 152.677 239.762L152.667 239.764L152.656 239.766C133.441 243.609 113.588 246.384 93.0977 248.092C72.6452 250.009 52.7247 251.82 33.3369 253.524L33.3359 253.523C29.1321 253.963 25.4947 253.306 22.498 251.462C19.5895 249.672 17.1415 247.217 15.1504 244.12L15.1445 244.112L15.1396 244.104C13.3765 241.238 11.9581 237.846 10.873 233.939C9.79896 230.073 8.93954 226.1 8.29492 222.022C5.09068 204.079 2.95586 184.754 1.88867 164.051C0.821778 143.353 0.715696 122.974 1.56934 102.913C2.42302 82.8516 4.23684 64.169 7.01367 46.8672L7.01562 46.8574L7.29883 45.2246C10.2551 28.4377 14.1206 14.5161 18.9092 3.48145L19.1309 2.9707L19.6836 2.89062Z" fill="#F3D038" stroke="black" stroke-width="2"/>
<path d="M360.5 12C365.149 12 369.5 14.9556 372.738 20.0312C375.969 25.0955 378 32.1531 378 40C378 47.8469 375.969 54.9045 372.738 59.9688C369.5 65.0444 365.149 68 360.5 68C355.851 68 351.5 65.0444 348.262 59.9688C345.031 54.9045 343 47.8469 343 40C343 32.1531 345.031 25.0955 348.262 20.0312C351.5 14.9556 355.851 12 360.5 12Z" fill="white" stroke="black" stroke-width="2"/>
<path d="M360.5 37C362.939 37 365.29 38.5551 367.081 41.3691C368.864 44.1715 370 48.1045 370 52.5C370 56.8955 368.864 60.8285 367.081 63.6309C365.29 66.4449 362.939 68 360.5 68C358.061 68 355.71 66.4449 353.919 63.6309C352.136 60.8285 351 56.8955 351 52.5C351 48.1045 352.136 44.1715 353.919 41.3691C355.71 38.5551 358.061 37 360.5 37Z" fill="black" stroke="black" stroke-width="2"/>
<path d="M399.5 12C404.149 12 408.5 14.9556 411.738 20.0312C414.969 25.0955 417 32.1531 417 40C417 47.8469 414.969 54.9045 411.738 59.9688C408.5 65.0444 404.149 68 399.5 68C394.851 68 390.5 65.0444 387.262 59.9688C384.031 54.9045 382 47.8469 382 40C382 32.1531 384.031 25.0955 387.262 20.0312C390.5 14.9556 394.851 12 399.5 12Z" fill="white" stroke="black" stroke-width="2"/>
<path d="M399.5 37C401.939 37 404.29 38.5551 406.081 41.3691C407.864 44.1715 409 48.1045 409 52.5C409 56.8955 407.864 60.8285 406.081 63.6309C404.29 66.4449 401.939 68 399.5 68C397.061 68 394.71 66.4449 392.919 63.6309C391.136 60.8285 390 56.8955 390 52.5C390 48.1045 391.136 44.1715 392.919 41.3691C394.71 38.5551 397.061 37 399.5 37Z" fill="black" stroke="black" stroke-width="2"/>
</svg>
