<svg width="1920" height="669" viewBox="0 0 1920 669" fill="none" xmlns="http://www.w3.org/2000/svg">
<path d="M0 84.4903V669H1920V36.1217C1899.5 -5.85434 1823.5 -17.8545 1759.81 36.1217C1675.5 125.646 1819.5 223.187 1775 264.645C1730.5 306.104 1678 288.646 1664.15 257.236C1648.83 222.49 1651 165.646 1577.38 134.115C1523.55 111.059 1415.5 120.085 1415.5 246.646C1415.5 325.055 1287.03 362.178 1233 292.646C1175.5 218.646 1258 160.646 1148.64 111.059C1089.4 84.2001 995.5 156.146 1033.5 257.236C1056.47 318.35 984.543 336.646 911.5 326.334C754.74 304.203 978.549 175.701 865.5 69.1456C717.5 -70.3543 576.105 127.228 629.5 210.146C682.895 293.063 619.5 399.146 519.5 336.646C443.16 288.933 542 118.146 401.5 107.146C321.776 100.904 291.818 191.646 322.596 260.376C342.174 304.097 316.749 326.334 285 326.334C253.251 326.334 201.344 330.103 240.278 201.957C279.212 73.8115 101.5 -14.8543 0 84.4903Z" fill="#0212EE"/>
</svg>
