<svg width="357" height="376" viewBox="0 0 357 376" fill="none" xmlns="http://www.w3.org/2000/svg">
<g filter="url(#filter0_d_289_2823)">
<path d="M350.187 205.235C350.325 205.478 350.357 205.768 350.272 206.034L329.141 272.768C328.977 273.288 328.426 273.579 327.904 273.425L250.505 250.512L307.773 302.216L307.848 302.292C308.014 302.477 308.105 302.719 308.102 302.97C308.099 303.257 307.971 303.53 307.753 303.717L258.761 345.709C258.544 345.896 258.256 345.98 257.973 345.941C257.69 345.902 257.437 345.743 257.278 345.505L211.295 276.507L226.062 359.843L226.074 359.941C226.091 360.171 226.029 360.402 225.895 360.593C225.742 360.81 225.509 360.958 225.247 361.003L171.173 370.319C170.885 370.369 170.589 370.29 170.364 370.103C170.139 369.915 170.007 369.64 170.003 369.347L167.331 164.286C167.327 163.979 167.463 163.688 167.702 163.495C167.941 163.302 168.254 163.229 168.553 163.298L349.542 204.757L349.642 204.786C349.871 204.864 350.065 205.023 350.187 205.235Z" fill="#56396F" stroke="black" stroke-width="2" stroke-linejoin="round"/>
<path d="M349.932 177.529C350.084 177.298 350.133 177.014 350.068 176.744L334.822 113.71C334.694 113.181 334.167 112.852 333.636 112.969L254.799 130.3L315.61 82.8147L315.691 82.7443C315.869 82.5711 315.978 82.3365 315.993 82.0857C316.01 81.7989 315.902 81.518 315.698 81.3159L269.827 35.9346C269.623 35.7333 269.343 35.6284 269.057 35.6472C268.772 35.666 268.508 35.8067 268.333 36.0327L217.544 101.574L238.22 19.5038L238.239 19.4067C238.273 19.1784 238.227 18.944 238.107 18.7444C237.97 18.5165 237.748 18.3523 237.49 18.2885L184.218 5.1381C183.934 5.06799 183.634 5.12497 183.396 5.29536C183.158 5.46571 183.007 5.73188 182.982 6.02324L165.774 207.874C165.748 208.183 165.865 208.486 166.092 208.696C166.32 208.905 166.632 208.998 166.938 208.946L349.263 177.965C349.537 177.919 349.779 177.76 349.932 177.529Z" fill="#56396F" stroke="black" stroke-width="2" stroke-linejoin="round"/>
<path d="M5.2338 192.913C5.07823 193.145 5.02624 193.432 5.09124 193.703L21.4069 261.775C21.534 262.305 22.0619 262.635 22.594 262.518L101.431 245.187L40.6198 292.672L40.5391 292.743C40.3607 292.916 40.2519 293.151 40.2371 293.401C40.2203 293.688 40.3279 293.969 40.5321 294.171L86.4032 339.553C86.6066 339.754 86.8871 339.859 87.1727 339.84C87.4581 339.821 87.7216 339.68 87.8969 339.454L138.686 273.913L118.011 355.983L117.991 356.08C117.958 356.309 118.003 356.543 118.123 356.743C118.26 356.971 118.482 357.135 118.74 357.199L172.012 370.349C172.296 370.419 172.596 370.361 172.834 370.191C173.072 370.02 173.224 369.754 173.248 369.463L190.545 165.115C190.571 164.81 190.456 164.509 190.232 164.3C190.007 164.091 189.7 163.995 189.396 164.042L5.91076 192.482L5.80933 192.504C5.57523 192.565 5.37006 192.71 5.2338 192.913Z" fill="#56396F" stroke="black" stroke-width="2" stroke-linejoin="round"/>
<path d="M7.46539 165.295C7.33003 165.054 7.30112 164.767 7.38523 164.503L27.0898 102.717C27.2553 102.199 27.8043 101.908 28.3259 102.062L105.725 124.975L48.4574 73.2714L48.3819 73.1954C48.2163 73.01 48.1245 72.7682 48.1276 72.517C48.1313 72.2297 48.2587 71.9572 48.4768 71.7702L97.469 29.7776C97.6863 29.5913 97.9736 29.5066 98.2571 29.5458C98.5404 29.585 98.7932 29.7441 98.9519 29.982L144.935 98.98L130.168 15.6439L130.156 15.5457C130.139 15.3156 130.201 15.085 130.335 14.8945C130.488 14.677 130.721 14.529 130.983 14.4837L185.057 5.16796C185.345 5.1183 185.641 5.19659 185.866 5.38351C186.091 5.57039 186.223 5.84668 186.227 6.13907L188.988 208.704C188.993 209.013 188.854 209.308 188.612 209.5C188.37 209.693 188.052 209.763 187.751 209.689L8.10089 165.778C7.83163 165.713 7.60099 165.537 7.46539 165.295Z" fill="#56396F" stroke="black" stroke-width="2" stroke-linejoin="round"/>
<path d="M168.33 164.273L349.319 205.732L328.188 272.466L246.565 248.304L307.102 302.958L258.11 344.95L209.475 271.975L225.077 360.017L171.003 369.334L168.33 164.273Z" fill="#56396F"/>
<path d="M166.77 207.96L349.096 176.979L333.851 113.945L250.712 132.222L314.994 82.0267L269.123 36.6454L215.406 105.965L237.25 19.2596L183.979 6.10851L166.77 207.96Z" fill="#56396F"/>
<path d="M189.549 165.031L6.06404 193.47L22.3793 261.542L105.518 243.265L41.2357 293.46L87.1067 338.842L140.824 269.522L118.98 356.227L172.251 369.379L189.549 165.031Z" fill="#56396F"/>
<path d="M187.989 208.718L8.33788 164.807L28.0421 103.021L109.665 127.183L49.1279 72.5294L98.12 30.5368L146.755 103.512L131.153 15.4695L185.227 6.15301L187.989 208.718Z" fill="#56396F"/>
</g>
<defs>
<filter id="filter0_d_289_2823" x="0.0639648" y="4.10852" width="351.255" height="371.27" filterUnits="userSpaceOnUse" color-interpolation-filters="sRGB">
<feFlood flood-opacity="0" result="BackgroundImageFix"/>
<feColorMatrix in="SourceAlpha" type="matrix" values="0 0 0 0 0 0 0 0 0 0 0 0 0 0 0 0 0 0 127 0" result="hardAlpha"/>
<feOffset dx="-4" dy="4"/>
<feComposite in2="hardAlpha" operator="out"/>
<feColorMatrix type="matrix" values="0 0 0 0 0 0 0 0 0 0 0 0 0 0 0 0 0 0 0.25 0"/>
<feBlend mode="normal" in2="BackgroundImageFix" result="effect1_dropShadow_289_2823"/>
<feBlend mode="normal" in="SourceGraphic" in2="effect1_dropShadow_289_2823" result="shape"/>
</filter>
</defs>
</svg>
