<svg width="168" height="376" viewBox="0 0 168 376" fill="none" xmlns="http://www.w3.org/2000/svg">
<path d="M-20.6698 164.273L160.319 205.732L139.188 272.466L57.5649 248.304L118.102 302.958L69.11 344.95L20.4753 271.975L36.0772 360.017L-17.9967 369.334L-20.6698 164.273Z" fill="#56396F"/>
<path d="M-22.2302 207.96L160.096 176.979L144.851 113.945L61.7117 132.222L125.994 82.0267L80.1234 36.6454L26.4057 105.965L48.2499 19.2596L-5.02136 6.1085L-22.2302 207.96Z" fill="#56396F"/>
<path d="M0.549461 165.031L-182.936 193.47L-166.621 261.542L-83.4817 243.265L-147.764 293.46L-101.893 338.842L-48.1757 269.522L-70.0198 356.227L-16.7486 369.379L0.549461 165.031Z" fill="#56396F"/>
<path d="M-1.01101 208.718L-180.662 164.807L-160.958 103.021L-79.3349 127.183L-139.872 72.5295L-90.88 30.5369L-42.2453 103.512L-57.8472 15.4696L-3.77334 6.15309L-1.01101 208.718Z" fill="#56396F"/>
</svg>
