<svg width="357" height="376" viewBox="0 0 357 376" fill="none" xmlns="http://www.w3.org/2000/svg">
<path d="M350.187 205.235C350.325 205.478 350.357 205.768 350.272 206.034L329.141 272.768C328.977 273.288 328.426 273.579 327.904 273.425L250.505 250.512L307.773 302.216L307.848 302.292C308.014 302.477 308.105 302.719 308.102 302.97C308.099 303.257 307.971 303.53 307.753 303.717L258.761 345.71C258.544 345.896 258.256 345.981 257.973 345.941C257.69 345.902 257.437 345.743 257.278 345.505L211.295 276.507L226.062 359.843L226.074 359.941C226.091 360.172 226.029 360.402 225.895 360.593C225.742 360.81 225.509 360.958 225.247 361.003L171.173 370.319C170.885 370.369 170.589 370.29 170.364 370.103C170.139 369.916 170.007 369.64 170.003 369.347L167.331 164.286C167.327 163.979 167.463 163.688 167.702 163.495C167.941 163.302 168.254 163.229 168.553 163.298L349.542 204.757L349.642 204.786C349.871 204.864 350.065 205.023 350.187 205.235Z" fill="#FD039D" stroke="black" stroke-width="2" stroke-linejoin="round"/>
<path d="M349.932 177.529C350.084 177.298 350.133 177.014 350.068 176.744L334.822 113.71C334.694 113.181 334.167 112.852 333.636 112.969L254.799 130.3L315.61 82.8148L315.691 82.7444C315.869 82.5712 315.978 82.3366 315.993 82.0858C316.01 81.799 315.902 81.5182 315.698 81.316L269.827 35.9347C269.623 35.7334 269.343 35.6285 269.057 35.6473C268.772 35.6661 268.508 35.8068 268.333 36.0328L217.544 101.574L238.22 19.5039L238.239 19.4068C238.273 19.1785 238.227 18.9441 238.107 18.7445C237.97 18.5167 237.748 18.3524 237.49 18.2886L184.218 5.13822C183.934 5.06812 183.634 5.12509 183.396 5.29548C183.158 5.46583 183.007 5.73201 182.982 6.02336L165.774 207.875C165.748 208.183 165.865 208.487 166.092 208.696C166.32 208.906 166.632 208.998 166.938 208.946L349.263 177.966C349.537 177.919 349.779 177.761 349.932 177.529Z" fill="#FD039D" stroke="black" stroke-width="2" stroke-linejoin="round"/>
<path d="M5.23392 192.913C5.07835 193.145 5.02636 193.432 5.09136 193.703L21.407 261.776C21.5342 262.305 22.062 262.636 22.5941 262.519L101.431 245.187L40.62 292.673L40.5393 292.743C40.3609 292.916 40.252 293.151 40.2372 293.401C40.2204 293.688 40.328 293.969 40.5322 294.171L86.4033 339.553C86.6068 339.754 86.8872 339.859 87.1728 339.84C87.4582 339.821 87.7218 339.681 87.897 339.455L138.686 273.913L118.011 355.983L117.992 356.08C117.958 356.309 118.003 356.543 118.123 356.743C118.26 356.971 118.482 357.135 118.74 357.199L172.012 370.349C172.296 370.419 172.597 370.361 172.834 370.191C173.072 370.02 173.224 369.755 173.248 369.463L190.546 165.115C190.571 164.81 190.456 164.509 190.232 164.3C190.007 164.091 189.7 163.995 189.397 164.042L5.91088 192.482L5.80945 192.504C5.57535 192.565 5.37018 192.71 5.23392 192.913Z" fill="#FD039D" stroke="black" stroke-width="2" stroke-linejoin="round"/>
<path d="M7.46563 165.295C7.33027 165.054 7.30137 164.767 7.38547 164.503L27.0901 102.717C27.2555 102.199 27.8045 101.908 28.3261 102.062L105.725 124.975L48.4576 73.2713L48.3821 73.1953C48.2165 73.0099 48.1248 72.768 48.1279 72.5169C48.1316 72.2296 48.2589 71.9571 48.477 71.7701L97.4693 29.7774C97.6866 29.5912 97.9738 29.5065 98.2573 29.5457C98.5406 29.5848 98.7935 29.7439 98.9522 29.9819L144.935 98.9799L130.168 15.6438L130.156 15.5456C130.139 15.3154 130.201 15.0849 130.335 14.8943C130.488 14.6769 130.721 14.5288 130.983 14.4836L185.057 5.16784C185.345 5.11818 185.641 5.19647 185.866 5.38339C186.091 5.57027 186.223 5.84656 186.227 6.13895L188.989 208.704C188.993 209.013 188.854 209.308 188.612 209.5C188.37 209.693 188.052 209.763 187.752 209.689L8.10114 165.778C7.83187 165.712 7.60123 165.537 7.46563 165.295Z" fill="#FD039D" stroke="black" stroke-width="2" stroke-linejoin="round"/>
<path d="M168.33 164.273L349.319 205.732L328.188 272.466L246.565 248.304L307.102 302.958L258.11 344.95L209.475 271.975L225.077 360.018L171.003 369.334L168.33 164.273Z" fill="#FD039D"/>
<path d="M166.77 207.96L349.096 176.979L333.851 113.945L250.712 132.222L314.994 82.0268L269.123 36.6456L215.406 105.965L237.25 19.2597L183.979 6.10863L166.77 207.96Z" fill="#FD039D"/>
<path d="M189.55 165.031L6.06416 193.471L22.3794 261.542L105.518 243.266L41.2359 293.46L87.1068 338.842L140.824 269.523L118.98 356.228L172.252 369.379L189.55 165.031Z" fill="#FD039D"/>
<path d="M187.989 208.718L8.33813 164.806L28.0423 103.021L109.665 127.183L49.1282 72.5293L98.1203 30.5367L146.755 103.512L131.153 15.4694L185.227 6.15289L187.989 208.718Z" fill="#FD039D"/>
</svg>
