<svg width="167" height="376" viewBox="0 0 167 376" fill="none" xmlns="http://www.w3.org/2000/svg">
<path d="M350.187 205.235C350.325 205.478 350.357 205.767 350.273 206.034L329.141 272.768C328.977 273.287 328.427 273.579 327.904 273.425L250.505 250.512L307.773 302.215L307.848 302.291C308.014 302.477 308.106 302.719 308.103 302.97C308.099 303.257 307.972 303.53 307.753 303.717L258.761 345.709C258.544 345.896 258.257 345.98 257.973 345.941C257.69 345.902 257.437 345.743 257.278 345.505L211.295 276.507L226.062 359.843L226.074 359.941C226.092 360.171 226.029 360.402 225.895 360.592C225.743 360.81 225.51 360.958 225.248 361.003L171.174 370.319C170.885 370.369 170.589 370.289 170.364 370.102C170.139 369.915 170.007 369.639 170.003 369.347L167.331 164.286C167.327 163.979 167.464 163.688 167.702 163.495C167.941 163.302 168.255 163.229 168.554 163.298L349.542 204.757L349.642 204.786C349.871 204.864 350.065 205.023 350.187 205.235Z" fill="#FD039D" stroke="black" stroke-width="2" stroke-linejoin="round"/>
<path d="M349.931 177.529C350.084 177.298 350.133 177.013 350.068 176.744L334.822 113.71C334.694 113.181 334.167 112.852 333.636 112.969L254.799 130.3L315.61 82.8146L315.691 82.7442C315.869 82.571 315.978 82.3364 315.993 82.0856C316.01 81.7988 315.902 81.5179 315.698 81.3158L269.827 35.9345C269.623 35.7332 269.343 35.6282 269.057 35.647C268.772 35.6659 268.508 35.8066 268.333 36.0326L217.544 101.574L238.219 19.5036L238.238 19.4066C238.272 19.1783 238.227 18.9439 238.107 18.7443C237.97 18.5164 237.748 18.3521 237.49 18.2883L184.218 5.13798C183.934 5.06787 183.633 5.12485 183.396 5.29524C183.158 5.46559 183.007 5.73176 182.982 6.02311L165.774 207.874C165.747 208.183 165.865 208.486 166.092 208.696C166.32 208.905 166.632 208.998 166.937 208.946L349.263 177.965C349.536 177.919 349.779 177.76 349.931 177.529Z" fill="#FD039D" stroke="black" stroke-width="2" stroke-linejoin="round"/>
<path d="M5.2338 192.913C5.07823 193.145 5.02624 193.432 5.09124 193.703L21.4069 261.775C21.534 262.305 22.0619 262.635 22.594 262.518L101.431 245.187L40.6198 292.672L40.5391 292.743C40.3607 292.916 40.2519 293.15 40.2371 293.401C40.2203 293.688 40.3279 293.969 40.5321 294.171L86.4032 339.552C86.6066 339.754 86.8871 339.859 87.1727 339.84C87.4581 339.821 87.7216 339.68 87.8969 339.454L138.686 273.913L118.011 355.983L117.991 356.08C117.958 356.309 118.003 356.543 118.123 356.743C118.26 356.97 118.482 357.135 118.74 357.199L172.012 370.349C172.296 370.419 172.596 370.361 172.834 370.191C173.072 370.02 173.224 369.754 173.248 369.463L190.545 165.115C190.571 164.809 190.456 164.509 190.232 164.3C190.007 164.09 189.7 163.995 189.396 164.042L5.91076 192.482L5.80933 192.503C5.57523 192.565 5.37006 192.71 5.2338 192.913Z" fill="#FD039D" stroke="black" stroke-width="2" stroke-linejoin="round"/>
<path d="M7.46563 165.296C7.33027 165.054 7.30137 164.767 7.38547 164.503L27.0901 102.717C27.2555 102.199 27.8045 101.908 28.3261 102.062L105.725 124.975L48.4576 73.2715L48.3821 73.1956C48.2165 73.0101 48.1248 72.7683 48.1279 72.5171C48.1316 72.2298 48.2589 71.9574 48.477 71.7703L97.4693 29.7777C97.6866 29.5914 97.9738 29.5068 98.2573 29.5459C98.5406 29.5851 98.7935 29.7442 98.9522 29.9821L144.935 98.9801L130.168 15.644L130.156 15.5459C130.139 15.3157 130.201 15.0851 130.335 14.8946C130.488 14.6771 130.721 14.5291 130.983 14.4839L185.057 5.16809C185.345 5.11842 185.641 5.19671 185.866 5.38364C186.091 5.57051 186.223 5.8468 186.227 6.13919L188.989 208.704C188.993 209.013 188.854 209.308 188.612 209.5C188.37 209.693 188.052 209.763 187.752 209.69L8.10114 165.778C7.83187 165.713 7.60123 165.537 7.46563 165.296Z" fill="#FD039D" stroke="black" stroke-width="2" stroke-linejoin="round"/>
<path d="M168.33 164.273L349.319 205.732L328.188 272.466L246.565 248.304L307.102 302.957L258.11 344.95L209.476 271.975L225.077 360.017L171.004 369.334L168.33 164.273Z" fill="#FD039D"/>
<path d="M166.77 207.96L349.096 176.979L333.851 113.945L250.711 132.222L314.994 82.0266L269.123 36.6453L215.406 105.965L237.25 19.2595L183.978 6.10839L166.77 207.96Z" fill="#FD039D"/>
<path d="M189.549 165.031L6.06404 193.47L22.3793 261.542L105.518 243.265L41.2357 293.46L87.1067 338.841L140.824 269.522L118.98 356.227L172.251 369.378L189.549 165.031Z" fill="#FD039D"/>
<path d="M187.989 208.718L8.33813 164.807L28.0423 103.021L109.665 127.183L49.1282 72.5295L98.1203 30.5369L146.755 103.512L131.153 15.4696L185.227 6.15313L187.989 208.718Z" fill="#FD039D"/>
</svg>
