<svg width="1920" height="4666" viewBox="0 0 1920 4666" fill="none" xmlns="http://www.w3.org/2000/svg">
<line x1="159.75" y1="4666" x2="159.75" y2="5" stroke="white" stroke-width="0.5"/>
<line x1="319.75" y1="4666" x2="319.75" y2="5" stroke="white" stroke-width="0.5"/>
<line x1="479.75" y1="4666" x2="479.75" y2="5" stroke="white" stroke-width="0.5"/>
<line x1="639.75" y1="4666" x2="639.75" y2="5" stroke="white" stroke-width="0.5"/>
<line x1="799.75" y1="4666" x2="799.75" y2="5" stroke="white" stroke-width="0.5"/>
<line x1="959.75" y1="4666" x2="959.75" y2="5" stroke="white" stroke-width="0.5"/>
<line x1="1119.75" y1="4666" x2="1119.75" y2="5" stroke="white" stroke-width="0.5"/>
<line x1="1279.75" y1="4666" x2="1279.75" y2="5" stroke="white" stroke-width="0.5"/>
<line x1="1439.75" y1="4666" x2="1439.75" y2="5" stroke="white" stroke-width="0.5"/>
<line x1="1599.75" y1="4666" x2="1599.75" y2="5" stroke="white" stroke-width="0.5"/>
<line x1="1759.75" y1="4666" x2="1759.75" y2="5" stroke="white" stroke-width="0.5"/>
<line x1="1919.75" y1="4666" x2="1919.75" y2="5" stroke="white" stroke-width="0.5"/>
<line x1="0.993896" y1="0.75" x2="1909.07" y2="0.75" stroke="white" stroke-width="0.5"/>
<line x1="0.993896" y1="160.75" x2="1909.07" y2="160.75" stroke="white" stroke-width="0.5"/>
<line x1="0.993896" y1="320.75" x2="1909.07" y2="320.75" stroke="white" stroke-width="0.5"/>
<line x1="0.993896" y1="480.75" x2="1909.07" y2="480.75" stroke="white" stroke-width="0.5"/>
<line x1="0.993896" y1="640.75" x2="1909.07" y2="640.75" stroke="white" stroke-width="0.5"/>
<line x1="0.993896" y1="800.75" x2="1909.07" y2="800.75" stroke="white" stroke-width="0.5"/>
<line x1="0.993896" y1="960.75" x2="1909.07" y2="960.75" stroke="white" stroke-width="0.5"/>
<line x1="0.993896" y1="1120.75" x2="1909.07" y2="1120.75" stroke="white" stroke-width="0.5"/>
<line y1="1280.75" x2="1908.07" y2="1280.75" stroke="white" stroke-width="0.5"/>
<line x1="0.993896" y1="1440.75" x2="1909.07" y2="1440.75" stroke="white" stroke-width="0.5"/>
<line x1="1.98755" y1="1600.75" x2="1910.06" y2="1600.75" stroke="white" stroke-width="0.5"/>
<line x1="2.98145" y1="1760.75" x2="1911.06" y2="1760.75" stroke="white" stroke-width="0.5"/>
<line x1="3.9751" y1="1920.75" x2="1912.05" y2="1920.75" stroke="white" stroke-width="0.5"/>
<line x1="4.96899" y1="2080.75" x2="1913.04" y2="2080.75" stroke="white" stroke-width="0.5"/>
<line x1="5.96265" y1="2240.75" x2="1914.04" y2="2240.75" stroke="white" stroke-width="0.5"/>
<line x1="6.95654" y1="2400.75" x2="1915.03" y2="2400.75" stroke="white" stroke-width="0.5"/>
<line x1="7.9502" y1="2560.75" x2="1916.02" y2="2560.75" stroke="white" stroke-width="0.5"/>
<line x1="8.94409" y1="2720.75" x2="1917.02" y2="2720.75" stroke="white" stroke-width="0.5"/>
<line x1="9.93799" y1="2880.75" x2="1918.01" y2="2880.75" stroke="white" stroke-width="0.5"/>
<line x1="10.9316" y1="3040.75" x2="1919.01" y2="3040.75" stroke="white" stroke-width="0.5"/>
<line x1="11.9255" y1="3200.75" x2="1920" y2="3200.75" stroke="white" stroke-width="0.5"/>
<line x1="7" y1="3355.75" x2="1915.07" y2="3355.75" stroke="white" stroke-width="0.5"/>
<line x1="-4" y1="3514.75" x2="1904.07" y2="3514.75" stroke="white" stroke-width="0.5"/>
<line x1="-4" y1="3673.75" x2="1904.07" y2="3673.75" stroke="white" stroke-width="0.5"/>
<line x1="-4" y1="3832.75" x2="1904.07" y2="3832.75" stroke="white" stroke-width="0.5"/>
<line x1="-5" y1="3991.75" x2="1903.07" y2="3991.75" stroke="white" stroke-width="0.5"/>
<line x1="-8" y1="4150.75" x2="1900.07" y2="4150.75" stroke="white" stroke-width="0.5"/>
<line x1="-12" y1="4309.75" x2="1896.07" y2="4309.75" stroke="white" stroke-width="0.5"/>
<line x1="-15" y1="4468.75" x2="1893.07" y2="4468.75" stroke="white" stroke-width="0.5"/>
<line x1="-19" y1="4627.75" x2="1889.07" y2="4627.75" stroke="white" stroke-width="0.5"/>
</svg>
