<svg width="1920" height="1419" viewBox="0 0 1920 1419" fill="none" xmlns="http://www.w3.org/2000/svg">
<line y1="159.75" x2="1920" y2="159.75" stroke="#0212EE" stroke-width="0.5"/>
<line y1="319.75" x2="1920" y2="319.75" stroke="#0212EE" stroke-width="0.5"/>
<line y1="479.75" x2="1920" y2="479.75" stroke="#0212EE" stroke-width="0.5"/>
<line y1="639.75" x2="1920" y2="639.75" stroke="#0212EE" stroke-width="0.5"/>
<line y1="799.75" x2="1920" y2="799.75" stroke="#0212EE" stroke-width="0.5"/>
<line y1="959.75" x2="1920" y2="959.75" stroke="#0212EE" stroke-width="0.5"/>
<line y1="1119.75" x2="1920" y2="1119.75" stroke="#0212EE" stroke-width="0.5"/>
<line y1="1279.75" x2="1920" y2="1279.75" stroke="#0212EE" stroke-width="0.5"/>
<line x1="159.75" y1="1419" x2="159.75" y2="-0.00012207" stroke="#0212EE" stroke-width="0.5"/>
<line x1="319.75" y1="1419" x2="319.75" y2="-0.00012207" stroke="#0212EE" stroke-width="0.5"/>
<line x1="479.75" y1="1419" x2="479.75" y2="-0.00012207" stroke="#0212EE" stroke-width="0.5"/>
<line x1="639.75" y1="1419" x2="639.75" y2="-0.00012207" stroke="#0212EE" stroke-width="0.5"/>
<line x1="799.75" y1="1419" x2="799.75" y2="-0.00012207" stroke="#0212EE" stroke-width="0.5"/>
<line x1="959.75" y1="1419" x2="959.75" y2="-0.00012207" stroke="#0212EE" stroke-width="0.5"/>
<line x1="1119.75" y1="1419" x2="1119.75" y2="-0.00012207" stroke="#0212EE" stroke-width="0.5"/>
<line x1="1279.75" y1="1419" x2="1279.75" y2="-0.00012207" stroke="#0212EE" stroke-width="0.5"/>
<line x1="1439.75" y1="1419" x2="1439.75" y2="-0.00012207" stroke="#0212EE" stroke-width="0.5"/>
<line x1="1599.75" y1="1419" x2="1599.75" y2="-0.00012207" stroke="#0212EE" stroke-width="0.5"/>
<line x1="1759.75" y1="1419" x2="1759.75" y2="-0.00012207" stroke="#0212EE" stroke-width="0.5"/>
<line x1="1919.75" y1="1419" x2="1919.75" y2="-0.00012207" stroke="#0212EE" stroke-width="0.5"/>
</svg>
