<svg width="222" height="222" viewBox="0 0 222 222" fill="none" xmlns="http://www.w3.org/2000/svg">
<circle cx="109" cy="109" r="109.991" transform="matrix(-1 0 0 1 220 2)" fill="#ADFC03" stroke="black" stroke-width="1.98182"/>
<path d="M33.9726 132.437C34.4092 131.454 34.9747 130.573 35.6692 129.796C36.3637 129.019 37.2658 128.416 38.3754 127.989C39.3074 127.63 40.2524 127.469 41.2103 127.508C42.1374 127.533 43.0271 127.726 43.8793 128.086C44.723 128.423 45.5027 128.926 46.2185 129.593C46.9257 130.238 47.5033 131.009 47.9511 131.907L52.4396 143.558L29.138 152.535L25.1112 142.082C24.8358 141.169 24.744 140.236 24.8357 139.283C24.9051 138.339 25.1351 137.448 25.5257 136.609C25.9077 135.748 26.4408 134.982 27.1251 134.311C27.8094 133.639 28.6287 133.12 29.583 132.752C30.9589 132.222 32.4221 132.117 33.9726 132.437ZM43.6114 134.535C43.3635 133.891 42.9278 133.422 42.3044 133.127C41.6503 132.818 40.9904 132.792 40.3246 133.048C39.6811 133.296 39.216 133.743 38.9295 134.389C38.643 135.034 38.6169 135.694 38.8512 136.369L41.1211 142.261L45.8813 140.427L43.6114 134.535ZM36.6272 143.992L34.8062 139.265C34.5583 138.621 34.1226 138.152 33.4992 137.857C32.8537 137.57 32.198 137.555 31.5323 137.812C30.8887 138.06 30.4348 138.502 30.1705 139.139C29.8754 139.763 29.845 140.412 30.0793 141.086L31.9004 145.813L36.6272 143.992ZM44.6515 107.097L37.0112 112.26L37.0612 116.183L44.7659 116.085L44.8339 121.436L19.8651 121.754L19.7284 111.017C19.7136 109.852 19.9254 108.743 20.3639 107.691C20.8024 106.639 21.4091 105.716 22.1838 104.921C22.9348 104.127 23.8306 103.497 24.8711 103.032C25.9114 102.543 27.0379 102.291 28.2507 102.275C29.8915 102.254 31.3949 102.651 32.761 103.466C34.1032 104.282 35.1516 105.362 35.906 106.708L44.5725 100.89L44.6515 107.097ZM32.0061 111.432C31.9998 110.932 31.8987 110.47 31.7031 110.044C31.5071 109.595 31.2406 109.218 30.9038 108.913C30.5666 108.584 30.1828 108.327 29.7524 108.142C29.2981 107.958 28.8213 107.869 28.3219 107.875C27.8226 107.882 27.3601 107.983 26.9345 108.178C26.4851 108.374 26.096 108.641 25.7673 108.978C25.4383 109.291 25.1816 109.675 24.9971 110.129C24.8123 110.56 24.7231 111.025 24.7295 111.524L24.7907 116.34L32.0674 116.247L32.0061 111.432ZM46.6072 81.7463L43.4338 90.5374L46.9328 93.2416L44.9707 98.6773L24.3901 82.1459L26.6066 76.0057L52.9889 76.4649L51.0389 81.867L46.6072 81.7463ZM41.3525 81.5941L31.5991 81.297L39.2934 87.2982L41.3525 81.5941ZM65.7157 54.9399C66.1799 57.0005 66.2214 59.0366 65.8401 61.0482C65.4746 63.042 64.5832 64.8408 63.1658 66.4447C61.969 67.7991 60.5846 68.8449 59.0127 69.5822C57.4407 70.3194 55.8077 70.7488 54.1135 70.8702C52.4351 70.9738 50.7626 70.7654 49.0962 70.2449C47.4277 69.6908 45.9074 68.8075 44.5352 67.5949C43.1809 66.398 42.135 65.0136 41.3978 63.4417C40.6605 61.8698 40.24 60.2446 40.1364 58.5662C40.015 56.872 40.2234 55.1996 40.7618 53.5489C41.298 51.8646 42.1724 50.3364 43.385 48.9643C44.7866 47.3782 46.395 46.2765 48.2102 45.659C50.0254 45.0414 51.9919 44.8274 54.1096 45.0168L53.4289 50.366C52.9014 50.2806 52.368 50.2377 51.8288 50.2373C51.2718 50.2212 50.7279 50.28 50.197 50.4139C49.6483 50.532 49.1137 50.7419 48.5932 51.0436C48.0727 51.3453 47.5841 51.7546 47.1274 52.2714C46.4187 53.0733 45.9187 53.9803 45.6274 54.9923C45.336 56.0043 45.2393 57.0296 45.3371 58.0682C45.4171 59.091 45.6974 60.0846 46.1782 61.049C46.6589 62.0133 47.3002 62.8498 48.1022 63.5585C48.9041 64.2672 49.8131 64.8008 50.8293 65.1592C51.8455 65.5177 52.8749 65.6816 53.9177 65.6509C54.9425 65.6045 55.9392 65.3745 56.9077 64.9609C57.8763 64.5473 58.7149 63.9395 59.4235 63.1376C60.2424 62.2109 60.7184 61.1875 60.8514 60.0673C60.9824 58.9135 60.8694 57.7664 60.5126 56.6259L65.7157 54.9399ZM76.8214 53.0856L72.3308 55.9953L58.752 35.0391L63.2426 32.1293L76.8214 53.0856ZM94.3074 42.1164L85.4496 45.0982L85.5078 49.5201L80.0308 51.3638L80.1781 24.9664L86.365 22.8837L102.412 43.8295L96.9689 45.6619L94.3074 42.1164ZM91.1588 37.9067L85.326 30.0839L85.4114 39.8415L91.1588 37.9067ZM122.075 24.7002L114.834 24.6043L114.57 44.5792L109.219 44.5083L109.484 24.5334L102.207 24.4369L102.273 19.4432L122.141 19.7065L122.075 24.7002ZM141.828 45.7456L140.245 50.482L125.257 45.4705L133.176 21.7885L147.96 26.732L146.377 31.4684L136.599 28.1991L135.016 32.9355L142.357 35.3904L140.773 40.1268L133.432 37.6719L131.848 42.4084L141.828 45.7456ZM194 130.828C192.655 130.659 191.394 130.201 190.218 129.453C189.041 128.706 187.943 127.813 186.924 126.773C185.925 125.761 185.007 124.674 184.17 123.514C183.33 122.378 182.578 121.312 181.912 120.318L180.816 129.025L175.861 128.401L178.165 110.102L180.784 110.432C182.177 112.309 183.395 113.961 184.438 115.387C185.502 116.839 186.434 118.095 187.236 119.154C188.034 120.238 188.735 121.141 189.34 121.864C189.964 122.614 190.548 123.215 191.09 123.667C191.629 124.142 192.148 124.495 192.647 124.726C193.169 124.959 193.736 125.114 194.35 125.192C194.656 125.23 194.972 125.198 195.297 125.095C195.645 124.995 195.967 124.82 196.262 124.569C196.554 124.343 196.809 124.027 197.028 123.623C197.244 123.243 197.384 122.793 197.45 122.274C197.604 121.047 197.406 119.956 196.855 118.999C196.304 118.043 195.575 117.364 194.667 116.962C195.254 116.293 195.799 115.678 196.301 115.118C196.72 114.644 197.113 114.19 197.479 113.757C197.869 113.326 198.119 113.058 198.228 112.952C199.077 113.442 199.793 114.036 200.377 114.733C200.981 115.456 201.458 116.235 201.808 117.07C202.155 117.929 202.377 118.832 202.474 119.779C202.594 120.729 202.593 121.687 202.471 122.655C202.349 123.622 202.08 124.619 201.663 125.645C201.243 126.695 200.67 127.629 199.944 128.449C199.241 129.271 198.394 129.908 197.403 130.358C196.408 130.832 195.274 130.989 194 130.828ZM192.332 153.607C191.589 155.044 190.578 156.221 189.299 157.139C188.042 158.068 186.634 158.719 185.076 159.091C183.539 159.474 181.926 159.563 180.238 159.359C178.539 159.176 176.886 158.669 175.281 157.838C173.655 156.996 172.266 155.929 171.114 154.637C169.983 153.355 169.13 151.977 168.554 150.501C167.979 149.025 167.708 147.506 167.74 145.943C167.773 144.379 168.155 142.89 168.887 141.475C169.63 140.039 170.636 138.846 171.905 137.895C173.183 136.977 174.591 136.327 176.128 135.944C177.686 135.572 179.315 135.477 181.014 135.661C182.702 135.865 184.349 136.382 185.954 137.213C187.581 138.055 188.959 139.116 190.09 140.398C191.242 141.69 192.106 143.074 192.681 144.55C193.245 146.047 193.511 147.577 193.479 149.14C193.447 150.703 193.064 152.192 192.332 153.607ZM173.323 143.77C172.886 144.615 172.693 145.48 172.744 146.363C172.796 147.247 173.029 148.09 173.443 148.894C173.868 149.729 174.458 150.503 175.214 151.216C175.959 151.949 176.806 152.562 177.757 153.054C178.707 153.546 179.697 153.884 180.726 154.068C181.745 154.274 182.707 154.303 183.613 154.156C184.529 154.042 185.363 153.75 186.114 153.282C186.865 152.814 187.459 152.157 187.896 151.312C188.334 150.467 188.532 149.593 188.491 148.688C188.44 147.804 188.202 146.945 187.777 146.109C187.363 145.306 186.778 144.548 186.022 143.835C185.266 143.123 184.413 142.52 183.462 142.029C182.512 141.537 181.527 141.188 180.509 140.982C179.491 140.777 178.524 140.732 177.607 140.846C176.701 140.993 175.873 141.301 175.122 141.769C174.36 142.259 173.76 142.926 173.323 143.77ZM161.435 179.78C160.521 178.779 159.857 177.613 159.446 176.282C159.034 174.951 158.777 173.559 158.674 172.106C158.569 170.688 158.574 169.266 158.689 167.84C158.785 166.43 158.903 165.131 159.04 163.942L152.563 169.863L149.193 166.176L162.806 153.733L164.587 155.682C164.432 158.015 164.29 160.062 164.16 161.823C164.029 163.619 163.925 165.18 163.849 166.506C163.755 167.848 163.704 168.991 163.695 169.933C163.685 170.909 163.74 171.745 163.86 172.44C163.963 173.152 164.129 173.757 164.36 174.255C164.606 174.771 164.937 175.258 165.355 175.714C165.563 175.942 165.824 176.122 166.138 176.254C166.468 176.404 166.827 176.479 167.214 176.479C167.584 176.496 167.982 176.421 168.411 176.255C168.821 176.105 169.22 175.854 169.606 175.501C170.519 174.666 171.075 173.707 171.276 172.621C171.476 171.536 171.36 170.546 170.929 169.652C171.81 169.523 172.623 169.408 173.369 169.307C173.995 169.217 174.589 169.126 175.148 169.033C175.724 168.958 176.088 168.915 176.24 168.905C176.569 169.829 176.73 170.745 176.722 171.654C176.714 172.596 176.572 173.499 176.298 174.362C176.006 175.241 175.59 176.072 175.05 176.856C174.526 177.657 173.904 178.387 173.184 179.045C172.464 179.703 171.613 180.287 170.631 180.799C169.631 181.326 168.589 181.667 167.505 181.82C166.436 181.991 165.379 181.927 164.332 181.627C163.267 181.344 162.302 180.728 161.435 179.78ZM137.73 171.027C138.624 170.638 139.539 170.356 140.474 170.182C141.388 170.018 142.306 169.982 143.228 170.073C144.159 170.187 145.083 170.433 146.001 170.812C146.896 171.2 147.75 171.762 148.563 172.498C148.436 172.682 148.194 173.021 147.838 173.513C147.482 174.006 147.119 174.514 146.75 175.037C146.335 175.633 145.875 176.274 145.37 176.961C145.022 176.697 144.632 176.426 144.199 176.148C143.754 175.9 143.291 175.7 142.809 175.547C142.306 175.403 141.788 175.317 141.257 175.288C140.714 175.291 140.181 175.407 139.657 175.635C139.178 175.843 138.731 176.129 138.318 176.49C137.892 176.883 137.55 177.317 137.29 177.793C137.009 178.279 136.848 178.803 136.807 179.365C136.745 179.937 136.837 180.506 137.084 181.073C137.34 181.662 137.688 182.133 138.127 182.487C138.576 182.862 139.063 183.117 139.588 183.251C140.123 183.408 140.674 183.453 141.242 183.387C141.82 183.343 142.359 183.212 142.861 182.994C143.646 182.652 144.323 182.124 144.894 181.409C145.443 180.703 145.771 179.938 145.879 179.113L151.041 179.978L154.097 191.915L140.097 198.008L138.104 193.429L147.884 189.172L147.138 186.385C146.873 186.552 146.549 186.731 146.166 186.924C145.793 187.139 145.159 187.44 144.265 187.83C143.131 188.323 141.965 188.623 140.766 188.73C139.546 188.846 138.381 188.731 137.27 188.384C136.138 188.047 135.104 187.46 134.169 186.622C133.243 185.806 132.481 184.711 131.883 183.337C131.351 182.116 131.118 180.895 131.183 179.673C131.248 178.452 131.549 177.296 132.086 176.207C132.624 175.117 133.385 174.124 134.369 173.229C135.323 172.321 136.443 171.587 137.73 171.027Z" fill="#0212EE"/>
<circle cx="52.0227" cy="52.0227" r="51.0318" transform="matrix(-1 0 0 1 162.527 57.4912)" fill="white" stroke="black" stroke-width="1.98182"/>
<path d="M134.782 138.25C131.479 136.89 130.004 134.844 129.492 132.8C128.698 129.631 130.216 126.466 130.818 125.864" stroke="black" stroke-width="1.98182" stroke-linecap="round"/>
<path d="M128.836 132.8C123.386 137.92 106.244 143.502 93.1637 132.8" stroke="black" stroke-width="1.98182" stroke-linecap="round"/>
<path d="M126.188 78.3003C122.628 78.3003 119.265 80.5634 116.743 84.5171C114.228 88.4594 112.64 93.9664 112.64 100.1C112.64 106.234 114.228 111.741 116.743 115.683C119.265 119.637 122.628 121.9 126.188 121.9C129.748 121.9 133.111 119.637 135.633 115.683C138.148 111.741 139.736 106.234 139.736 100.1C139.736 93.9664 138.148 88.4594 135.633 84.5171C133.111 80.5634 129.748 78.3003 126.188 78.3003Z" fill="white" stroke="black" stroke-width="1.98182"/>
<path d="M126.188 97.9475C124.366 97.9475 122.574 99.1099 121.189 101.286C119.812 103.451 118.927 106.502 118.927 109.923C118.927 113.345 119.811 116.396 121.189 118.561C122.574 120.737 124.366 121.9 126.188 121.9C128.01 121.9 129.802 120.737 131.187 118.561C132.565 116.396 133.449 113.345 133.449 109.923C133.449 106.502 132.564 103.451 131.187 101.286C129.802 99.1099 128.01 97.9475 126.188 97.9475Z" fill="black" stroke="black" stroke-width="1.98182"/>
<path d="M95.5381 78.3003C91.9784 78.3003 88.615 80.5634 86.0928 84.5171C83.5778 88.4594 81.9902 93.9664 81.9902 100.1C81.9903 106.234 83.5779 111.741 86.0928 115.683C88.615 119.637 91.9785 121.9 95.5381 121.9C99.0977 121.9 102.461 119.637 104.983 115.683C107.498 111.741 109.086 106.234 109.086 100.1C109.086 93.9664 107.498 88.4594 104.983 84.5171C102.461 80.5634 99.0978 78.3003 95.5381 78.3003Z" fill="white" stroke="black" stroke-width="1.98182"/>
<path d="M95.5381 97.9475C93.7157 97.9475 91.9241 99.1099 90.5391 101.286C89.1616 103.451 88.2774 106.502 88.2773 109.923C88.2773 113.345 89.1615 116.396 90.5391 118.561C91.9241 120.737 93.7157 121.9 95.5381 121.9C97.3605 121.9 99.1521 120.737 100.537 118.561C101.915 116.396 102.799 113.345 102.799 109.923C102.799 106.502 101.915 103.451 100.537 101.286C99.1521 99.1099 97.3605 97.9475 95.5381 97.9475Z" fill="black" stroke="black" stroke-width="1.98182"/>
</svg>
