<svg width="87" height="87" viewBox="0 0 87 87" fill="none" xmlns="http://www.w3.org/2000/svg">
<circle cx="43.514" cy="43.514" r="42.9005" fill="#0212EE" stroke="black" stroke-width="0.772982"/>
<path d="M13.4894 51.9017C13.6584 51.5175 13.8778 51.1733 14.1477 50.8693C14.4176 50.5652 14.7687 50.3292 15.2009 50.161C15.564 50.0198 15.9324 49.9561 16.3061 49.97C16.6677 49.9786 17.015 50.0526 17.3478 50.1918C17.6773 50.3224 17.982 50.5174 18.2621 50.7767C18.5387 51.0274 18.765 51.3276 18.9408 51.6772L20.7062 56.2157L11.6291 59.7465L10.0453 55.6748C9.93674 55.319 9.89973 54.9551 9.93428 54.5834C9.96019 54.215 10.0488 53.8671 10.2 53.5395C10.3479 53.2033 10.5549 52.9038 10.821 52.6411C11.087 52.3783 11.4059 52.1747 11.7776 52.0301C12.3136 51.8216 12.8842 51.7788 13.4894 51.9017ZM17.2515 52.7075C17.154 52.4568 16.9834 52.2744 16.7399 52.1601C16.4844 52.0405 16.227 52.0312 15.9676 52.132C15.7169 52.2296 15.5361 52.4044 15.4252 52.6565C15.3143 52.9087 15.3049 53.1661 15.3972 53.4288L16.2899 55.724L18.1443 55.0027L17.2515 52.7075ZM14.5394 56.405L13.8231 54.5636C13.7256 54.3129 13.5551 54.1304 13.3116 54.0162C13.0594 53.9052 12.8037 53.9002 12.5443 54.0011C12.2936 54.0986 12.1171 54.2718 12.0149 54.5206C11.9006 54.7641 11.8895 55.0172 11.9818 55.2799L12.698 57.1212L14.5394 56.405ZM17.6536 42.0076L14.671 44.0175L14.6885 45.5479L17.6936 45.5136L17.7175 47.6005L7.97852 47.7118L7.93068 43.524C7.92549 43.0695 8.00867 42.6372 8.18024 42.2271C8.35181 41.817 8.58888 41.4571 8.89147 41.1476C9.18478 40.8381 9.53448 40.5929 9.94057 40.412C10.3466 40.2218 10.7861 40.1241 11.2591 40.1187C11.8991 40.1113 12.4853 40.267 13.0177 40.5856C13.5408 40.9043 13.9491 41.3263 14.2427 41.8517L17.6259 39.5867L17.6536 42.0076ZM12.7192 43.6919C12.717 43.4972 12.6778 43.3167 12.6017 43.1506C12.5255 42.9752 12.4218 42.828 12.2906 42.7089C12.1592 42.5805 12.0096 42.4802 11.8418 42.4079C11.6648 42.3357 11.4788 42.3007 11.2841 42.303C11.0893 42.3052 10.9088 42.3444 10.7427 42.4205C10.5674 42.4967 10.4155 42.6005 10.2871 42.7318C10.1586 42.8539 10.0583 43.0034 9.98611 43.1805C9.91382 43.3483 9.87879 43.5296 9.88101 43.7244L9.90247 45.6026L12.7407 45.5702L12.7192 43.6919ZM18.4123 32.1209L17.1783 35.5511L18.5443 36.6044L17.7813 38.7253L9.74698 32.2864L10.6089 29.8905L20.8991 30.0582L20.1409 32.1661L18.4123 32.1209ZM16.3627 32.0638L12.5584 31.9521L15.5621 34.2895L16.3627 32.0638ZM25.8638 21.6693C26.0447 22.4731 26.0606 23.2672 25.9117 24.0518C25.7689 24.8294 25.421 25.5309 24.8681 26.1563C24.4011 26.6845 23.861 27.0922 23.2478 27.3796C22.6347 27.667 21.9977 27.8343 21.3369 27.8815C20.6822 27.9217 20.0299 27.8403 19.38 27.6371C18.7293 27.4208 18.1364 27.0761 17.6013 26.603C17.0732 26.136 16.6654 25.5959 16.378 24.9828C16.0906 24.3696 15.9268 23.7357 15.8866 23.081C15.8394 22.4202 15.9209 21.7679 16.131 21.1241C16.3403 20.4673 16.6816 19.8713 17.1547 19.3362C17.7015 18.7178 18.329 18.2882 19.037 18.0476C19.7451 17.8069 20.5121 17.7236 21.3381 17.7977L21.072 19.884C20.8663 19.8507 20.6582 19.8339 20.4479 19.8337C20.2307 19.8273 20.0185 19.8502 19.8114 19.9024C19.5974 19.9484 19.3889 20.0302 19.1858 20.1478C18.9828 20.2654 18.7921 20.425 18.614 20.6265C18.3375 20.9392 18.1424 21.2929 18.0286 21.6876C17.9149 22.0823 17.877 22.4822 17.9151 22.8873C17.9462 23.2863 18.0554 23.6738 18.2428 24.05C18.4302 24.4262 18.6803 24.7525 18.993 25.029C19.3057 25.3055 19.6602 25.5137 20.0565 25.6537C20.4528 25.7936 20.8543 25.8576 21.261 25.8458C21.6608 25.8278 22.0495 25.7382 22.4273 25.5769C22.8051 25.4157 23.1323 25.1788 23.4088 24.8661C23.7283 24.5047 23.914 24.1056 23.966 23.6687C24.0172 23.2187 23.9733 22.7712 23.8342 22.3264L25.8638 21.6693ZM30.1808 20.934L28.4367 22.0803L23.0876 13.9411L24.8317 12.7949L30.1808 20.934ZM37.0099 16.671L33.5511 17.8224L33.568 19.5471L31.4293 20.2591L31.5215 9.96335L33.9374 9.15914L40.1687 17.3499L38.0433 18.0574L37.0099 16.671ZM35.7873 15.0249L33.5226 11.9661L33.5431 15.772L35.7873 15.0249ZM47.817 9.8685L44.9927 9.83751L44.9072 17.6287L42.8202 17.6058L42.9057 9.81461L40.0675 9.78347L40.0889 7.83567L47.8383 7.9207L47.817 9.8685ZM55.5352 18.064L54.9205 19.9124L49.0717 17.9674L52.1451 8.72541L57.9147 10.6441L57.3 12.4925L53.4844 11.2236L52.8697 13.072L55.7347 14.0248L55.12 15.8731L52.255 14.9204L51.6403 16.7688L55.5352 18.064ZM75.8741 51.2509C75.3495 51.1851 74.8577 51.0066 74.3988 50.7153C73.9398 50.424 73.5114 50.0758 73.1135 49.6706C72.7237 49.2758 72.3655 48.8522 72.039 48.3999C71.7113 47.9568 71.4175 47.5414 71.1576 47.1535L70.7316 50.5497L68.7988 50.3072L69.6943 43.1697L70.7159 43.2979C71.2597 44.0299 71.7352 44.6738 72.1422 45.2297C72.5573 45.796 72.9212 46.2857 73.234 46.6989C73.5456 47.1212 73.8192 47.4734 74.055 47.7554C74.2987 48.0477 74.5264 48.282 74.738 48.4581C74.9485 48.6434 75.1509 48.781 75.3453 48.8708C75.5489 48.9618 75.7704 49.0223 76.0097 49.0524C76.1293 49.0674 76.2524 49.0548 76.379 49.0146C76.5148 48.9755 76.6402 48.9071 76.7553 48.8094C76.8693 48.7208 76.9688 48.5978 77.0541 48.4402C77.1381 48.2918 77.1928 48.1164 77.2182 47.9139C77.2783 47.4353 77.2008 47.0096 76.9858 46.6367C76.7709 46.2638 76.4862 45.9991 76.1319 45.8425C76.361 45.5814 76.5734 45.3416 76.7691 45.1231C76.9325 44.9379 77.0856 44.7608 77.2284 44.5918C77.3803 44.4239 77.4776 44.3192 77.5202 44.2778C77.8514 44.4689 78.1309 44.7003 78.3586 44.9719C78.5943 45.2539 78.7806 45.5578 78.9173 45.8834C79.0529 46.2183 79.1396 46.5704 79.1774 46.9397C79.2244 47.3102 79.2243 47.6841 79.1769 48.0615C79.1296 48.4388 79.0247 48.8276 78.8623 49.228C78.6988 49.6375 78.4754 50.0021 78.1922 50.3218C77.9182 50.6427 77.5879 50.891 77.2013 51.0669C76.8135 51.2519 76.3711 51.3133 75.8741 51.2509ZM75.2192 60.1403C74.929 60.7004 74.5345 61.1593 74.0357 61.5173C73.5451 61.8794 72.9959 62.1329 72.3881 62.2777C71.7885 62.4267 71.1595 62.4612 70.501 62.3812C69.8383 62.3094 69.1939 62.1114 68.568 61.7871C67.9338 61.4585 67.3922 61.0421 66.9431 60.5378C66.5022 60.0378 66.1697 59.4999 65.9457 58.9242C65.7216 58.3484 65.6161 57.7557 65.629 57.146C65.6419 56.5364 65.7913 55.9556 66.0772 55.4038C66.3674 54.8438 66.7599 54.3785 67.2548 54.0081C67.7536 53.6502 68.3028 53.3967 68.9023 53.2477C69.5101 53.1029 70.1454 53.0664 70.8082 53.1382C71.4667 53.2182 72.1089 53.4203 72.7348 53.7446C73.369 54.0732 73.9065 54.4875 74.3474 54.9875C74.7965 55.4918 75.1331 56.0319 75.3571 56.6076C75.5769 57.1916 75.6803 57.7884 75.6674 58.3981C75.6545 59.0078 75.5051 59.5885 75.2192 60.1403ZM67.8068 56.2999C67.6361 56.6293 67.5607 56.9664 67.5806 57.311C67.6006 57.6556 67.6913 57.9847 67.8527 58.2982C68.0181 58.6241 68.2482 58.9261 68.5429 59.2042C68.8333 59.4905 69.1639 59.7296 69.5345 59.9217C69.9051 60.1137 70.2911 60.2458 70.6925 60.3179C71.0896 60.3983 71.4649 60.4099 71.8184 60.3528C72.1758 60.3081 72.501 60.1946 72.794 60.0121C73.0871 59.8296 73.3189 59.5737 73.4896 59.2442C73.6603 58.9148 73.7378 58.5736 73.7221 58.2208C73.7022 57.8761 73.6095 57.5408 73.4441 57.2149C73.2827 56.9014 73.0546 56.6056 72.7599 56.3276C72.4652 56.0495 72.1325 55.8145 71.7619 55.6225C71.3913 55.4304 71.0074 55.2942 70.6103 55.2138C70.2132 55.1335 69.8359 55.1156 69.4785 55.1602C69.125 55.2174 68.8018 55.3372 68.5087 55.5197C68.2114 55.7104 67.9775 55.9705 67.8068 56.2999ZM63.1679 70.3417C62.8113 69.9514 62.5527 69.4966 62.3922 68.9772C62.2317 68.4579 62.1314 67.915 62.0913 67.3485C62.0505 66.7952 62.0525 66.2405 62.0972 65.6844C62.1351 65.1346 62.1808 64.6278 62.2345 64.1641L59.7079 66.4731L58.3939 65.0352L63.7038 60.1825L64.3984 60.9426C64.3378 61.8524 64.2822 62.6509 64.2315 63.3381C64.1803 64.0383 64.1398 64.6471 64.11 65.1644C64.0733 65.688 64.0532 66.1336 64.0498 66.5011C64.0458 66.8817 64.0673 67.2077 64.1142 67.479C64.1542 67.7565 64.2191 67.9925 64.3088 68.187C64.4048 68.3882 64.5342 68.5779 64.6968 68.7559C64.7782 68.8449 64.8801 68.9152 65.0025 68.9667C65.1312 69.025 65.271 69.0542 65.422 69.0545C65.5662 69.061 65.7218 69.0318 65.8888 68.9671C66.0491 68.9087 66.2045 68.8106 66.3551 68.673C66.7112 68.3476 66.9283 67.9733 67.0064 67.55C67.0845 67.1268 67.0395 66.7406 66.8714 66.3917C67.2151 66.3415 67.5322 66.2967 67.8229 66.2572C68.0674 66.2223 68.2988 66.1867 68.5171 66.1506C68.7416 66.1213 68.8835 66.1047 68.9428 66.1008C69.071 66.4611 69.1337 66.8185 69.1309 67.1729C69.1275 67.5404 69.0723 67.8925 68.9652 68.2291C68.8513 68.5719 68.689 68.8962 68.4783 69.2018C68.2738 69.5143 68.0312 69.7989 67.7505 70.0554C67.4697 70.312 67.1378 70.54 66.7546 70.7394C66.3645 70.9451 65.958 71.0778 65.5351 71.1376C65.1185 71.2042 64.706 71.1791 64.2976 71.0622C63.8824 70.9516 63.5058 70.7114 63.1679 70.3417ZM53.9206 66.9169C54.2696 66.7659 54.6267 66.6569 54.9919 66.5899C55.3485 66.5266 55.7066 66.5132 56.066 66.5497C56.4291 66.5948 56.7894 66.6916 57.1467 66.8402C57.4956 66.9925 57.8282 67.2124 58.1447 67.5C58.095 67.572 58.0004 67.7039 57.861 67.8956C57.7216 68.0873 57.5797 68.2851 57.4355 68.489C57.2731 68.7209 57.093 68.9706 56.8954 69.238C56.7599 69.135 56.6079 69.0289 56.4394 68.9199C56.2661 68.823 56.0856 68.7444 55.8978 68.6842C55.7016 68.6276 55.4999 68.5936 55.2928 68.5821C55.0808 68.5828 54.8727 68.6274 54.6684 68.7157C54.4811 68.7968 54.3067 68.9076 54.1452 69.0482C53.9788 69.201 53.8448 69.3701 53.7431 69.5556C53.6329 69.7448 53.5697 69.949 53.5534 70.1683C53.5286 70.3913 53.564 70.6134 53.6598 70.8348C53.7592 71.0646 53.8944 71.2487 54.0654 71.387C54.2401 71.5338 54.4298 71.6336 54.6346 71.6865C54.8431 71.7479 55.0581 71.7661 55.2797 71.741C55.505 71.7244 55.7155 71.6737 55.9113 71.589C56.2178 71.4564 56.4826 71.2509 56.7058 70.9725C56.9204 70.6977 57.0491 70.3995 57.0919 70.0778L59.1046 70.4199L60.2859 75.0783L54.8203 77.4426L54.0469 75.6548L57.8652 74.0031L57.5765 72.9152C57.4732 72.9801 57.3468 73.05 57.1972 73.1248C57.0513 73.2081 56.8039 73.3253 56.4548 73.4763C56.0121 73.6678 55.557 73.7838 55.0894 73.8243C54.6133 73.8686 54.1589 73.8226 53.726 73.6864C53.2847 73.554 52.882 73.3239 52.5179 72.9963C52.1575 72.6772 51.8613 72.2494 51.6293 71.7131C51.4231 71.2363 51.3332 70.7598 51.3596 70.2835C51.386 69.8072 51.5044 69.3567 51.7149 68.9322C51.9254 68.5076 52.2231 68.1211 52.608 67.7727C52.9808 67.4194 53.4183 67.1342 53.9206 66.9169Z" fill="#ADFC03"/>
<circle cx="43.7073" cy="42.9343" r="19.9043" fill="white" stroke="black" stroke-width="0.772982"/>
<path d="M34.2383 54.1425C35.5265 53.6121 36.1016 52.8142 36.3014 52.0168C36.6111 50.7809 36.0192 49.5463 35.7842 49.3114" stroke="black" stroke-width="0.772982" stroke-linecap="round"/>
<path d="M36.5571 52.0168C38.6828 54.0137 45.3691 56.191 50.4708 52.0168" stroke="black" stroke-width="0.772982" stroke-linecap="round"/>
<path d="M37.5903 30.76C38.9787 30.7601 40.2902 31.6428 41.2739 33.1848C42.2548 34.7225 42.8745 36.8706 42.8745 39.263C42.8745 41.6552 42.2548 43.8025 41.2739 45.3401C40.2902 46.8822 38.9787 47.7658 37.5903 47.7659C36.2019 47.7659 34.8895 46.8822 33.9058 45.3401C32.925 43.8026 32.3062 41.655 32.3062 39.263C32.3062 36.8707 32.9249 34.7225 33.9058 33.1848C34.8895 31.6427 36.2019 30.76 37.5903 30.76Z" fill="white" stroke="black" stroke-width="0.772982"/>
<path d="M37.5903 38.4232C38.3009 38.4233 38.9994 38.8764 39.5396 39.725C40.0768 40.5693 40.4223 41.7597 40.4224 43.0941C40.4224 44.4286 40.0768 45.6189 39.5396 46.4633C38.9994 47.3119 38.301 47.7649 37.5903 47.765C36.8795 47.765 36.1803 47.3121 35.6401 46.4633C35.1028 45.6189 34.7583 44.4286 34.7583 43.0941C34.7583 41.7597 35.1029 40.5693 35.6401 39.725C36.1803 38.8762 36.8796 38.4232 37.5903 38.4232Z" fill="black" stroke="black" stroke-width="0.772982"/>
<path d="M49.5447 30.76C50.933 30.7601 52.2445 31.6428 53.2283 33.1848C54.2092 34.7225 54.8289 36.8706 54.8289 39.263C54.8288 41.6552 54.2091 43.8025 53.2283 45.3401C52.2445 46.8822 50.933 47.7658 49.5447 47.7659C48.1563 47.7659 46.8439 46.8822 45.8601 45.3401C44.8794 43.8026 44.2606 41.655 44.2605 39.263C44.2605 36.8707 44.8793 34.7225 45.8601 33.1848C46.8439 31.6427 48.1563 30.76 49.5447 30.76Z" fill="white" stroke="black" stroke-width="0.772982"/>
<path d="M49.5449 38.4232C50.2555 38.4233 50.954 38.8764 51.4941 39.7249C52.0314 40.5692 52.3769 41.7596 52.377 43.0941C52.377 44.4286 52.0314 45.6189 51.4941 46.4632C50.954 47.3118 50.2556 47.7649 49.5449 47.765C48.8341 47.765 48.1349 47.3121 47.5947 46.4632C47.0574 45.6189 46.7129 44.4286 46.7129 43.0941C46.7129 41.7596 47.0574 40.5692 47.5947 39.7249C48.1349 38.8762 48.8342 38.4232 49.5449 38.4232Z" fill="black" stroke="black" stroke-width="0.772982"/>
</svg>
