<svg width="158" height="187" viewBox="0 0 158 187" fill="none" xmlns="http://www.w3.org/2000/svg">
<mask id="path-1-inside-1_416_278" fill="white">
<path d="M39.2161 165.26L39.0777 165.152L33.7407 136.579L4.7204 138.23L4.58203 138.122L47.5095 83.3374L82.1436 110.476L39.2161 165.26Z"/>
</mask>
<path d="M39.2161 165.26L39.0777 165.152L33.7407 136.579L4.7204 138.23L4.58203 138.122L47.5095 83.3374L82.1436 110.476L39.2161 165.26Z" fill="#0212EE"/>
<path d="M39.2161 165.26L38.7227 165.89L39.3524 166.383L39.8458 165.753L39.2161 165.26ZM39.0777 165.152L38.2913 165.299L38.3467 165.595L38.5843 165.781L39.0777 165.152ZM33.7407 136.579L34.5271 136.432L34.3979 135.74L33.6952 135.78L33.7407 136.579ZM4.7204 138.23L4.22697 138.86L4.46454 139.046L4.76586 139.029L4.7204 138.23ZM4.58203 138.122L3.95232 137.628L3.4589 138.258L4.08861 138.752L4.58203 138.122ZM47.5095 83.3374L48.0029 82.7077L47.3732 82.2143L46.8798 82.844L47.5095 83.3374ZM82.1436 110.476L82.7733 110.969L83.2667 110.339L82.637 109.846L82.1436 110.476ZM39.2161 165.26L39.7095 164.63L39.5711 164.522L39.0777 165.152L38.5843 165.781L38.7227 165.89L39.2161 165.26ZM39.0777 165.152L39.8641 165.005L34.5271 136.432L33.7407 136.579L32.9543 136.725L38.2913 165.299L39.0777 165.152ZM33.7407 136.579L33.6952 135.78L4.67494 137.432L4.7204 138.23L4.76586 139.029L33.7862 137.377L33.7407 136.579ZM4.7204 138.23L5.21382 137.601L5.07546 137.492L4.58203 138.122L4.08861 138.752L4.22697 138.86L4.7204 138.23ZM4.58203 138.122L5.21174 138.615L48.1392 83.8308L47.5095 83.3374L46.8798 82.844L3.95232 137.628L4.58203 138.122ZM47.5095 83.3374L47.0161 83.9671L81.6501 111.105L82.1436 110.476L82.637 109.846L48.0029 82.7077L47.5095 83.3374ZM82.1436 110.476L81.5139 109.982L38.5864 164.767L39.2161 165.26L39.8458 165.753L82.7733 110.969L82.1436 110.476Z" fill="black" mask="url(#path-1-inside-1_416_278)"/>
<mask id="path-3-inside-2_416_278" fill="white">
<path d="M73.1718 175.185L73.3477 175.168L93.2323 153.967L116.794 170.989L116.97 170.972L110.305 101.692L66.5074 105.905L73.1718 175.185Z"/>
</mask>
<path d="M73.1718 175.185L73.3477 175.168L93.2323 153.967L116.794 170.989L116.97 170.972L110.305 101.692L66.5074 105.905L73.1718 175.185Z" fill="#0212EE"/>
<path d="M73.1718 175.185L73.2484 175.981L72.4521 176.058L72.3755 175.261L73.1718 175.185ZM73.3477 175.168L73.9312 175.715L73.7248 175.935L73.4243 175.964L73.3477 175.168ZM93.2323 153.967L92.6488 153.42L93.1303 152.907L93.7008 153.319L93.2323 153.967ZM116.794 170.989L116.87 171.785L116.57 171.814L116.325 171.637L116.794 170.989ZM116.97 170.972L117.766 170.895L117.843 171.691L117.046 171.768L116.97 170.972ZM110.305 101.692L110.229 100.896L111.025 100.819L111.101 101.615L110.305 101.692ZM66.5074 105.905L65.711 105.982L65.6344 105.185L66.4307 105.109L66.5074 105.905ZM73.1718 175.185L73.0952 174.389L73.2711 174.372L73.3477 175.168L73.4243 175.964L73.2484 175.981L73.1718 175.185ZM73.3477 175.168L72.7642 174.621L92.6488 153.42L93.2323 153.967L93.8158 154.515L73.9312 175.715L73.3477 175.168ZM93.2323 153.967L93.7008 153.319L117.262 170.34L116.794 170.989L116.325 171.637L92.7638 154.616L93.2323 153.967ZM116.794 170.989L116.717 170.192L116.893 170.175L116.97 170.972L117.046 171.768L116.87 171.785L116.794 170.989ZM116.97 170.972L116.173 171.048L109.509 101.768L110.305 101.692L111.101 101.615L117.766 170.895L116.97 170.972ZM110.305 101.692L110.382 102.488L66.584 106.701L66.5074 105.905L66.4307 105.109L110.229 100.896L110.305 101.692ZM66.5074 105.905L67.3037 105.828L73.9681 175.108L73.1718 175.185L72.3755 175.261L65.711 105.982L66.5074 105.905Z" fill="black" mask="url(#path-3-inside-2_416_278)"/>
<circle cx="86.6236" cy="65.5983" r="50" transform="rotate(16.2933 86.6236 65.5983)" fill="#F3D038" stroke="black" stroke-width="0.8"/>
<g filter="url(#filter0_i_416_278)">
<circle cx="86.3519" cy="65.1021" r="31.6" transform="rotate(16.2933 86.3519 65.1021)" fill="#F3D038"/>
</g>
<path d="M91.7668 57.8506L91.8567 58.127H109.516L95.4651 68.3359L95.2297 68.5068L95.3196 68.7832L100.686 85.3008L86.635 75.0928L86.3997 74.9219L86.1653 75.0928L72.1135 85.3008L77.4807 68.7832L77.5706 68.5068L77.3352 68.3359L63.2844 58.127H80.9426L81.0325 57.8506L86.3997 41.332L91.7668 57.8506Z" fill="#D20001" stroke="black" stroke-width="0.8"/>
<defs>
<filter id="filter0_i_416_278" x="54.7437" y="33.4941" width="63.2166" height="63.2163" filterUnits="userSpaceOnUse" color-interpolation-filters="sRGB">
<feFlood flood-opacity="0" result="BackgroundImageFix"/>
<feBlend mode="normal" in="SourceGraphic" in2="BackgroundImageFix" result="shape"/>
<feColorMatrix in="SourceAlpha" type="matrix" values="0 0 0 0 0 0 0 0 0 0 0 0 0 0 0 0 0 0 127 0" result="hardAlpha"/>
<feOffset/>
<feGaussianBlur stdDeviation="1.6"/>
<feComposite in2="hardAlpha" operator="arithmetic" k2="-1" k3="1"/>
<feColorMatrix type="matrix" values="0 0 0 0 0 0 0 0 0 0 0 0 0 0 0 0 0 0 0.25 0"/>
<feBlend mode="normal" in2="shape" result="effect1_innerShadow_416_278"/>
</filter>
</defs>
</svg>
