<svg width="197" height="233" viewBox="0 0 197 233" fill="none" xmlns="http://www.w3.org/2000/svg">
<mask id="path-1-inside-1_352_222" fill="white">
<path d="M49.0199 205.528L48.8469 205.392L42.1762 169.675L5.90026 171.74L5.7273 171.605L59.387 103.124L102.68 137.047L49.0199 205.528Z"/>
</mask>
<path d="M49.0199 205.528L48.8469 205.392L42.1762 169.675L5.90026 171.74L5.7273 171.605L59.387 103.124L102.68 137.047L49.0199 205.528Z" fill="#0212EE"/>
<path d="M49.0199 205.528L48.4031 206.315L49.1902 206.932L49.807 206.145L49.0199 205.528ZM48.8469 205.392L47.8639 205.576L47.9332 205.947L48.2301 206.179L48.8469 205.392ZM42.1762 169.675L43.1592 169.491L42.9977 168.627L42.1194 168.677L42.1762 169.675ZM5.90026 171.74L5.28348 172.528L5.58044 172.76L5.9571 172.739L5.90026 171.74ZM5.7273 171.605L4.94016 170.988L4.32339 171.775L5.11052 172.392L5.7273 171.605ZM59.387 103.124L60.0037 102.337L59.2166 101.72L58.5998 102.507L59.387 103.124ZM102.68 137.047L103.467 137.664L104.083 136.876L103.296 136.26L102.68 137.047ZM49.0199 205.528L49.6366 204.741L49.4637 204.605L48.8469 205.392L48.2301 206.179L48.4031 206.315L49.0199 205.528ZM48.8469 205.392L49.8299 205.209L43.1592 169.491L42.1762 169.675L41.1932 169.859L47.8639 205.576L48.8469 205.392ZM42.1762 169.675L42.1194 168.677L5.84341 170.742L5.90026 171.74L5.9571 172.739L42.2331 170.673L42.1762 169.675ZM5.90026 171.74L6.51703 170.953L6.34408 170.818L5.7273 171.605L5.11052 172.392L5.28348 172.528L5.90026 171.74ZM5.7273 171.605L6.51444 172.222L60.1741 103.741L59.387 103.124L58.5998 102.507L4.94016 170.988L5.7273 171.605ZM59.387 103.124L58.7702 103.911L102.063 137.834L102.68 137.047L103.296 136.26L60.0037 102.337L59.387 103.124ZM102.68 137.047L101.892 136.43L48.2327 204.911L49.0199 205.528L49.807 206.145L103.467 137.664L102.68 137.047Z" fill="black" mask="url(#path-1-inside-1_352_222)"/>
<mask id="path-3-inside-2_352_222" fill="white">
<path d="M91.4649 217.934L91.6836 217.913L116.54 191.411L145.993 212.689L146.212 212.668L137.882 126.067L83.1343 131.334L91.4649 217.934Z"/>
</mask>
<path d="M91.4649 217.934L91.6836 217.913L116.54 191.411L145.993 212.689L146.212 212.668L137.882 126.067L83.1343 131.334L91.4649 217.934Z" fill="#0212EE"/>
<path d="M91.4649 217.934L91.5606 218.929L90.5652 219.025L90.4695 218.03L91.4649 217.934ZM91.6836 217.913L92.413 218.597L92.1549 218.872L91.7794 218.908L91.6836 217.913ZM116.54 191.411L115.811 190.727L116.413 190.085L117.126 190.601L116.54 191.411ZM145.993 212.689L146.089 213.684L145.714 213.72L145.408 213.499L145.993 212.689ZM146.212 212.668L147.208 212.572L147.303 213.567L146.308 213.663L146.212 212.668ZM137.882 126.067L137.786 125.072L138.781 124.976L138.877 125.972L137.882 126.067ZM83.1343 131.334L82.1389 131.43L82.0432 130.434L83.0386 130.338L83.1343 131.334ZM91.4649 217.934L91.3691 216.939L91.5878 216.918L91.6836 217.913L91.7794 218.908L91.5606 218.929L91.4649 217.934ZM91.6836 217.913L90.9542 217.229L115.811 190.727L116.54 191.411L117.27 192.095L92.413 218.597L91.6836 217.913ZM116.54 191.411L117.126 190.601L146.579 211.878L145.993 212.689L145.408 213.499L115.955 192.222L116.54 191.411ZM145.993 212.689L145.898 211.693L146.116 211.672L146.212 212.668L146.308 213.663L146.089 213.684L145.993 212.689ZM146.212 212.668L145.217 212.763L136.886 126.163L137.882 126.067L138.877 125.972L147.208 212.572L146.212 212.668ZM137.882 126.067L137.977 127.063L83.2301 132.329L83.1343 131.334L83.0386 130.338L137.786 125.072L137.882 126.067ZM83.1343 131.334L84.1297 131.238L92.4603 217.838L91.4649 217.934L90.4695 218.03L82.1389 131.43L83.1343 131.334Z" fill="black" mask="url(#path-3-inside-2_352_222)"/>
<circle cx="108.28" cy="80.9504" r="62.5" transform="rotate(16.2933 108.28 80.9504)" fill="#F3D038" stroke="black"/>
</svg>
