<svg width="189" height="217" viewBox="0 0 189 217" fill="none" xmlns="http://www.w3.org/2000/svg">
<path d="M84.9778 172.426C83.0599 159.175 81.3029 144.364 73.0025 132.944L96.2603 122.536C93.3352 146.962 110.632 181.247 119.646 195.336C107.313 208.951 93.1551 202.434 87.618 197.473C87.9181 192.366 86.5122 183.027 84.9778 172.426Z" fill="#FD039D" stroke="black" stroke-width="0.601138" stroke-linecap="square"/>
<path d="M17.4457 119.224C11.7378 100.577 19.2605 73.4372 45.684 68.3921L68.3931 137.649C36.9548 153.29 20.1006 127.897 17.4457 119.224Z" fill="#FD039D" stroke="black" stroke-width="0.601138" stroke-linecap="square"/>
<path d="M45.8316 68.3643C58.4796 67.2958 83.2328 44.9544 94.0284 33.9173L135.883 124.917C127.668 121.691 102.704 119.746 68.5689 137.769C35.7286 120.905 39.7273 84.4727 45.8316 68.3643Z" fill="#F3D038" stroke="black" stroke-width="0.601138" stroke-linecap="square"/>
<path d="M40.166 34.9881C42.9289 33.305 46.5254 33.5217 50.1309 35.2893C53.7338 37.0557 57.317 40.3602 60.0153 44.7898C62.7136 49.2193 64.0064 53.9191 63.9233 57.9309C63.8401 61.9454 62.3825 65.2399 59.6196 66.9229C56.8568 68.6058 53.2613 68.3894 49.656 66.622C46.0531 64.8557 42.469 61.5516 39.7707 57.1221C37.0724 52.6925 35.7805 47.9922 35.8636 43.9805C35.9468 39.9661 37.4033 36.6712 40.166 34.9881Z" fill="white" stroke="black" stroke-width="0.412599"/>
<path d="M48.6446 48.9046C50.1775 47.9711 52.1854 48.0873 54.2178 49.0865C56.2478 50.0845 58.2735 51.9524 59.8013 54.4603C61.3291 56.9684 62.0602 59.6259 62.0158 61.8876C61.9714 64.1518 61.1536 65.9894 59.621 66.9233C58.0881 67.8571 56.0795 67.7412 54.0469 66.742C52.0169 65.7439 49.9908 63.8753 48.463 61.3672C46.9353 58.8592 46.2046 56.2024 46.2489 53.9408C46.2933 51.6763 47.1117 49.8384 48.6446 48.9046Z" fill="black" stroke="black" stroke-width="0.412599"/>
<path d="M61.8762 21.763C64.6391 20.0799 68.2356 20.2966 71.8411 22.0642C75.444 23.8306 79.0272 27.1351 81.7256 31.5647C84.4238 35.9942 85.7166 40.694 85.6335 44.7058C85.5503 48.7203 84.0927 52.0148 81.3298 53.6978C78.567 55.3807 74.9715 55.1643 71.3662 53.3969C67.7633 51.6306 64.1793 48.3265 61.4809 43.897C58.7826 39.4674 57.4907 34.7671 57.5738 30.7554C57.657 26.741 59.1135 23.4461 61.8762 21.763Z" fill="white" stroke="black" stroke-width="0.412599"/>
<path d="M70.3551 35.6795C71.8879 34.746 73.8959 34.8622 75.9283 35.8614C77.9582 36.8594 79.9839 38.7273 81.5117 41.2353C83.0396 43.7433 83.7706 46.4008 83.7263 48.6625C83.6818 50.9267 82.864 52.7643 81.3314 53.6982C79.7985 54.632 77.7899 54.5161 75.7574 53.5169C73.7273 52.5188 71.7013 50.6502 70.1734 48.1421C68.6457 45.6341 67.915 42.9773 67.9594 40.7157C68.0038 38.4512 68.8222 36.6133 70.3551 35.6795Z" fill="black" stroke="black" stroke-width="0.412599"/>
<path d="M115.729 16.1572C126.16 14.1657 136.825 18.5754 145.64 27.3856C154.454 36.1945 161.394 49.3816 164.349 64.8612C167.304 80.3406 165.712 95.1559 160.763 106.592C155.814 118.031 147.524 126.059 137.093 128.051C126.662 130.043 115.998 125.633 107.182 116.823C98.3682 108.014 91.4291 94.8275 88.4736 79.348C85.518 63.8685 87.1106 49.0524 92.0593 37.6158C97.0087 26.1775 105.298 18.1488 115.729 16.1572Z" fill="#FD039D" stroke="black" stroke-width="0.601138"/>
<path d="M119.788 37.4139C126.224 36.1853 132.818 38.9057 138.281 44.3689C143.743 49.8309 148.048 58.0129 149.882 67.6224C151.717 77.232 150.73 86.4243 147.665 93.5144C144.599 100.606 139.471 105.565 133.035 106.794C126.599 108.023 120.004 105.302 114.541 99.8386C109.08 94.3766 104.775 86.1946 102.94 76.5851C101.106 66.9755 102.093 57.7832 105.158 50.6931C108.224 43.6013 113.352 38.6427 119.788 37.4139Z" fill="#F3D038" stroke="black" stroke-width="0.601138"/>
<path d="M122.107 68.7947L133.737 56.7824L145.874 64.257L155.141 52.6956" stroke="black" stroke-width="5.41024" stroke-linecap="square"/>
<path d="M124.848 82.3474L136.477 70.3351L148.614 77.8097L157.882 66.2483" stroke="black" stroke-width="5.41024" stroke-linecap="square"/>
</svg>
