<svg width="673" height="377" viewBox="0 0 673 377" fill="none" xmlns="http://www.w3.org/2000/svg">
<path d="M384.301 28.042C385.154 27.9713 385.883 27.9567 386.404 28.0459C386.687 28.0606 387.002 28.1275 387.29 28.3194C387.586 28.5165 387.775 28.7907 387.88 29.085C388.018 29.35 388.074 29.6314 388.097 29.876C388.122 30.1552 388.109 30.4583 388.073 30.7725V32.8633C388.073 36.6146 388.035 40.6271 387.96 44.9004H387.961V57.2745C387.961 57.5145 387.938 57.7851 387.853 58.0411C387.775 58.2746 387.613 58.5776 387.291 58.7803C387.264 58.799 387.235 58.8134 387.209 58.8282C387.2 58.8329 387.192 58.8392 387.183 58.8438L387.182 58.8428C387.059 58.907 386.956 58.9357 386.916 58.9454C386.812 58.9701 386.715 58.9794 386.646 58.9834C386.505 58.9917 386.346 58.986 386.19 58.9756C385.872 58.9544 385.441 58.9029 384.91 58.8272C382.223 58.454 379.423 58.1182 376.509 57.8194L376.495 57.8184L376.48 57.8164C373.64 57.4427 370.762 57.1057 367.847 56.8067C364.921 56.5066 362.033 56.2073 359.183 55.9073C356.692 55.6451 354.315 55.3795 352.052 55.1172C351.993 55.7756 351.962 56.6041 351.962 57.6123V60.0996H378.58L378.509 61.1661C378.434 62.284 378.36 63.5909 378.285 65.087C378.21 66.5859 378.135 68.1223 378.06 69.6963C377.985 71.2659 377.91 72.8358 377.835 74.4053C377.834 75.9087 377.798 77.2698 377.722 78.4864L377.67 79.3194L376.841 79.417C375.538 79.5703 373.679 79.7218 371.273 79.8721L371.258 79.8731H371.242C368.852 79.9478 366.348 80.0595 363.731 80.209C361.108 80.3589 358.597 80.5093 356.199 80.6592L356.184 80.6602H356.168C354.266 80.7196 352.723 80.7789 351.537 80.8379C351.38 82.5769 351.337 83.9201 351.397 84.8858C351.414 85.1469 351.444 85.3494 351.479 85.501C351.49 85.5472 351.503 85.5855 351.514 85.6182C356.394 85.0971 361.823 84.3947 367.803 83.5088C373.866 82.6106 379.703 81.6383 385.314 80.5909L386.402 80.3877L386.494 81.4903C386.568 82.3751 386.754 84.1978 387.054 86.9707C387.428 89.6632 387.801 92.5405 388.175 95.6026C388.626 98.6875 389.003 101.624 389.305 104.412L389.671 107.794C389.765 108.699 389.831 109.381 389.869 109.839L389.95 110.81L388.982 110.916C379.437 111.968 369.891 112.682 360.346 113.058L360.347 113.059C350.884 113.509 341.346 113.772 331.733 113.847H331.726C330.14 113.847 328.772 113.575 327.777 112.879C326.649 112.089 326.196 110.685 326.115 109.072L326.113 109.047V109.022C326.113 99.5651 326.226 90.1443 326.451 80.7618C326.669 71.6994 326.85 62.5669 326.997 53.3643C326.156 53.2928 325.389 53.201 324.699 53.086L324.692 53.085L324.685 53.084C323.872 52.9362 323.179 52.8269 322.603 52.7549C322.281 52.7147 321.962 52.6567 321.7 52.5586C321.573 52.5108 321.39 52.4287 321.224 52.2832C321.045 52.1265 320.826 51.8376 320.826 51.4248C320.826 50.4128 320.754 48.905 320.604 46.8868L320.603 46.8682L320.602 46.8496C320.527 44.8377 320.416 42.8638 320.267 40.9278L320.266 40.9073L320.265 40.8877C320.189 38.8545 320.151 37.0792 320.151 35.5635C320.151 34.802 320.179 34.1787 320.247 33.7276C320.279 33.5122 320.331 33.2638 320.43 33.044C320.491 32.9075 320.756 32.3763 321.379 32.3194C322.851 32.0898 325.159 31.8635 328.279 31.6407C331.506 31.3406 335.144 31.0409 339.189 30.7412H339.19C343.318 30.4411 347.67 30.141 352.247 29.8409H352.248C356.896 29.541 361.282 29.2778 365.406 29.0528C369.612 28.7524 373.407 28.5274 376.792 28.377C380.148 28.2278 382.651 28.117 384.301 28.042Z" fill="#F3D038" stroke="black" stroke-width="2"/>
<path d="M229.974 117.101C229.974 117.809 230.017 118.465 230.1 119.073C230.299 119.697 230.411 120.306 230.411 120.893C230.411 121.543 230.156 122.141 229.605 122.544C229.018 123.074 228.168 123.206 227.369 123.206H227.352L227.334 123.205C221.903 123.011 215.983 122.914 209.575 122.914H191.782C191.105 122.914 190.455 122.841 189.94 122.603C189.671 122.478 189.398 122.291 189.193 122.007C188.981 121.714 188.886 121.377 188.886 121.039C188.886 120.315 188.986 118.525 189.18 115.719C189.278 113.279 189.472 109.393 189.763 104.066C190.054 98.7286 190.296 92.6598 190.49 85.8598L190.491 85.8462C190.782 78.9533 190.976 71.7193 191.073 64.144L191.074 64.1313C191.268 56.559 191.317 49.377 191.22 42.5854V42.5708C191.22 35.7824 191.025 29.7792 190.639 24.5591L190.638 24.5503V24.5405C190.347 19.2995 189.864 15.6053 189.218 13.3891L188.967 12.5298L189.793 12.186C191.089 11.646 193.195 11.1959 196.021 10.8061L196.025 10.8052C198.963 10.4135 202.238 10.0716 205.849 9.77879H205.851C209.556 9.4863 213.357 9.24228 217.256 9.04735H217.257C221.248 8.85264 224.901 8.70633 228.215 8.60887C231.522 8.51159 234.265 8.51209 236.435 8.60985C237.55 8.61017 238.426 8.63325 239.048 8.68504C239.356 8.71071 239.637 8.74578 239.864 8.79832C239.975 8.82398 240.114 8.86213 240.249 8.92528C240.336 8.96582 240.574 9.08502 240.744 9.34618C241.005 9.73704 241.358 10.5169 241.786 11.5639C242.229 12.6477 242.793 14.1155 243.474 15.9634L243.993 17.354C245.222 20.6769 246.561 24.5554 248.01 28.9878C249.668 34.0602 251.277 39.4235 252.837 45.0766C254.142 49.5309 255.265 53.6564 256.209 57.4516C257.822 53.5691 259.374 49.7504 260.86 45.9946C262.709 41.3245 264.412 37.091 265.97 33.2944L265.975 33.2827C267.625 29.4003 269.032 26.0525 270.196 23.2388C271.364 20.3201 272.311 18.2175 273.032 16.9809L273.307 16.5102L273.851 16.4858C276.012 16.3876 278.897 16.3384 282.501 16.3384C286.205 16.3384 290.005 16.3874 293.902 16.4848H293.901C297.892 16.4852 301.692 16.582 305.3 16.7768C309.001 16.8747 311.999 17.0701 314.28 17.3677L315.267 17.4966L315.144 18.4839C315.048 19.2498 314.805 21.4741 314.416 25.1733C314.028 28.8596 313.591 33.5205 313.105 39.1567V39.1577C312.621 44.6833 312.183 50.9393 311.795 57.9263L311.796 57.9272C311.505 64.8156 311.358 71.9971 311.358 79.4712C311.358 86.932 311.649 94.393 312.23 101.854L312.344 103.226C312.933 110.061 313.862 116.464 315.129 122.436L315.418 123.796L314.036 123.636C311.528 123.347 308.774 123.105 305.773 122.912H305.771C302.865 122.718 299.911 122.573 296.908 122.476C293.915 122.38 290.922 122.379 287.93 122.475L287.931 122.476C285.035 122.573 282.384 122.717 279.978 122.909C279.17 123.009 278.454 123.04 277.849 122.982C277.267 122.927 276.674 122.778 276.213 122.42V122.422C276.205 122.417 276.199 122.41 276.191 122.405C276.191 122.404 276.189 122.404 276.188 122.403V122.402C275.659 121.988 275.507 121.319 275.454 120.815C275.395 120.249 275.428 119.551 275.526 118.751C275.719 116.825 275.912 114.263 276.106 111.06C276.3 107.865 276.446 104.376 276.543 100.594V100.582L276.544 100.57C276.738 96.6814 276.933 92.6957 277.127 88.6128C277.321 84.4382 277.466 80.4586 277.563 76.6743C277.661 72.889 277.709 69.4455 277.709 66.3442V66.3286L277.71 66.313C277.724 65.8624 277.735 65.4252 277.747 65.0014C276.419 69.0358 275.266 73.2039 274.288 77.5054L274.287 77.5083C272.829 83.8284 271.224 90.7806 269.474 98.3647L269.463 98.4116L269.448 98.4565C269.243 99.0711 268.77 99.4915 268.261 99.7778C267.749 100.065 267.105 100.275 266.375 100.431C264.936 100.739 263.075 100.937 260.812 101.036L260.791 101.037H253.169L253.151 101.036C250.247 100.939 247.195 100.89 243.996 100.89C242.488 100.89 241.512 99.6946 240.89 98.2427L240.877 98.2143L240.867 98.185C240.386 96.8378 239.905 95.5897 239.427 94.4409L239.423 94.4302L239.418 94.4184C238.05 90.9017 236.829 87.4803 235.753 84.1548L235.748 84.1421L235.744 84.1294C234.774 80.8321 233.756 77.5343 232.689 74.2368L232.68 74.2036C231.716 70.8319 230.56 67.4094 229.209 63.936L229.204 63.9243L229.2 63.9136C228.412 61.732 227.488 59.4708 226.43 57.1294C226.667 66.4226 227.118 75.6443 227.783 84.7944C228.561 95.3966 229.291 106.145 229.972 117.039L229.974 117.07V117.101Z" fill="#F3D038" stroke="black" stroke-width="2"/>
<path d="M184.334 57.0886C183.443 62.9169 182.722 69.0918 182.173 75.6131C181.623 82.1447 181.176 88.5728 180.832 94.8972C180.488 101.227 180.213 107.246 180.007 112.954V112.955C179.8 118.6 179.628 123.488 179.49 127.618L179.488 127.617C179.475 128.051 179.208 128.311 179.128 128.383C179.015 128.485 178.896 128.553 178.819 128.594C178.657 128.679 178.461 128.752 178.265 128.817C177.86 128.952 177.284 129.107 176.554 129.281L176.553 129.28C175.14 129.633 173.358 129.982 171.214 130.328L171.213 130.327C169.128 130.674 166.839 130.988 164.348 131.264L164.347 131.263C161.915 131.541 159.617 131.716 157.453 131.786L157.437 131.787H157.421C156.727 131.787 156.252 131.309 155.98 130.955C155.679 130.56 155.407 130.029 155.153 129.412L155.144 129.387L155.135 129.364C154.71 128.16 154.289 126.755 153.871 125.152L153.864 125.128L153.859 125.103C153.516 123.454 153.172 121.838 152.828 120.258L152.823 120.233L152.819 120.21C152.545 118.562 152.338 117.324 152.2 116.498C151.917 114.872 151.639 112.497 151.363 109.391V109.389C151.088 106.223 150.778 102.712 150.434 98.8572L150.433 98.8484V98.8396C150.157 94.9819 149.881 90.9862 149.605 86.8533V86.8523C149.33 82.6446 149.122 78.745 148.984 75.1541C148.846 71.5651 148.777 68.4531 148.777 65.8201C148.777 64.4974 148.812 63.384 148.884 62.4871C148.954 61.6084 149.065 60.8719 149.242 60.3396L149.438 59.7488L150.056 59.6648C155.636 58.907 161.148 58.1838 166.591 57.4949L166.592 57.4939C172.121 56.8027 177.685 56.2848 183.283 55.9392L184.521 55.8631L184.334 57.0886Z" fill="#F3D038" stroke="black" stroke-width="2"/>
<path d="M156.748 1.01953C157.046 1.05672 157.396 1.16176 157.69 1.41797C158.373 1.92752 158.499 2.81269 158.499 3.50684V6.42383C158.499 7.80528 158.45 9.66874 158.353 12.0078C158.255 14.3541 158.108 16.7972 157.913 19.3359C157.816 21.851 157.72 24.27 157.623 26.5928C157.526 28.9207 157.479 30.7527 157.479 32.0938C157.479 32.7634 156.95 33.0853 156.771 33.1797C156.532 33.3049 156.252 33.3826 155.991 33.4375C155.451 33.5511 154.696 33.6265 153.76 33.6758L153.733 33.6777H139.56C137.574 33.6777 135.931 33.7092 134.626 33.7686C134.907 39.7849 135.23 46.1069 135.599 52.7344L136.327 63.1641C136.57 66.6603 136.813 70.1808 137.056 73.7256L138.806 94.8721L139.243 99.9932C139.535 103.371 139.827 106.676 140.118 109.907L140.556 114.699L140.558 114.718L140.559 114.736C140.643 116.261 140.763 117.357 140.905 118.062L140.968 118.341L140.971 118.354L140.974 118.367C141.076 118.828 141.146 119.241 141.176 119.595C141.203 119.921 141.206 120.307 141.092 120.65L141.091 120.649C140.967 121.068 140.702 121.417 140.312 121.64C139.965 121.838 139.579 121.902 139.219 121.912C138.579 122.014 137.548 122.111 136.156 122.204C135.406 122.307 133.963 122.404 131.876 122.499L131.877 122.5C129.833 122.597 127.403 122.694 124.588 122.791C121.856 122.986 118.933 123.131 115.817 123.229C112.795 123.326 109.869 123.375 107.04 123.375C104.322 123.472 101.937 123.521 99.8877 123.521C97.8665 123.521 96.3657 123.43 95.5293 123.191L94.7725 122.976L94.8057 122.188C95.0973 115.092 95.388 107.703 95.6797 100.022C95.9712 92.3455 96.2148 84.62 96.4092 76.8457V76.833C96.7006 69.0624 96.8951 61.3401 96.9922 53.667C97.0845 46.376 97.1311 39.3483 97.1357 32.584C96.8263 32.634 96.4443 32.6997 95.9883 32.7852L95.9629 32.79L95.9365 32.7939C94.4878 32.9871 92.8425 33.2288 91.001 33.5195L90.9561 33.5254C89.192 33.7214 87.5228 33.8684 85.9492 33.9668C85.1576 34.0163 84.4978 34.0215 84.0127 33.9609C83.781 33.932 83.5013 33.8785 83.252 33.7539C83.0134 33.6346 82.5945 33.3295 82.5566 32.7607L82.4102 30.9307C82.2639 29.0288 82.1177 26.9093 81.9717 24.5723L81.9697 24.541C81.8725 21.4306 81.7759 18.466 81.6787 15.6475L81.6777 15.6299V8.1748C81.6777 7.14668 81.7016 6.34167 81.7549 5.78223C81.7807 5.51136 81.8176 5.24629 81.8799 5.02832C81.909 4.92644 81.9636 4.76306 82.0693 4.60449C82.1613 4.4666 82.4281 4.1397 82.9072 4.11328L86.5488 3.89453C90.3269 3.67551 94.5145 3.4562 99.1113 3.2373H99.1123C105.336 2.94558 111.656 2.65403 118.074 2.3623H118.075C124.589 2.07066 130.957 1.82833 137.18 1.63379V1.63281C143.409 1.34084 148.911 1.14629 153.687 1.04883H155.826C156.139 1.00239 156.452 0.982606 156.748 1.01953Z" fill="#F3D038" stroke="black" stroke-width="2"/>
<path d="M543.282 32.2847C547.429 32.0407 551.623 32.57 555.858 33.8618L556.705 34.1304L556.71 34.1313C557.11 34.2648 557.328 34.5703 557.429 34.8208C557.52 35.0481 557.535 35.2735 557.535 35.4351C557.535 35.7651 557.463 36.1523 557.363 36.5522L557.361 36.563L557.358 36.5728C557.16 37.2985 556.868 38.169 556.49 39.1792C556.171 40.1986 555.791 41.2761 555.35 42.4116C555.116 43.0732 554.908 43.6743 554.724 44.2134C557.939 45.407 561.068 46.9991 564.11 48.9868L564.753 49.3989C567.919 51.4945 570.437 54.1179 572.291 57.2681C574.117 60.3334 575.326 63.63 575.915 67.1509C576.565 70.6586 576.662 74.1994 576.208 77.769C575.756 81.3233 574.85 84.7806 573.494 88.1382C572.137 91.4987 570.357 94.5722 568.157 97.3569L568.158 97.3579C566.016 100.149 563.516 102.552 560.658 104.565L560.654 104.568C557.831 106.537 554.712 107.883 551.304 108.604L551.303 108.603C546.136 109.764 540.994 109.894 535.884 108.989H535.881C530.84 108.084 526.21 106.304 521.999 103.648L521.993 103.644C517.837 100.982 514.364 97.5395 511.578 93.3276C508.77 89.0827 507.082 84.1973 506.499 78.6938V78.6929C505.984 73.8029 506.208 69.0935 507.178 64.5698L507.181 64.5562C508.211 60.0507 509.822 55.8896 512.019 52.0786L512.024 52.0679C514.28 48.2664 516.99 44.9109 520.153 42.0054L520.161 41.9985C523.393 39.0901 526.954 36.8218 530.842 35.2007C534.795 33.5157 538.943 32.5436 543.281 32.2847H543.282ZM541.92 59.9741C540.59 60.0797 539.286 60.6069 537.99 61.6001L537.986 61.604C536.286 62.8936 534.898 64.5709 533.826 66.6558L533.82 66.6665C532.753 68.6832 532.127 70.8814 531.947 73.272C531.773 75.5941 532.265 77.6099 533.395 79.3638L533.629 79.7104C534.812 81.4006 536.195 82.5619 537.769 83.2466C539.572 84.003 541.311 84.2522 543.003 84.0298C544.699 83.7441 546.266 83.0095 547.711 81.7954L547.718 81.7896L547.726 81.7837C549.178 80.6109 550.209 78.9745 550.793 76.814C551.126 75.5299 551.084 74.4212 550.726 73.4487C550.342 72.4086 549.71 71.4651 548.805 70.6167L548.793 70.606L548.781 70.5942C547.915 69.7279 546.865 68.966 545.62 68.314C544.354 67.6509 543.061 67.1081 541.739 66.686C541.499 66.6231 541.272 66.4968 541.089 66.2993C540.894 66.0895 540.792 65.8484 540.739 65.6372C540.641 65.245 540.677 64.814 540.746 64.4263L540.85 63.8364C540.959 63.2412 541.086 62.629 541.231 62.0005L541.239 61.9663L541.25 61.9312C541.471 61.2141 541.695 60.5616 541.92 59.9741Z" fill="#F3D038" stroke="black" stroke-width="2"/>
<path d="M500.206 28.5974C500.446 28.6273 500.749 28.7132 501.012 28.9372C501.604 29.3846 501.688 30.1336 501.688 30.6237V32.6433C501.688 33.6059 501.653 34.901 501.586 36.5222C501.518 38.1504 501.417 39.8452 501.281 41.6062C501.214 43.3435 501.148 45.0149 501.081 46.6198C501.014 48.2296 500.981 49.4926 500.981 50.4147C500.981 51.0619 500.471 51.3635 500.327 51.4392C500.125 51.5457 499.898 51.6062 499.708 51.6462C499.31 51.73 498.767 51.7828 498.115 51.8171L498.089 51.819H488.269C487.048 51.819 486.018 51.8366 485.174 51.8689C485.365 55.9392 485.585 60.2106 485.833 64.6833L486.842 79.2116L488.053 93.8503L488.658 100.864C488.86 103.151 489.062 105.388 489.264 107.575L489.266 107.593L489.267 107.611C489.334 108.816 489.431 109.61 489.541 110.05L489.545 110.062L489.548 110.075C489.62 110.401 489.672 110.703 489.694 110.967C489.714 111.203 489.721 111.521 489.621 111.82L489.62 111.819C489.511 112.179 489.279 112.482 488.941 112.675C488.652 112.841 488.339 112.893 488.064 112.903C487.605 112.975 486.883 113.041 485.929 113.105C485.386 113.177 484.382 113.245 482.963 113.309L482.964 113.31C481.549 113.378 479.867 113.445 477.919 113.512C476.025 113.647 473.999 113.748 471.841 113.815L471.842 113.816C469.747 113.884 467.719 113.917 465.758 113.917C463.877 113.984 462.225 114.018 460.804 114.018C459.411 114.018 458.328 113.957 457.701 113.778L456.944 113.562L456.978 112.775C457.179 107.862 457.381 102.747 457.583 97.4304C457.785 92.1169 457.952 86.7693 458.087 81.3884L458.088 81.3767C458.29 75.9996 458.424 70.6559 458.491 65.3464C458.553 60.4308 458.585 55.6883 458.59 51.1189C458.46 51.1418 458.316 51.1667 458.16 51.196L458.135 51.2009L458.108 51.2038C457.108 51.3371 455.972 51.5048 454.699 51.7058L454.677 51.7097L454.653 51.7116C453.428 51.8478 452.268 51.9508 451.173 52.0192C450.62 52.0538 450.14 52.059 449.774 52.0134C449.603 51.9919 449.368 51.9493 449.148 51.8396C448.939 51.7348 448.536 51.4478 448.498 50.9021L448.396 49.6335C448.295 48.3149 448.194 46.8454 448.093 45.2263L448.092 45.2116L448.091 45.196C448.024 43.043 447.957 40.9906 447.89 39.0397L447.889 39.0222V33.8552C447.889 33.1415 447.905 32.5729 447.943 32.1706C447.962 31.9781 447.99 31.7713 448.041 31.5925C448.065 31.5103 448.112 31.3621 448.211 31.2136C448.296 31.0853 448.557 30.7635 449.028 30.737L451.551 30.5847C454.168 30.433 457.068 30.2821 460.251 30.1306H460.252C464.561 29.9286 468.937 29.7261 473.38 29.5241H473.381C477.89 29.3222 482.298 29.1549 486.605 29.0202C490.92 28.818 494.733 28.6825 498.042 28.6149L498.053 28.614H499.51C499.736 28.5819 499.973 28.5683 500.206 28.5974Z" fill="#F3D038" stroke="black" stroke-width="2"/>
<path d="M654.597 306.85C655.386 306.85 656.112 307.086 656.731 307.568C657.326 308.03 657.771 308.679 658.104 309.441C658.762 310.762 659.066 312.353 659.072 314.169C659.266 315.937 659.363 317.888 659.363 320.021V331.286C659.557 333.815 659.653 336.532 659.653 339.436C659.653 342.178 659.458 344.827 659.066 347.382C658.865 349.751 658.362 351.674 657.457 353.031L657.433 353.067L657.406 353.1C656.443 354.304 655.039 354.972 653.333 355.197C651.746 355.59 649.978 355.884 648.031 356.079C646.059 356.276 644.173 356.279 642.376 356.084H638.079C635.983 356.084 633.112 356.18 629.457 356.372C625.951 356.76 622.257 356.953 618.375 356.953C614.652 356.953 611.115 356.66 607.769 356.069C604.382 355.471 601.74 354.352 599.991 352.603C598.442 351.054 597.419 348.711 596.82 345.717L596.812 345.681L596.809 345.645C596.419 342.529 596.127 339.222 595.933 335.724V335.721C595.739 332.035 595.642 328.54 595.642 325.237V325.208L595.644 325.178C595.835 321.92 595.93 319.344 595.931 317.444C595.834 315.692 595.833 314.223 595.935 313.052C596.034 311.91 596.241 310.921 596.653 310.234L596.688 310.176L596.729 310.124C597.338 309.363 598.374 308.938 599.544 308.684C600.754 308.421 602.307 308.299 604.176 308.299C606.666 308.299 610.127 308.203 614.564 308.01H614.565C619.203 307.817 624.034 307.623 629.058 307.43H629.06C634.279 307.237 639.212 307.14 643.856 307.14C648.486 306.948 652.069 306.85 654.597 306.85ZM671.222 143.18C668.718 154.737 666.694 167.068 665.152 180.176C663.608 193.3 662.354 206.23 661.389 218.965V218.966C660.423 231.515 659.651 243.484 659.072 254.873C658.493 266.269 658.01 276.12 657.624 284.425L657.621 284.424C657.602 284.903 657.296 285.195 657.159 285.305C656.992 285.441 656.8 285.537 656.639 285.606C656.305 285.749 655.858 285.879 655.335 286.004C654.275 286.256 652.716 286.527 650.681 286.818L650.68 286.817C646.808 287.398 641.877 288.075 635.889 288.847L635.875 288.849L635.86 288.851C630.059 289.431 623.679 290.011 616.721 290.59C609.944 291.171 603.551 291.56 597.543 291.754H597.511C596.583 291.754 595.748 291.289 595.021 290.619C594.291 289.945 593.581 288.982 592.88 287.78L592.863 287.753L592.85 287.723C591.667 285.358 590.492 282.516 589.323 279.206L589.314 279.18L589.307 279.155C588.342 275.876 587.378 272.694 586.414 269.609L586.403 269.575L586.396 269.54C585.623 266.254 585.041 263.738 584.653 261.993V261.992C583.868 258.841 583.091 254.165 582.319 247.991V247.987C581.547 241.613 580.678 234.564 579.712 226.837L579.71 226.825L579.709 226.813C578.936 219.083 578.163 211.064 577.39 202.754C576.616 194.437 576.036 186.696 575.648 179.534V179.533C575.262 172.181 575.067 165.884 575.067 160.645C575.067 158.017 575.164 155.826 575.363 154.084C575.559 152.367 575.864 150.991 576.332 150.055L576.579 149.561L577.128 149.507C592.779 147.962 608.237 146.512 623.502 145.16H623.503C638.97 143.806 654.535 142.743 670.195 141.969L671.498 141.905L671.222 143.18Z" fill="#F3D038" stroke="black" stroke-width="2"/>
<path d="M489.315 215.767C490.7 215.623 491.813 215.586 492.574 215.7C492.978 215.703 493.404 215.782 493.782 216.023C494.157 216.262 494.403 216.605 494.539 216.989C494.732 217.326 494.824 217.709 494.865 218.076C494.911 218.486 494.901 218.95 494.852 219.453L494.926 222.901C495.056 229.03 495.133 235.587 495.159 242.574L495.16 242.574L495.589 262.796C495.597 263.155 495.57 263.521 495.468 263.85C495.374 264.152 495.186 264.506 494.824 264.742C494.65 264.87 494.48 264.918 494.415 264.935C494.296 264.966 494.179 264.979 494.085 264.987C493.893 265.002 493.665 265 493.419 264.989C492.921 264.966 492.231 264.9 491.363 264.795L491.363 264.794C486.952 264.277 482.358 263.825 477.58 263.437L477.566 263.437L477.552 263.435C472.892 262.922 468.171 262.472 463.39 262.084C458.599 261.695 453.869 261.305 449.201 260.913C444.889 260.552 440.785 260.184 436.89 259.813C436.774 261.015 436.732 262.604 436.774 264.596L436.874 269.295L480.327 268.372L480.279 269.44C480.195 271.274 480.119 273.415 480.049 275.865C479.978 278.318 479.909 280.833 479.841 283.408C479.807 284.696 479.773 285.985 479.739 287.273C479.705 288.555 479.671 289.838 479.637 291.12C479.689 293.575 479.675 295.793 479.594 297.773L479.559 298.607L478.732 298.722C476.626 299.016 473.608 299.326 469.686 299.655L469.655 299.658C465.745 299.863 461.652 300.133 457.376 300.468C453.093 300.804 448.994 301.137 445.079 301.465L445.064 301.466L445.049 301.468C441.641 301.647 438.935 301.812 436.928 301.96C436.696 305.088 436.657 307.502 436.801 309.224C436.879 310.156 437.047 310.677 437.202 310.924C437.258 311.013 437.295 311.039 437.303 311.043C437.311 311.045 437.333 311.047 437.373 311.041L437.382 311.04L437.391 311.039C445.445 310.011 454.414 308.658 464.299 306.978C474.183 305.299 483.696 303.504 492.838 301.595L493.921 301.369L494.037 302.471C494.189 303.921 494.556 306.895 495.141 311.404L495.672 314.766C496.205 318.184 496.742 321.775 497.282 325.537L497.281 325.537C498.123 330.547 498.839 335.317 499.426 339.847L499.824 342.874C500.181 345.629 500.419 347.566 500.536 348.679L500.637 349.647L499.672 349.775C484.124 351.824 468.563 353.319 452.99 354.264L452.991 354.265C437.552 355.329 421.983 356.089 406.286 356.545L406.278 356.545C403.741 356.599 401.651 356.205 400.159 355.207C398.531 354.118 397.772 352.088 397.589 349.527L397.588 349.502L397.587 349.477C397.259 334.028 397.116 318.635 397.158 303.3C397.2 288.286 397.179 273.155 397.098 257.907C395.499 257.82 394.062 257.69 392.792 257.506L392.785 257.504L392.777 257.503C391.436 257.288 390.287 257.132 389.328 257.033C388.814 256.98 388.351 256.902 387.992 256.775C387.815 256.713 387.595 256.617 387.402 256.455C387.195 256.282 386.958 255.976 386.949 255.539C386.913 253.862 386.74 251.381 386.425 248.084L386.422 248.047C386.23 244.753 385.978 241.523 385.667 238.356L385.665 238.335L385.664 238.316C385.471 235.001 385.347 232.11 385.295 229.643C385.269 228.406 385.294 227.424 385.383 226.733C385.426 226.398 385.492 226.059 385.611 225.777C385.694 225.582 385.976 225.016 386.63 224.942C388.998 224.518 392.751 224.071 397.866 223.596C403.127 222.994 409.06 222.378 415.664 221.747L415.665 221.747C422.398 221.114 429.498 220.472 436.965 219.823L436.966 219.823C444.552 219.172 451.711 218.589 458.443 218.078C465.301 217.442 471.49 216.943 477.01 216.58C482.52 216.218 486.622 215.947 489.315 215.767Z" fill="#F3D038" stroke="black" stroke-width="2"/>
<path d="M385.681 150.797C386.203 150.662 386.698 150.583 387.15 150.594C387.595 150.606 388.071 150.71 388.474 151.004C389.444 151.574 389.8 152.769 389.919 153.972L390.426 159.102C390.665 161.516 390.902 164.789 391.137 168.916C391.373 173.049 391.539 177.362 391.638 181.852C391.905 186.302 392.157 190.582 392.391 194.692C392.626 198.807 392.861 202.049 393.096 204.423C393.167 205.145 392.634 205.572 392.381 205.739C392.073 205.942 391.674 206.102 391.247 206.237C390.376 206.512 389.108 206.77 387.479 207.018L387.453 207.022L362.548 209.486C358.654 209.871 355.503 210.248 353.09 210.619C354.662 221.384 356.37 232.705 358.215 244.582L358.216 244.582C360.271 256.634 362.343 268.857 364.432 281.251L367.816 299.759C368.942 305.906 370.067 312.032 371.189 318.137L372.849 327.068C373.95 332.958 375.038 338.72 376.113 344.353L377.715 352.708L377.719 352.726L377.722 352.744C378.137 355.416 378.546 357.371 378.938 358.648L379.105 359.153L379.113 359.178C379.368 359.953 379.553 360.632 379.658 361.202C379.752 361.716 379.798 362.236 379.712 362.688C379.711 362.7 379.707 362.713 379.705 362.725C379.703 362.738 379.702 362.751 379.699 362.764L379.698 362.763C379.594 363.343 379.292 363.836 378.803 364.184C378.348 364.507 377.791 364.664 377.214 364.731C376.146 365.013 374.359 365.36 371.887 365.773C370.637 366.075 368.142 366.494 364.451 367.029L364.452 367.03C360.877 367.557 356.62 368.15 351.683 368.811C346.919 369.628 341.808 370.392 336.349 371.105L336.35 371.106C331.058 371.802 325.927 372.396 320.958 372.887C316.192 373.531 312.009 374.032 308.41 374.388C304.84 374.741 302.291 374.827 300.901 374.574L300.127 374.434L300.081 373.648C299.36 361.116 298.587 348.07 297.763 334.512C296.94 320.957 296.024 307.324 295.013 293.615L295.012 293.602C294.172 279.88 293.17 266.26 292.005 252.743C290.871 239.582 289.704 226.915 288.504 214.743C287.859 214.893 286.905 215.151 285.629 215.524L285.603 215.531L285.577 215.537C283.056 216.13 280.199 216.843 277.007 217.676L276.985 217.682L276.962 217.687C273.904 218.337 271.006 218.884 268.269 219.328C266.896 219.551 265.795 219.666 265.006 219.645C264.622 219.635 264.225 219.593 263.887 219.463C263.562 219.339 263.07 219.034 262.971 218.415L262.397 215.227C261.809 211.912 261.184 208.213 260.521 204.131L260.519 204.117L260.516 204.101C259.804 198.647 259.118 193.45 258.456 188.509L258.454 188.491L257.158 175.393C256.98 173.591 256.886 172.201 256.882 171.246C256.881 170.777 256.899 170.361 256.958 170.038C256.986 169.884 257.035 169.678 257.139 169.484C257.23 169.312 257.48 168.947 257.973 168.871L264.335 167.852C270.938 166.81 278.262 165.697 286.307 164.513C297.2 162.917 308.265 161.304 319.5 159.675L319.501 159.675C328.059 158.44 336.477 157.267 344.756 156.157L352.989 155.067C363.882 153.471 373.513 152.173 381.881 151.172L385.681 150.797Z" fill="#F3D038" stroke="black" stroke-width="2"/>
<path d="M225.347 229.402C232.378 228.989 239.498 229.929 246.702 232.211L247.4 232.435L247.404 232.437C247.836 232.581 248.077 232.911 248.193 233.201C248.3 233.467 248.323 233.746 248.323 233.975C248.323 234.441 248.22 235.021 248.058 235.671L248.056 235.681L248.053 235.691C247.728 236.881 247.246 238.321 246.614 240.008C246.088 241.688 245.461 243.468 244.731 245.346L243.869 247.813C243.732 248.212 243.603 248.594 243.48 248.956C248.988 250.945 254.347 253.643 259.558 257.048L260.087 257.382C265.515 260.866 269.801 265.268 272.929 270.583L273.479 271.53C276.169 276.29 277.967 281.382 278.87 286.8H278.869C279.933 292.553 280.092 298.359 279.347 304.216C278.602 310.063 277.114 315.751 274.883 321.276C272.648 326.809 269.72 331.868 266.099 336.448C262.583 341.027 258.479 344.969 253.791 348.272L253.788 348.274C249.173 351.494 244.072 353.695 238.496 354.875L238.495 354.874C229.993 356.785 221.537 356.999 213.133 355.51H213.131C204.838 354.021 197.226 351.095 190.306 346.729L190.3 346.725C183.476 342.354 177.772 336.702 173.193 329.78C168.593 322.825 165.82 314.813 164.862 305.766V305.765C164.014 297.707 164.385 289.954 165.979 282.512L165.982 282.499C167.679 275.075 170.333 268.225 173.946 261.954L173.953 261.942C177.667 255.681 182.128 250.157 187.335 245.376L187.342 245.369C192.66 240.583 198.517 236.855 204.909 234.191C211.403 231.424 218.217 229.828 225.346 229.402H225.347ZM224.01 274.046C221.303 274.015 218.68 274.949 216.115 276.916L216.111 276.919C213.202 279.126 210.834 281.991 209.012 285.535L209.006 285.546C207.188 288.98 206.125 292.722 205.82 296.78C205.521 300.77 206.367 304.265 208.33 307.311L208.73 307.903C210.756 310.798 213.147 312.816 215.894 314.009C218.99 315.307 222.001 315.744 224.943 315.354C227.89 314.86 230.602 313.583 233.09 311.494L233.097 311.488L233.104 311.482C235.64 309.434 237.423 306.589 238.424 302.886C239.007 300.642 238.944 298.658 238.294 296.893C237.619 295.061 236.507 293.409 234.935 291.935L234.923 291.925L234.911 291.913C233.419 290.421 231.618 289.117 229.498 288.007C227.355 286.884 225.163 285.967 222.923 285.253C222.634 285.179 222.365 285.029 222.148 284.796C221.92 284.549 221.793 284.259 221.725 283.985C221.595 283.467 221.637 282.859 221.748 282.243L221.918 281.274C222.098 280.296 222.307 279.29 222.546 278.255L222.554 278.22L222.564 278.185C222.986 276.816 223.41 275.595 223.837 274.523C223.899 274.351 223.957 274.192 224.01 274.046Z" fill="#F3D038" stroke="black" stroke-width="2"/>
<path d="M53.9854 173.194C59.7483 172.714 63.9947 172.527 66.6826 172.651L67.2002 172.68L68.0703 172.738L68.1309 173.609C69.4992 193.279 70.7822 212.864 71.9795 232.363C73.1555 251.515 74.6624 270.751 76.499 290.069C76.9817 289.991 77.63 289.865 78.46 289.681C79.9725 289.345 81.5738 288.923 83.2637 288.416L83.2764 288.412L83.2881 288.41C85.1343 287.906 86.7177 287.405 88.043 286.91C88.7704 286.585 89.2552 286.307 89.543 286.083C89.6581 285.994 89.7159 285.931 89.7441 285.898C92.1332 267.807 93.5837 249.716 94.0957 231.626C94.6092 213.312 95.5506 194.997 96.9199 176.682L96.9873 175.781L97.8906 175.756C110.559 175.414 123.057 175.328 135.385 175.499C147.693 175.67 160.259 175.756 173.081 175.756H174.397L174.045 177.024C171.486 186.235 168.926 196.819 166.363 208.776C163.97 220.743 161.491 233.138 158.927 245.959C156.534 258.608 154.226 271.171 152.004 283.649C149.78 296.139 147.641 307.519 145.587 317.788C143.706 328.049 141.994 336.777 140.453 343.969L140.452 343.974C139.681 347.488 138.993 350.35 138.388 352.554C137.789 354.736 137.254 356.338 136.778 357.289L136.543 357.761L136.021 357.833C124.888 359.375 113.584 360.573 102.11 361.429C90.6429 362.456 79.2607 363.312 67.9639 363.996L67.9648 363.997C59.7622 364.51 53.1932 365.022 48.2529 365.533C43.3009 366.045 39.4233 366.305 36.6377 366.307C33.927 366.475 31.8738 366.41 30.6455 366C29.3515 365.569 28.3824 364.694 27.7588 363.447L27.7461 363.42L27.7344 363.393C27.1815 362.103 26.7366 360.485 26.3867 358.561C26.2157 357.62 26.045 356.679 25.874 355.739C25.703 354.798 25.5314 353.857 25.3604 352.916L25.3516 352.87L25.3477 352.821C25.1791 350.798 24.9267 348.863 24.5908 347.016L24.583 346.973L24.5791 346.928C24.4089 345.056 24.2399 343.535 24.0723 342.362L24.0703 342.354L24.0693 342.345C22.3601 328.842 20.4799 315.167 18.4287 301.322L18.4268 301.309C16.5461 287.461 14.5808 273.698 12.5293 260.021L12.5264 260.007V260.006C10.6454 246.156 8.76472 232.562 6.88379 219.224L6.88281 219.217L6.88184 219.209C5.17145 205.697 3.54623 192.613 2.00684 179.955L1.89551 179.036L2.80371 178.854C5.39871 178.335 9.69885 177.648 15.6855 176.792C21.6905 175.935 28.035 175.248 34.7188 174.734C41.5657 174.049 47.9881 173.537 53.9854 173.194Z" fill="#F3D038" stroke="black" stroke-width="2"/>
</svg>
